<svg width="950" height="700" viewBox="0 0 950 700" fill="none" xmlns="http://www.w3.org/2000/svg">
<g clip-path="url(#clip0_100_327)">
<path opacity="0.25" d="M551.966 123.451C491.063 121.286 433.012 101.181 377.663 79.188C322.314 57.1953 267.455 32.8236 207.978 21.1699C169.737 13.6661 126.004 12.6107 95.1985 33.5749C65.5473 53.743 55.9698 88.561 50.818 120.866C46.9432 145.175 44.6953 170.754 55.2875 193.516C62.661 209.311 75.7459 222.592 84.7987 237.725C116.287 290.377 94.0264 355.308 59.897 406.762C43.8906 430.91 25.3215 453.886 12.9712 479.564C0.620958 505.241 -5.09935 534.657 5.71151 560.844C16.4262 586.781 41.9489 606.297 69.6058 620.007C125.777 647.831 191.963 655.791 256.504 660.352C399.372 670.343 543.01 666.014 686.253 661.685C739.267 660.075 792.516 658.456 844.664 650.058C873.624 645.399 903.529 638.011 924.556 620.177C951.242 597.532 957.863 559.199 939.976 530.802C909.975 483.186 827.031 471.353 806.056 420.249C794.519 392.121 806.371 360.782 823.147 334.693C859.122 278.732 919.439 229.631 922.614 165.656C924.801 121.715 895.806 77.7212 850.97 56.927C803.983 35.1132 738.821 37.8679 704.158 73.9201C668.463 111.063 605.732 125.356 551.966 123.451Z" fill="#658AE8"/>
<path d="M211.888 648.457C211.888 648.457 163.781 611.269 154.694 563.966C151.008 544.098 141.123 525.988 126.521 512.351C119.535 505.936 111.99 500.188 103.98 495.179" stroke="#535461" stroke-width="2" stroke-miterlimit="10"/>
<path d="M98.0933 465.379C102.309 471.21 104.216 495.922 104.216 495.922C104.216 495.922 81.6758 486.844 77.4512 481.021C75.4226 478.222 74.5644 474.714 75.0655 471.268C75.5667 467.822 77.386 464.721 80.1233 462.646C82.8606 460.572 86.2917 459.694 89.6617 460.207C93.0317 460.719 96.0647 462.58 98.0933 465.379Z" fill="#82A5D0"/>
<path d="M138.521 484.769C138.958 492.004 127.439 513.809 127.439 513.809C127.439 513.809 113.33 493.65 112.884 486.414C112.715 482.965 113.881 479.586 116.131 477.01C118.381 474.434 121.532 472.868 124.904 472.651C128.275 472.435 131.593 473.585 134.14 475.853C136.688 478.122 138.258 481.325 138.512 484.769H138.521Z" fill="#82A5D0"/>
<path d="M177.706 540.506C174.522 546.981 153.801 559.86 153.801 559.86C153.801 559.86 151.588 535.176 154.772 528.7C156.339 525.655 159.013 523.361 162.218 522.311C165.423 521.262 168.903 521.54 171.908 523.088C174.914 524.635 177.206 527.327 178.29 530.585C179.374 533.842 179.165 537.405 177.706 540.506Z" fill="#82A5D0"/>
<path d="M198.076 589.482C196.003 596.413 177.714 612.682 177.714 612.682C177.714 612.682 171.443 588.74 173.516 581.799C174.512 578.469 176.762 575.68 179.769 574.045C182.777 572.411 186.296 572.065 189.553 573.084C192.81 574.103 195.538 576.403 197.136 579.478C198.735 582.553 199.073 586.152 198.076 589.482Z" fill="#2864AE"/>
<path d="M106.587 531.339C113.584 532.305 135.704 522.091 135.704 522.091C135.704 522.091 117.039 506.279 110.007 505.313C106.632 504.849 103.214 505.775 100.507 507.888C97.7997 510 96.024 513.126 95.5705 516.577C95.117 520.029 96.0228 523.523 98.0888 526.291C100.155 529.06 103.212 530.875 106.587 531.339Z" fill="#82A5D0"/>
<path d="M131.121 588.32C138.118 587.094 156.197 570.593 156.197 570.593C156.197 570.593 133.754 561.22 126.765 562.445C125.092 562.726 123.489 563.342 122.051 564.259C120.612 565.176 119.364 566.376 118.381 567.788C117.398 569.201 116.698 570.798 116.322 572.489C115.946 574.179 115.901 575.929 116.19 577.638C116.478 579.346 117.095 580.979 118.004 582.443C118.914 583.906 120.097 585.171 121.487 586.164C122.877 587.157 124.445 587.859 126.102 588.229C127.758 588.599 129.47 588.63 131.138 588.32H131.121Z" fill="#82A5D0"/>
<path d="M162.39 640.363C169.483 640.363 190.038 627.225 190.038 627.225C190.038 627.225 169.475 614.104 162.381 614.104C158.976 614.104 155.71 615.488 153.302 617.95C150.894 620.412 149.541 623.752 149.541 627.234C149.541 630.716 150.894 634.056 153.302 636.518C155.71 638.98 158.976 640.363 162.381 640.363H162.39Z" fill="#2864AE"/>
<path d="M679.221 326.813C679.221 326.813 708.872 273.106 753.567 257.633C772.335 251.26 788.576 238.836 799.855 222.225C805.144 214.284 809.709 205.862 813.491 197.066" stroke="#535461" stroke-width="2" stroke-miterlimit="10"/>
<path d="M841.55 187.228C836.459 192.273 812.765 197.496 812.765 197.496C812.765 197.496 818.581 173.437 823.672 168.384C826.129 166.032 829.391 164.76 832.756 164.843C836.121 164.925 839.32 166.356 841.663 168.826C844.007 171.297 845.308 174.609 845.287 178.051C845.266 181.493 843.924 184.788 841.55 187.228Z" fill="#6C63FF"/>
<path d="M828.15 230.722C821.153 232.135 798.525 223.352 798.525 223.352C798.525 223.352 816.194 206.359 823.147 204.972C824.817 204.594 826.544 204.56 828.226 204.872C829.909 205.185 831.514 205.839 832.946 206.794C834.378 207.75 835.609 208.989 836.567 210.438C837.525 211.886 838.19 213.516 838.523 215.232C838.856 216.947 838.851 218.713 838.508 220.426C838.164 222.139 837.49 223.765 836.524 225.208C835.557 226.651 834.319 227.882 832.881 228.829C831.443 229.775 829.835 230.419 828.15 230.722Z" fill="#6C63FF"/>
<path d="M779.379 277.837C772.679 275.467 757.451 256.184 757.451 256.184C757.451 256.184 781.067 250.657 787.785 253.027C789.398 253.575 790.89 254.444 792.173 255.586C793.455 256.728 794.503 258.119 795.256 259.678C796.008 261.237 796.451 262.933 796.557 264.669C796.663 266.404 796.431 268.144 795.874 269.787C795.318 271.43 794.448 272.943 793.314 274.239C792.181 275.536 790.807 276.589 789.273 277.338C787.738 278.087 786.073 278.517 784.375 278.602C782.676 278.688 780.978 278.428 779.379 277.837Z" fill="#6C63FF"/>
<path d="M734.562 304.99C727.564 303.81 709.406 287.398 709.406 287.398C709.406 287.398 731.789 277.864 738.778 279.045C742.141 279.61 745.147 281.519 747.135 284.351C749.122 287.183 749.927 290.707 749.374 294.146C748.821 297.586 746.954 300.659 744.184 302.691C741.415 304.723 737.969 305.547 734.605 304.981L734.562 304.99Z" fill="#6C63FF"/>
<path d="M778.767 204.543C778.758 211.797 791.624 232.841 791.624 232.841C791.624 232.841 804.473 211.823 804.473 204.579C804.518 202.827 804.219 201.083 803.594 199.45C802.969 197.818 802.031 196.33 800.834 195.074C799.638 193.819 798.208 192.821 796.628 192.139C795.049 191.458 793.352 191.107 791.637 191.107C789.923 191.107 788.226 191.458 786.646 192.139C785.067 192.821 783.637 193.819 782.44 195.074C781.244 196.33 780.306 197.818 779.681 199.45C779.056 201.083 778.757 202.827 778.802 204.579L778.767 204.543Z" fill="#6C63FF"/>
<path d="M726.785 236.973C728.902 243.896 747.305 260.039 747.305 260.039C747.305 260.039 753.427 236.052 751.293 229.13C750.187 225.923 747.906 223.28 744.931 221.757C741.957 220.235 738.521 219.953 735.347 220.969C732.173 221.986 729.509 224.222 727.915 227.207C726.321 230.193 725.922 233.694 726.803 236.973H726.785Z" fill="#6C63FF"/>
<path d="M680.542 275.584C681.486 282.739 696.951 301.852 696.951 301.852C696.951 301.852 706.93 279.269 705.986 272.087C705.798 270.347 705.273 268.662 704.439 267.133C703.606 265.604 702.482 264.261 701.133 263.182C699.785 262.104 698.239 261.312 696.587 260.853C694.934 260.394 693.209 260.278 691.512 260.512C689.816 260.745 688.182 261.323 686.706 262.211C685.231 263.099 683.945 264.281 682.923 265.685C681.9 267.089 681.163 268.689 680.754 270.388C680.345 272.088 680.273 273.855 680.542 275.584Z" fill="#6C63FF"/>
<path opacity="0.25" d="M841.55 187.228C836.459 192.273 812.765 197.496 812.765 197.496C812.765 197.496 818.581 173.437 823.672 168.384C826.129 166.032 829.391 164.76 832.756 164.843C836.121 164.925 839.32 166.356 841.663 168.826C844.007 171.297 845.308 174.609 845.287 178.051C845.266 181.493 843.924 184.788 841.55 187.228Z" fill="#82A5D0"/>
<path opacity="0.25" d="M828.15 230.722C821.153 232.135 798.525 223.352 798.525 223.352C798.525 223.352 816.194 206.359 823.147 204.972C824.817 204.594 826.544 204.56 828.226 204.872C829.909 205.185 831.514 205.839 832.946 206.794C834.378 207.75 835.609 208.989 836.567 210.438C837.525 211.886 838.19 213.516 838.523 215.232C838.856 216.947 838.851 218.713 838.508 220.426C838.164 222.139 837.49 223.765 836.524 225.208C835.557 226.651 834.319 227.882 832.881 228.829C831.443 229.775 829.835 230.419 828.15 230.722Z" fill="#82A5D0"/>
<path opacity="0.25" d="M779.379 277.837C772.679 275.467 757.451 256.184 757.451 256.184C757.451 256.184 781.067 250.657 787.785 253.027C789.398 253.575 790.89 254.444 792.173 255.586C793.455 256.728 794.503 258.119 795.256 259.678C796.008 261.237 796.451 262.933 796.557 264.669C796.663 266.404 796.431 268.144 795.874 269.787C795.318 271.43 794.448 272.943 793.314 274.239C792.181 275.536 790.807 276.589 789.273 277.338C787.738 278.087 786.073 278.517 784.375 278.602C782.676 278.688 780.978 278.428 779.379 277.837Z" fill="#82A5D0"/>
<path opacity="0.25" d="M734.562 304.99C727.564 303.81 709.406 287.398 709.406 287.398C709.406 287.398 731.789 277.864 738.778 279.045C742.141 279.61 745.147 281.519 747.135 284.351C749.122 287.183 749.927 290.707 749.374 294.146C748.821 297.586 746.954 300.659 744.184 302.691C741.415 304.723 737.969 305.547 734.605 304.981L734.562 304.99Z" fill="black"/>
<path opacity="0.25" d="M778.767 204.543C778.758 211.797 791.624 232.841 791.624 232.841C791.624 232.841 804.473 211.823 804.473 204.579C804.518 202.827 804.219 201.083 803.594 199.45C802.969 197.818 802.031 196.33 800.834 195.074C799.638 193.819 798.208 192.821 796.628 192.139C795.049 191.458 793.352 191.107 791.637 191.107C789.923 191.107 788.226 191.458 786.646 192.139C785.067 192.821 783.637 193.819 782.44 195.074C781.244 196.33 780.306 197.818 779.681 199.45C779.056 201.083 778.757 202.827 778.802 204.579L778.767 204.543Z" fill="#82A5D0"/>
<path opacity="0.25" d="M726.785 236.973C728.902 243.896 747.305 260.039 747.305 260.039C747.305 260.039 753.427 236.052 751.293 229.13C750.187 225.923 747.906 223.28 744.931 221.757C741.957 220.235 738.521 219.953 735.347 220.969C732.173 221.986 729.509 224.222 727.915 227.207C726.321 230.193 725.922 233.694 726.803 236.973H726.785Z" fill="black"/>
<path opacity="0.25" d="M680.542 275.584C681.486 282.739 696.951 301.852 696.951 301.852C696.951 301.852 706.93 279.269 705.986 272.087C705.798 270.347 705.273 268.662 704.439 267.133C703.606 265.604 702.482 264.261 701.133 263.182C699.785 262.104 698.239 261.312 696.587 260.853C694.934 260.394 693.209 260.278 691.512 260.512C689.816 260.745 688.182 261.323 686.706 262.211C685.231 263.099 683.945 264.281 682.923 265.685C681.9 267.089 681.163 268.689 680.754 270.388C680.345 272.088 680.273 273.855 680.542 275.584Z" fill="black"/>
<path d="M680.927 325.749C680.927 325.749 686.752 264.359 721.441 231.715C736.073 218.11 745.997 200.022 749.728 180.163C751.426 170.722 752.272 161.142 752.256 151.543" stroke="#535461" stroke-width="2" stroke-miterlimit="10"/>
<path d="M774 130.829C771.376 137.555 751.748 152.151 751.748 152.151C751.748 152.151 747.532 127.743 750.183 121.018C751.458 117.788 753.937 115.209 757.072 113.848C760.208 112.487 763.743 112.455 766.902 113.76C770.06 115.064 772.582 117.598 773.913 120.805C775.244 124.011 775.276 127.626 774 130.856V130.829Z" fill="#2864AE"/>
<path d="M778.994 176.192C773.195 180.36 748.993 181.728 748.993 181.728C748.993 181.728 758.422 158.886 764.221 154.718C765.596 153.666 767.164 152.906 768.832 152.484C770.499 152.062 772.233 151.987 773.929 152.263C775.626 152.538 777.251 153.159 778.708 154.088C780.166 155.018 781.427 156.237 782.415 157.673C783.404 159.11 784.101 160.734 784.464 162.451C784.828 164.168 784.851 165.942 784.532 167.668C784.213 169.394 783.558 171.037 782.607 172.499C781.656 173.962 780.427 175.215 778.994 176.183V176.192Z" fill="#2864AE"/>
<path d="M753.052 239.496C745.984 240.104 724.415 228.763 724.415 228.763C724.415 228.763 743.833 213.917 750.9 213.308C754.294 213.017 757.662 214.115 760.263 216.363C762.865 218.61 764.487 221.823 764.772 225.293C765.057 228.763 763.983 232.207 761.785 234.867C759.587 237.528 756.445 239.186 753.052 239.478V239.496Z" fill="#2864AE"/>
<path d="M722.867 282.864C716.001 284.653 692.875 277.256 692.875 277.256C692.875 277.256 709.555 259.27 716.421 257.446C719.717 256.572 723.218 257.072 726.154 258.838C729.089 260.603 731.218 263.488 732.073 266.859C732.928 270.23 732.438 273.81 730.712 276.811C728.985 279.813 726.164 281.99 722.867 282.864Z" fill="#6C63FF"/>
<path d="M723.479 172.722C726.348 179.349 746.413 193.292 746.413 193.292C746.413 193.292 749.824 168.751 746.955 162.123C745.526 159.023 742.967 156.617 739.826 155.42C736.684 154.222 733.21 154.329 730.144 155.716C727.079 157.104 724.665 159.662 723.42 162.845C722.174 166.027 722.196 169.582 723.479 172.749V172.722Z" fill="#2864AE"/>
<path d="M688.807 223.898C693.487 229.345 716.7 236.482 716.7 236.482C716.7 236.482 712.782 212.021 708.102 206.574C706.998 205.251 705.647 204.165 704.129 203.38C702.61 202.595 700.955 202.127 699.258 202.002C697.561 201.877 695.857 202.098 694.244 202.653C692.631 203.207 691.143 204.084 689.864 205.232C688.586 206.38 687.543 207.776 686.797 209.339C686.051 210.903 685.616 212.602 685.518 214.339C685.419 216.076 685.659 217.815 686.224 219.456C686.789 221.097 687.667 222.607 688.807 223.898Z" fill="#6C63FF"/>
<path d="M661.789 278.383C665.497 284.554 687.198 295.6 687.198 295.6C687.198 295.6 687.381 270.817 683.699 264.637C681.866 261.783 679.018 259.772 675.759 259.03C672.5 258.287 669.087 258.872 666.242 260.66C663.398 262.448 661.347 265.299 660.523 268.607C659.7 271.916 660.17 275.423 661.832 278.383H661.789Z" fill="#6C63FF"/>
<path d="M636.318 85.3322C637.77 79.8854 639.52 74.4118 640.744 68.8936C639.275 74.4118 637.517 79.9033 636.318 85.3322Z" fill="url(#paint0_linear_100_327)"/>
<path d="M629.812 137.796C629.689 137.582 629.602 137.367 629.506 137.17C629.506 137.081 629.418 137.009 629.383 136.92C629.192 137.012 628.997 137.092 628.797 137.161C628.412 137.313 628.019 137.456 627.616 137.573C627.214 137.689 627.048 137.752 626.742 137.823C626.488 137.912 626.227 137.981 625.963 138.029L626.033 138.19C626.357 138.118 626.672 138.056 626.995 137.966L627.083 139.075C627.45 139.075 627.791 139.022 628.124 139.022C628.281 139.013 628.439 139.013 628.596 139.022C629.278 139.022 629.873 139.022 630.345 139.022C630.162 138.619 629.969 138.199 629.812 137.796ZM807.369 426.795C803.258 421.134 795.053 360.37 795.053 360.37C795.053 360.37 778.916 317.163 783.315 299.919C787.715 282.676 771.297 238.556 771.297 238.556C771.297 238.556 760.452 233.736 759.866 226.581C759.866 226.581 715.581 212.271 713.508 201.538C711.829 192.738 684.365 186.423 674.498 184.429C671.489 172.015 668.463 160.433 666.233 154.11C665.629 152.142 665.061 150.443 664.536 149.101C660.766 139.263 649.116 138.369 640.666 139.156C640.3 137.479 639.62 135.891 638.663 134.478C638.524 133.993 638.247 133.56 637.867 133.235C637.686 133.077 637.493 132.933 637.29 132.806C637.137 132.516 636.936 132.255 636.695 132.036C636.455 131.815 636.191 131.623 635.908 131.464C635.705 131.352 635.494 131.253 635.278 131.169C634.771 130.972 634.247 130.825 633.713 130.731C633.09 130.6 632.458 130.516 631.823 130.48C633.367 129.79 634.744 128.761 635.856 127.466C636.612 126.557 637.175 125.497 637.509 124.354C637.786 123.403 637.91 122.412 637.876 121.42C637.649 121.829 637.386 122.215 637.089 122.574C637.456 118.612 635.41 114.587 634.237 110.643C632.817 105.508 632.554 100.111 633.468 94.8573C634.64 86.9332 637.544 78.9196 639.512 70.8523C639.517 70.8078 639.517 70.7627 639.512 70.7182C640.544 66.7118 641.182 62.6102 641.418 58.4742C641.76 50.1297 639.669 41.8031 636.31 34.2009C633.328 27.4662 628.928 20.8389 622.193 18.1021C617.19 16.0361 611.584 16.367 606.196 16.0272C594.108 15.258 582.58 10.9114 571.087 6.95823C559.594 3.00509 547.768 -0.590296 535.671 0.0983724C523.575 0.787041 511.128 6.75251 505.609 17.6997C503.86 21.1162 502.854 24.9173 500.764 28.1281C496.845 34.183 489.83 37.2149 483.979 41.3916C478.127 45.5684 472.975 51.4981 470.859 58.5726C469.703 62.384 469.54 66.438 470.386 70.3336C470.577 71.2133 470.822 72.0797 471.121 72.9273C471.951 75.2905 473.246 77.4546 474.926 79.2863C476.193 80.64 477.649 81.7944 479.247 82.7117C481.253 83.8491 483.401 84.7035 485.632 85.2518C485.553 85.5201 485.474 85.8063 485.387 86.0835C485.247 86.5397 485.125 86.9779 484.993 87.4698C484.705 88.5699 484.434 89.6879 484.206 90.8148C484.197 90.895 484.197 90.976 484.206 91.0562C483.132 96.1434 482.592 101.333 482.597 106.538C482.595 108.999 482.718 111.459 482.964 113.908C486.463 150.201 515.764 178.83 551.966 180.69C553.208 180.753 554.459 180.789 555.728 180.789C556.305 180.789 556.873 180.789 557.477 180.789C558.045 181.558 558.605 182.345 559.139 183.114C559.672 183.883 560.162 184.67 560.626 185.44L559.357 184.098L558.089 182.909C557.745 183.391 557.362 183.843 556.943 184.259C556.116 183.962 555.272 183.717 554.416 183.526C550.786 182.703 545.258 182.399 537.981 184.644C531.289 186.692 523.111 190.904 513.542 198.909L466.914 227.529L441.689 243.216L432.601 265.933C432.601 265.933 425.77 292.926 418.169 323.853C417.872 323.942 417.583 324.032 417.294 324.139C416.679 324.067 416.06 324.032 415.44 324.032C411.03 324.021 406.788 325.759 403.604 328.879C400.42 331.999 398.543 336.26 398.367 340.766C383.252 359.547 382.395 378.329 385.946 386.951C386.268 387.759 386.672 388.529 387.153 389.25C389.48 392.684 393.827 401.538 398.235 410.974C398.122 411.752 398.052 412.405 398.017 412.897C398.009 413.058 398.009 413.219 398.017 413.38C398.017 413.38 400.641 453.904 391.894 465.522C389.978 468.053 390.267 471.38 391.894 475.065C397.754 488.319 420.924 506.019 420.924 506.019C420.924 506.019 448.712 505.867 464.194 504.141C464.15 505.733 464.115 507.316 464.08 508.863C463.73 524.497 463.73 537.599 463.73 537.599L463.153 553.993C463.153 553.993 457.905 588.543 455.281 598.068C453.628 604.043 455.535 659.36 457.197 700.027H730.984C734.203 675.968 729.663 602.871 729.663 602.871C729.663 602.871 725.351 583.973 725.194 567.498C725.185 567.48 725.181 567.46 725.181 567.44C725.181 567.42 725.185 567.4 725.194 567.382C725.194 565.942 725.194 564.538 725.246 563.161L727.232 563.089L730.801 562.964H731.124C731.124 562.964 731.212 562.624 731.413 562.07C731.885 560.688 732.529 559.375 733.328 558.161C734.85 555.863 737.229 553.609 740.807 553.457C742.783 553.376 745.845 551.74 749.3 549.325C749.323 549.33 749.347 549.33 749.37 549.325C758.667 542.894 770.956 531.026 773.939 529.076C778.041 526.393 797.686 508.505 797.686 508.505C797.686 508.505 800.616 504.713 803.739 500.143L803.852 499.982C807.736 494.258 811.864 487.416 810.85 485.261C809.1 481.397 812.022 472.158 812.022 472.158C821.145 455.085 811.48 432.457 807.369 426.795ZM638.235 151.704C638.319 151.971 638.371 152.247 638.392 152.527C638.173 152.231 637.955 151.918 637.736 151.632L637.526 151.346L637.378 151.131L637.71 150.666C637.71 150.666 637.71 150.666 637.71 150.729C637.941 151.019 638.119 151.349 638.235 151.704ZM635.296 143.78C634.342 143.976 633.59 144.155 633.1 144.289C632.479 143.163 631.885 142.036 631.351 140.891C632.753 141.723 634.074 142.69 635.296 143.78ZM633.651 145.193C633.649 145.175 633.649 145.157 633.651 145.139L633.721 145.193C634.08 145.434 634.43 145.667 634.754 145.908C635.042 146.123 635.305 146.329 635.567 146.543C635.392 146.856 635.2 147.178 635.007 147.438C634.701 146.946 634.412 146.472 634.133 145.98C633.958 145.783 633.8 145.515 633.651 145.193ZM628.403 134.156C630.093 133.986 631.795 133.986 633.485 134.156C633.721 134.156 633.931 134.201 634.141 134.237C634.616 134.312 635.081 134.434 635.532 134.603C636.566 136.082 637.202 137.812 637.378 139.621L636.905 139.692L636.442 139.782C635.567 139.934 634.692 140.086 634.01 140.229L633.135 140.417C631.972 140.676 631.299 140.873 631.272 140.882C631.159 140.64 631.045 140.417 630.923 140.184C630.73 139.8 630.529 139.406 630.354 139.022C630.179 138.637 629.952 138.199 629.768 137.796C629.645 137.582 629.558 137.367 629.462 137.17C629.462 137.081 629.374 137.009 629.339 136.92C629.288 136.825 629.245 136.726 629.208 136.625C628.675 135.516 628.185 134.407 627.712 133.315C627.66 133.208 627.616 133.092 627.573 132.985L628.237 132.94V133.172L628.403 134.156ZM419.717 688.972C419.647 675.655 418.703 661.247 416.079 647.724C414.959 641.973 413.804 636.222 412.632 630.57C412.335 629.157 412.046 627.761 411.758 626.366L409.064 626.733H408.819C401.472 591.307 393.792 560.093 393.792 560.093C393.792 560.093 378.538 500.537 380.305 495.787C380.532 495.17 380.243 493.507 379.596 491.065C375.905 477.524 360.494 440.211 355.106 427.457C355.106 427.404 355.062 427.341 355.044 427.296C354.17 425.159 353.54 423.719 353.348 423.298L354.616 404.266L354.686 403.121L354.852 400.689L354.782 400.626L354.852 399.499C354.852 399.499 341.54 388.337 318.991 380.279C318.116 379.957 317.189 379.644 316.27 379.34C317.399 371.639 318.894 362.946 320.845 354.476C321.029 353.627 321.23 352.804 321.44 351.972C321.623 351.14 321.833 350.335 322.043 349.521C322.376 348.198 322.734 346.892 323.102 345.604C324.317 345.211 325.516 344.772 326.696 344.307L327.151 344.128C341.698 338.341 353.701 327.359 360.937 313.218C368.174 299.076 370.154 282.732 366.511 267.212C364.434 258.41 360.598 250.143 355.246 242.93C354.843 242.375 354.415 241.821 353.986 241.275C353.557 240.73 353.041 240.122 352.56 239.567C355.088 233.691 358.071 228.101 358.316 222.386C358.359 221.662 358.359 220.937 358.316 220.213V220.123C357.992 216.448 356.4 212.727 352.692 208.819C347.277 203.086 339.572 200.179 331.866 198.784C324.16 197.388 316.305 197.353 308.556 196.414C295.707 194.839 283.191 190.788 270.342 189.545C254.515 188.046 238.582 190.822 224.133 197.594C214.573 202.066 204.891 209.883 204.313 220.606C203.841 229.47 209.876 237.966 208.354 246.722C206.841 255.326 198.269 262.096 199.022 270.799C199.31 274.197 201.016 277.238 203.15 279.948C203.885 280.842 204.663 281.737 205.468 282.631C208.582 286.003 212.01 289.241 213.751 293.489C213.821 293.668 213.891 293.847 213.952 294.026C215.43 298.22 214.766 303.524 211.109 305.93C211.13 305.946 211.145 305.968 211.153 305.992C211.206 306.064 211.258 306.118 211.302 306.189C211.307 306.175 211.307 306.159 211.302 306.144C212.598 307.716 214.346 308.83 216.296 309.328L217.04 309.561C216.436 310.232 215.868 310.929 215.29 311.663L214.914 312.172C213.95 313.498 213.074 314.887 212.29 316.331C211.844 317.136 211.416 317.941 211.057 318.746C209.858 321.2 208.99 323.808 208.477 326.5C207.541 332.421 208.862 338.592 207.445 344.388C205.695 351.543 200.159 357.034 197.036 363.679C191.123 376.201 194.473 390.895 195.663 404.722C197.281 423.504 194.657 442.367 192.042 461.023C190.654 470.945 189.266 480.875 187.878 490.815C184.38 515.762 180.881 540.709 177.382 565.656C176.105 574.797 174.592 584.438 168.636 591.495H168.697C168.697 591.495 168.697 591.548 168.636 591.566C170.424 592.365 172.325 592.866 174.269 593.051C182.044 593.847 190.284 590.001 197.281 585.797C202.822 582.523 208.07 578.755 212.964 574.537C212.247 577.22 211.477 580.145 210.655 583.293C210.657 583.323 210.657 583.353 210.655 583.383C200.78 621.841 184.896 692.344 184.896 692.344C184.896 692.344 183.453 695.412 181.581 699.982H428.236C425.35 696.405 422.665 692.979 420.566 690.216L419.717 688.972ZM237.087 333.369C237.148 333.262 237.192 333.163 237.253 333.065C237.253 333.351 237.253 333.628 237.253 333.897C237.253 334.165 237.253 334.407 237.253 334.657C237.253 334.907 237.253 334.881 237.253 335.006C237.253 335.372 237.174 335.739 237.113 336.106C237.113 336.106 237.113 336.151 237.113 336.186L237.988 336.517L239.003 336.947C244.997 339.367 251.067 341.559 257.213 343.52C257.843 343.726 258.481 343.923 259.12 344.111L259.251 345.22C259.408 346.355 259.557 347.509 259.697 348.663C259.697 348.663 259.697 348.717 259.697 348.752C260.091 351.945 260.476 355.129 260.817 358.242C260.817 358.242 244.758 351.981 244.959 361.488C244.95 361.658 244.95 361.828 244.959 361.998C244.941 362.224 244.941 362.452 244.959 362.678C245.108 370.083 247.373 374.475 247.828 376.728C247.801 376.822 247.753 376.907 247.688 376.979C247.3 377.842 247.166 378.803 247.303 379.742C247.288 381.342 247.411 382.941 247.67 384.518C247.198 384.814 246.735 385.109 246.271 385.413C245.921 385.636 245.589 385.887 245.248 386.137C243.102 378.527 240.295 371.127 236.86 364.028C234.454 358.966 231.752 353.689 231.778 348.135C231.778 347.777 231.778 347.411 231.822 347.044C231.919 345.434 232.219 343.844 232.714 342.313C232.915 341.732 233.134 341.159 233.378 340.596C233.95 339.257 234.589 337.949 235.294 336.678C235.749 335.838 236.23 335.006 236.693 334.165C236.842 333.915 236.982 333.655 237.122 333.405L237.087 333.369ZM629.812 137.796C629.689 137.582 629.602 137.367 629.506 137.17C629.506 137.081 629.418 137.009 629.383 136.92C629.192 137.012 628.997 137.092 628.797 137.161C628.412 137.313 628.019 137.456 627.616 137.573C627.214 137.689 627.048 137.752 626.742 137.823L625.963 138.029L626.033 138.19C626.357 138.118 626.672 138.056 626.995 137.966L627.083 139.075C627.45 139.075 627.791 139.022 628.124 139.022H628.596C629.278 139.022 629.873 139.022 630.345 139.022C630.162 138.619 629.969 138.199 629.812 137.796Z" fill="url(#paint1_linear_100_327)"/>
<path d="M438.697 269.162L433.449 271.532C433.449 271.532 399.241 407.424 399.241 418.406C399.241 429.389 471.777 490.502 471.777 490.502L483.095 412.387C483.095 412.387 466.844 233.253 438.697 269.162Z" fill="#E8F5FF"/>
<path d="M597.808 225.937L567.501 209.767C565.803 202.367 562.791 195.349 558.614 189.062C554.179 182.515 548.284 176.085 540.937 172.731C522.368 164.216 619.482 119.524 619.482 119.524C621.012 124.893 622.813 130.177 624.879 135.355C629.882 147.983 638.182 164.315 648.879 168.965C667.064 176.881 597.808 225.937 597.808 225.937Z" fill="#CE9578"/>
<path opacity="0.1" d="M624.879 135.355C620.729 150.277 612.1 163.49 600.21 173.127C588.32 182.764 573.77 188.338 558.614 189.062C554.179 182.515 548.284 176.085 540.937 172.731C522.368 164.216 619.482 119.524 619.482 119.524C621.012 124.893 622.813 130.177 624.879 135.355Z" fill="black"/>
<path d="M627.607 112.789C627.61 127.425 623.369 141.732 615.42 153.903C607.47 166.073 596.17 175.56 582.947 181.162C569.725 186.765 555.174 188.232 541.136 185.379C527.098 182.525 514.203 175.479 504.082 165.13C493.961 154.782 487.068 141.598 484.275 127.243C481.483 112.889 482.916 98.011 488.394 84.4899C493.871 70.9688 503.147 59.4125 515.049 51.2825C526.95 43.1524 540.942 38.814 555.255 38.8157C564.768 38.7707 574.195 40.6533 582.993 44.3548C591.79 48.0563 599.783 53.5033 606.51 60.3813C613.238 67.2592 618.566 75.4318 622.186 84.4271C625.807 93.4224 627.65 103.062 627.607 112.789Z" fill="#CE9578"/>
<path d="M638.051 216.439L618.319 263.519L600.913 294.768H545.197L528.945 252.044L535.532 207.736H578.084L605.557 206.153L614.837 202.987L620.82 206.457L638.051 216.439Z" fill="#2864AE"/>
<path opacity="0.1" d="M631.255 153.68C631.255 153.68 643.561 156.364 632.541 165.603C621.52 174.841 583.498 204.222 583.498 204.222C583.498 204.222 596.854 216.385 594.09 230.632L638.34 205.411L646.212 165.057C646.212 165.057 647.095 152.929 631.255 153.68Z" fill="black"/>
<path opacity="0.1" d="M592.201 204.222L564.054 208.971C564.054 208.971 569.862 230.928 566.958 237.161C566.87 237.355 566.797 237.556 566.739 237.761L555.255 269.502L563.862 294.428L593.653 252.885L583.498 237.161C583.498 237.161 594.23 222.619 600.615 217.575C607 212.53 592.201 204.222 592.201 204.222Z" fill="black"/>
<path d="M592.201 202.996L564.054 207.736C564.054 207.736 569.862 229.693 566.958 235.927C566.87 236.121 566.797 236.321 566.739 236.526L555.255 268.268L563.862 293.194L593.653 251.623L583.498 235.9C583.498 235.9 594.23 221.358 600.615 216.313C607 211.269 592.201 202.996 592.201 202.996Z" fill="#DCE6F2"/>
<path d="M632.436 151.31C632.436 151.31 644.742 153.993 633.713 163.232C622.683 172.471 583.498 204.222 583.498 204.222C583.498 204.222 598.009 214.015 595.254 228.253L639.503 203.041L647.375 162.687C647.375 162.687 648.25 150.559 632.436 151.31Z" fill="#2864AE"/>
<path opacity="0.1" d="M560.547 191.861C560.547 191.861 563.232 196.995 575.084 206.252C575.084 206.252 555.351 216.984 562.899 232.072L532.715 224.023L528.07 209.185L560.547 191.861Z" fill="black"/>
<path d="M559.384 190.681C559.384 190.681 562.069 195.814 573.921 205.071C573.921 205.071 554.188 215.75 561.736 230.883L531.56 222.833L526.916 208.005L559.384 190.681Z" fill="#2864AE"/>
<path opacity="0.1" d="M638.051 216.439L618.319 263.519L600.948 294.768H545.197L528.945 252.044L535.523 207.736H547.357C547.165 218.075 550.856 230.221 550.62 234.738C550.217 242.161 561.448 282.211 561.448 282.211C561.448 282.211 584.95 243.342 594.23 239.88C600.064 237.707 612.423 219.623 620.811 206.458L638.051 216.439Z" fill="black"/>
<path d="M715.782 464.189L713.779 466.765C713.779 466.765 728.289 541.239 724.275 558.152C723.592 561.2 723.203 564.31 723.111 567.436V567.57C722.403 584.778 727.485 607.11 727.485 607.11C727.485 607.11 731.543 672.936 729.234 700.009H457.546C455.954 659.977 454.239 608.112 455.796 602.361C458.42 592.872 463.668 558.447 463.668 558.447L464.246 542.134C464.246 542.134 464.245 526.366 464.718 508.8C464.919 500.903 465.216 492.612 465.645 485.261C466.196 476.013 466.966 468.223 468.024 464.395C468.676 461.493 469.051 458.534 469.144 455.558C469.144 455.281 469.144 454.995 469.196 454.709C469.196 453.814 469.284 452.848 469.319 451.856C469.319 451.578 469.319 451.301 469.319 450.961C469.485 445.202 469.423 438.368 469.24 431.285C469.24 430.9 469.24 430.507 469.24 430.113C469.091 424.801 468.872 419.381 468.628 414.229C467.867 398.131 466.878 384.518 466.878 384.518L433.51 271.469L442.501 248.824L467.456 233.19L513.594 204.704C536.099 185.788 550.916 188.06 556.566 190.135C557.115 190.326 557.652 190.55 558.176 190.806C558.351 190.895 558.491 190.967 558.622 191.047C558.802 191.134 558.974 191.236 559.138 191.351C557.591 192.112 556.246 193.245 555.219 194.651C554.062 196.253 553.238 198.079 552.797 200.018C552.501 201.22 552.294 202.442 552.176 203.676C552.062 204.973 552.018 206.314 552.018 207.665C552.081 210.626 552.329 213.581 552.762 216.51C552.762 216.564 552.762 216.635 552.762 216.707C553.05 218.8 553.409 220.848 553.759 222.771C553.755 222.803 553.755 222.836 553.759 222.869C554.161 225.114 554.563 227.189 554.835 228.978C554.887 229.3 554.931 229.595 554.975 229.872C555.167 231.054 555.258 232.251 555.246 233.449C555.344 236.343 555.725 239.219 556.383 242.035C556.61 243.216 556.873 244.477 557.161 245.792C557.555 247.581 557.983 249.53 558.447 251.516C558.701 252.607 558.972 253.734 559.252 254.852C559.357 255.299 559.47 255.746 559.575 256.202L559.75 256.909C561.613 264.484 563.634 272.024 564.876 276.585C565.61 279.268 566.074 280.923 566.074 280.923C566.074 280.923 579.246 259.145 589.76 246.749C589.917 246.57 590.057 246.4 590.206 246.239C591.247 245.014 592.27 243.896 593.25 242.912C595.393 240.73 597.317 239.173 598.865 238.601C599.195 238.477 599.514 238.325 599.819 238.145C604.122 235.65 611.067 226.59 617.566 217.1C618.204 216.206 618.825 215.231 619.455 214.31C620.898 212.181 622.297 210.044 623.618 207.996C624.633 206.43 625.604 204.91 626.522 203.461C630.895 196.503 633.974 191.315 633.974 191.315L640.044 191.038L641.103 190.985H641.811L669.372 189.679C669.372 189.679 670.562 189.884 672.521 190.287C672.626 190.287 672.731 190.287 672.844 190.358C682.623 192.344 709.79 198.631 711.452 207.352C713.481 218.03 757.302 232.278 757.302 232.278C757.879 239.433 768.611 244.146 768.611 244.146C768.611 244.146 784.863 288.06 780.516 305.268C776.221 322.261 791.694 364.296 792.105 365.477L789.14 369.305L715.782 464.189Z" fill="#E8F5FF"/>
<path opacity="0.1" d="M631.246 150.559C631.246 150.559 658.072 142.778 664.169 158.796C670.265 174.814 683.901 239.504 683.901 239.504C683.901 239.504 648.495 246.329 639.214 239.504C633.771 235.454 627.033 233.653 620.348 234.46L600.327 248.403L594.414 246.615C594.414 246.615 626.444 197.925 633.407 181.379C640.369 164.833 642.722 157.437 631.246 150.559Z" fill="black"/>
<path d="M630.082 146.981C630.082 146.981 656.926 139.2 663.048 155.218C669.171 171.237 682.781 235.927 682.781 235.927C682.781 235.927 647.383 242.751 638.094 235.927C632.654 231.877 625.919 230.075 619.236 230.883L599.198 244.826L593.285 243.037C593.285 243.037 625.315 194.347 632.278 177.801C639.24 161.255 641.558 153.877 630.082 146.981Z" fill="#E8F5FF"/>
<path opacity="0.1" d="M450.015 405.053C450.015 405.053 470.036 410.098 473.815 421.671C477.593 433.244 459.015 433.539 459.015 433.539C459.015 433.539 447.697 413.067 450.015 405.053Z" fill="black"/>
<path opacity="0.1" d="M524.589 490.502C524.589 490.502 475.556 593.167 486.874 602.961C498.192 612.754 524.589 490.502 524.589 490.502Z" fill="black"/>
<path opacity="0.1" d="M592.201 414.847C592.201 414.847 631.377 514.569 623.54 529.971C615.703 545.372 640.369 529.971 640.369 529.971L592.201 414.847Z" fill="black"/>
<path d="M646.754 513.353C646.754 513.353 514.435 519.882 553.034 562.016C591.633 604.15 670.842 563.805 670.842 563.805L646.754 513.353Z" fill="#CE9578"/>
<path opacity="0.1" d="M627.607 112.79C627.619 122.494 625.755 132.104 622.123 141.07C620.907 141.213 619.691 141.302 618.519 141.356C616.77 137.43 617.706 132.895 617.741 128.575C617.776 124.255 616.219 119.175 612.152 118.013C604.043 115.678 598.446 131.178 590.451 128.378C584.328 126.25 585.929 116.752 582.404 111.269C579.614 106.931 574.025 105.706 569.678 102.987C560.433 97.1827 560.713 87.8991 556.418 79.1163C551.922 69.9132 542.423 72.6321 534.175 78.061C527.913 82.193 522.507 87.7291 515.807 91.0204C510.008 93.8824 503.492 94.9199 497.063 95.072C493.105 95.2288 489.146 94.8011 485.308 93.8019C489.823 76.4456 500.357 61.361 514.947 51.3609C529.536 41.3609 547.185 37.1283 564.601 39.4524C582.017 41.7765 598.012 50.4986 609.604 63.9922C621.195 77.4858 627.59 94.8297 627.598 112.79H627.607Z" fill="black"/>
<path d="M534.202 75.6911C527.931 79.8231 522.534 85.3503 515.834 88.6595C510.035 91.5126 503.519 92.55 497.09 92.7021C489.218 92.881 480.743 91.4678 475.363 85.6544C470.422 80.2882 469.241 72.0331 471.331 64.9944C473.422 57.9556 478.433 52.1154 484.32 47.885C490.206 43.6546 497.038 40.73 500.939 34.6751C503.003 31.4732 504 27.699 505.714 24.2914C511.198 13.389 523.531 7.48609 535.453 6.7527C547.375 6.01931 559.191 9.65047 570.544 13.5857C581.898 17.521 593.338 21.8497 605.321 22.6636C610.657 23.0035 616.202 22.6636 621.153 24.7296C627.809 27.4932 632.173 34.1027 635.147 40.8284C638.48 48.4127 640.553 56.6946 640.203 64.9765C639.468 82.6583 628.045 100.009 633.066 116.949C634.395 121.465 636.888 126.098 635.558 130.615C633.617 137.206 625.299 138.709 618.572 139.022C616.823 135.095 617.759 130.552 617.794 126.241C617.829 121.93 616.272 116.841 612.214 115.679C604.097 113.362 598.499 128.835 590.522 126.044C584.443 123.907 586.017 114.417 582.484 108.935C579.693 104.588 574.096 103.372 569.757 100.653C560.512 94.8486 560.792 85.565 556.497 76.7822C551.967 67.5344 542.459 70.2533 534.202 75.6911Z" fill="#18181B"/>
<path d="M405.897 416.027L399.223 418.406C399.223 418.406 401.847 458.761 393.101 470.334C384.354 481.907 421.825 510.679 421.825 510.679C421.825 510.679 473.185 510.384 474.637 506.207C476.089 502.03 472.013 431.437 472.013 431.437C472.013 431.437 444.444 420.455 446.761 402.952C446.761 402.952 438.347 444.191 425.875 442.411C413.402 440.632 399.241 429.98 405.897 416.027Z" fill="#E8F5FF"/>
<path opacity="0.1" d="M428.158 454.897C437.882 454.897 445.765 447.525 445.765 438.431C445.765 429.338 437.882 421.966 428.158 421.966C418.434 421.966 410.551 429.338 410.551 438.431C410.551 447.525 418.434 454.897 428.158 454.897Z" fill="black"/>
<path d="M447.408 417.217C447.408 417.217 443.91 308.032 413.454 332.359C382.998 356.686 382.701 385.78 388.5 394.375C394.299 402.97 412.894 445.998 412.894 445.998C415.803 447.722 419.069 448.716 422.427 448.9C425.784 449.084 429.136 448.452 432.208 447.056C435.28 445.66 437.985 443.539 440.101 440.868C442.217 438.197 443.684 435.051 444.382 431.688L447.408 417.217Z" fill="#CE9578"/>
<path opacity="0.1" d="M637.395 140.65C637.253 140.17 636.98 139.742 636.608 139.415C635.103 138.011 631.867 137.519 626.986 137.948L627.188 140.31C633.695 139.737 634.981 141.061 635.147 141.285V141.508L635.348 141.803C636.16 142.918 636.734 144.194 637.035 145.55C637.337 146.905 637.358 148.31 637.097 149.674C635.672 156.963 626.916 162.767 626.829 162.83L626.619 162.955L626.488 163.161C622.709 168.894 601.341 185.073 595.752 189.259L595.262 188.686C592.761 190.904 570.772 210.59 569.582 218.129C568.812 222.86 563.599 224.694 561.71 225.204C559.716 223.656 553.243 218.389 549.876 212.486C546.718 206.932 559.427 196.092 560.547 191.861L558.797 190.028C558.614 190.708 542.293 206.306 546.832 214.274C550.471 220.669 557.118 226.143 559.445 227.949C558.701 234.854 554.074 275.396 546.963 285.002C538.129 296.941 530.703 357.115 531.525 378.124C532.251 396.789 527.484 432.046 511.566 447.187C508.809 449.924 505.485 451.988 501.839 453.227C498.194 454.466 494.322 454.847 490.512 454.342H490.32H490.127C489.9 454.342 466.809 456.757 447.409 440.032C431.534 426.375 422.542 404.087 420.67 373.768H420.285L420.128 364.941C424.432 364.254 428.309 361.888 430.943 358.34C433.577 354.791 434.763 350.337 434.253 345.913C433.743 341.489 431.576 337.44 428.207 334.616C424.838 331.791 420.529 330.412 416.187 330.768C411.844 331.124 407.806 333.187 404.919 336.524C402.033 339.861 400.524 344.212 400.71 348.662C400.895 353.113 402.76 357.317 405.913 360.391C409.066 363.465 413.261 365.169 417.618 365.146H417.81L417.968 373.92L417.198 373.974C419.122 405.277 428.569 428.432 445.187 442.733C457.819 453.436 473.953 458.835 490.329 457.839C491.491 457.969 492.659 458.035 493.827 458.036C501.333 458.076 508.555 455.106 513.945 449.763C530.712 433.799 535.811 397.246 535.015 377.945C534.141 355.684 541.934 297.675 549.753 287.112C557.415 276.746 562.06 236.357 562.873 228.531C565.646 227.735 571.917 225.222 572.985 218.693C573.754 213.97 588.44 199.419 597.475 191.361L597.204 191.039C602.067 187.407 617.19 175.959 624.686 168.608C627.013 166.327 629.322 164.046 631.736 161.873C634.64 159.244 638.331 155.067 639.302 150.13C639.633 148.5 639.634 146.819 639.306 145.188C638.978 143.558 638.328 142.013 637.395 140.65Z" fill="black"/>
<path d="M559.147 227.386C558.78 227.127 550.068 220.75 545.704 213.076C541.173 205.107 557.494 189.518 557.669 188.838L559.418 190.672C558.307 194.893 545.599 205.742 548.756 211.287C552.736 218.29 561.115 224.417 561.203 224.479L559.147 227.386Z" fill="#353146"/>
<path d="M594.614 190.993L593.25 189.071C593.53 188.865 621.003 168.545 625.333 161.971L625.473 161.774L625.674 161.64C625.761 161.577 634.517 155.782 635.942 148.484C636.205 147.121 636.186 145.717 635.884 144.363C635.583 143.009 635.007 141.734 634.193 140.622L633.992 140.318V140.104C633.817 139.871 632.531 138.556 626.024 139.129L625.823 136.759C630.712 136.329 633.939 136.821 635.444 138.225C635.818 138.555 636.094 138.986 636.24 139.469C637.186 140.828 637.849 142.372 638.189 144.004C638.529 145.636 638.538 147.322 638.217 148.958C637.246 153.904 633.563 158.08 630.651 160.701C628.245 162.874 625.927 165.173 623.61 167.436C614.819 176.048 595.577 190.287 594.614 190.993Z" fill="#E8F5FF"/>
<path d="M418.999 361.827L416.682 361.87L416.94 376.276L419.257 376.233L418.999 361.827Z" fill="#E8F5FF"/>
<path d="M416.489 364.01C425.837 364.01 433.414 356.262 433.414 346.704C433.414 337.146 425.837 329.398 416.489 329.398C407.142 329.398 399.564 337.146 399.564 346.704C399.564 356.262 407.142 364.01 416.489 364.01Z" fill="#2864AE"/>
<path d="M416.489 361.077C424.252 361.077 430.545 354.642 430.545 346.704C430.545 338.766 424.252 332.332 416.489 332.332C408.727 332.332 402.434 338.766 402.434 346.704C402.434 354.642 408.727 361.077 416.489 361.077Z" fill="#E8F5FF"/>
<path d="M492.725 456.882C491.556 456.884 490.389 456.821 489.226 456.694C472.852 457.68 456.721 452.282 444.085 441.588C427.466 427.278 418.037 404.15 416.096 372.82L419.594 372.596C421.466 402.915 430.458 425.212 446.342 438.86C465.742 455.54 488.824 453.17 489.052 453.17H489.244H489.436C493.247 453.673 497.12 453.29 500.766 452.052C504.413 450.813 507.739 448.75 510.498 446.015C526.409 430.874 531.175 395.617 530.449 376.952C529.575 355.925 537.001 295.752 545.844 283.821C553.584 273.365 558.386 226.241 558.439 225.767L558.57 224.425L559.864 224.193C559.943 224.193 567.5 222.726 568.445 216.948C569.669 209.418 591.624 189.732 594.116 187.505L596.399 190.188C587.329 198.238 572.643 212.798 571.909 217.53C570.841 224.076 564.57 226.581 561.806 227.368C560.932 235.202 556.322 275.583 548.686 285.949C540.867 296.512 533.073 354.521 533.948 376.782C534.7 396.082 529.654 432.644 512.886 448.6C507.487 453.956 500.247 456.93 492.725 456.882Z" fill="#353146"/>
<g opacity="0.1">
<path d="M635.06 91.6464C636.494 86.2264 638.226 80.7708 639.433 75.2793C637.99 80.7976 636.249 86.2264 635.06 91.6464Z" fill="black"/>
<path d="M620.426 134.236C618.677 130.31 619.613 125.767 619.648 121.456C619.683 117.145 618.126 112.101 614.067 110.893C605.95 108.577 600.353 124.058 592.376 121.259C586.253 119.122 587.871 109.632 584.337 104.15C581.547 99.803 575.958 98.5867 571.62 95.8678C562.366 90.0633 562.646 80.7797 558.36 71.9969C553.855 62.7849 544.365 65.5038 536.108 70.9416C529.837 75.0736 524.44 80.6098 517.74 83.91C511.941 86.763 505.425 87.8005 498.996 87.9526C491.168 88.1404 482.649 86.7183 477.27 80.9049C473.124 76.433 471.628 69.8773 472.485 63.7329C472.337 64.1533 472.205 64.5736 472.074 64.994C469.975 72.0327 471.2 80.3057 476.106 85.654C481.486 91.4675 490.005 92.8806 497.833 92.7017C504.271 92.5497 510.778 91.5122 516.586 88.6591C523.303 85.3499 528.7 79.8227 534.954 75.6907C543.211 70.2529 552.71 67.534 557.205 76.7461C561.491 85.5288 561.22 94.8124 570.465 100.617C574.839 103.3 580.393 104.552 583.192 108.899C586.69 114.399 585.142 123.871 591.23 126.008C599.198 128.799 604.796 113.326 612.913 115.642C616.971 116.805 618.537 121.903 618.493 126.205C618.449 130.507 617.54 135.059 619.272 138.986C625.998 138.673 634.316 137.197 636.266 130.578C636.535 129.629 636.659 128.642 636.634 127.654C633.791 132.671 626.479 133.959 620.426 134.236Z" fill="black"/>
</g>
<path opacity="0.1" d="M778.505 354.611L788.66 365.593C788.66 365.593 796.785 426.116 800.844 431.777C804.902 437.439 814.489 459.959 805.488 476.872C805.488 476.872 802.584 486.075 804.325 489.929C806.066 493.784 791.275 513.076 791.275 513.076C791.275 513.076 771.831 530.874 767.764 533.548C763.697 536.222 742.232 557.58 734.982 557.875C727.731 558.17 725.36 567.373 725.36 567.373L684.443 568.858C684.443 568.858 661.842 567.651 656.926 570.915C656.926 570.915 659.55 535.605 634.299 512.459L666.504 500.59C666.504 500.59 678.697 495.224 682.467 489.616C684.838 486.178 688.203 483.586 692.088 482.202C692.088 482.202 701.079 475.673 701.368 472.114C701.657 468.554 712.363 464.189 712.363 464.189L706.301 411.287L709.494 323.46C709.494 323.46 719.649 249.87 741.122 254.029C762.595 258.188 778.505 354.611 778.505 354.611Z" fill="black"/>
<path d="M782.003 354.611L792.158 365.593C792.158 365.593 800.283 426.116 804.342 431.777C808.4 437.439 817.987 459.959 808.986 476.872C808.986 476.872 806.091 486.075 807.832 489.929C809.572 493.784 794.773 513.076 794.773 513.076C794.773 513.076 775.329 530.874 771.262 533.548C767.195 536.222 745.731 557.58 738.48 557.875C731.229 558.17 728.858 567.373 728.858 567.373L687.941 568.858C687.941 568.858 665.323 567.651 660.424 570.915C660.424 570.915 663.048 535.605 637.797 512.459L670.002 500.59C670.002 500.59 682.195 495.224 685.965 489.616C688.336 486.178 691.701 483.586 695.586 482.202C695.586 482.202 704.578 475.673 704.866 472.114C705.155 468.554 715.861 464.189 715.861 464.189L709.799 411.287L712.992 323.46C712.992 323.46 723.147 249.87 744.62 254.029C766.093 258.188 782.003 354.611 782.003 354.611Z" fill="#E8F5FF"/>
<path opacity="0.1" d="M744.253 443.333C744.253 443.333 774.14 435.283 781.977 445.121C789.814 454.959 744.253 443.333 744.253 443.333Z" fill="black"/>
<path opacity="0.1" d="M737.29 456.829C747.445 464.1 778.784 464.395 778.784 464.395L737.29 456.829Z" fill="black"/>
<path opacity="0.1" d="M752.667 493.176C753.542 493.471 774.21 516.027 782.887 509.203C791.563 502.379 752.667 493.176 752.667 493.176Z" fill="black"/>
<path opacity="0.1" d="M474.313 303.873C474.313 303.873 480.384 346.606 477.392 364.01C474.401 381.415 485.317 402.978 485.317 402.978L474.313 303.873Z" fill="black"/>
<path d="M339.93 321.25C332.932 326.858 327.824 340.13 324.124 354.718C317.669 380.163 315.561 409.668 315.561 409.668C315.561 409.668 259.845 396.61 263.904 390.681C266.458 386.951 263.029 358.85 260.169 338.476C258.463 326.438 256.941 317.091 256.941 317.091C256.941 317.091 359.085 305.813 339.93 321.25Z" fill="#FFCCD0"/>
<path opacity="0.1" d="M339.93 320.061C332.932 325.678 327.824 338.941 324.124 353.528C313.024 356.975 301.218 357.286 289.958 354.428C278.698 351.57 268.405 345.65 260.169 337.295C258.463 325.248 256.941 315.902 256.941 315.902C256.941 315.902 359.085 304.633 339.93 320.061Z" fill="black"/>
<path d="M369.878 288.096C369.884 303.652 364.507 318.708 354.7 330.601C344.893 342.493 331.288 350.455 316.292 353.076C301.297 355.697 285.878 352.81 272.764 344.924C259.65 337.038 249.688 324.663 244.639 309.989C239.591 295.314 239.782 279.286 245.179 264.742C250.576 250.198 260.832 238.075 274.13 230.519C287.428 222.963 302.911 220.461 317.84 223.456C332.768 226.451 346.179 234.749 355.7 246.883C364.874 258.571 369.875 273.109 369.878 288.096Z" fill="#FFCCD0"/>
<path opacity="0.1" d="M420.679 700.009H402.311L400.763 666.837L399.145 632.501C399.145 632.501 403.317 631.867 409.964 630.918L412.649 630.552H412.868C414.32 637.519 415.754 644.674 417.136 651.82C419.437 664.506 420.634 677.376 420.714 690.278C420.714 691.172 420.714 692.067 420.714 692.908C420.766 695.296 420.714 697.684 420.679 700.009Z" fill="black"/>
<path d="M417.154 700.009H186.802C187.799 697.693 188.464 696.288 188.464 696.288C188.464 696.288 206.893 613.845 216.26 578.964C216.263 578.935 216.263 578.905 216.26 578.875C217.431 574.137 218.844 569.465 220.494 564.878C220.6 564.566 220.738 564.267 220.905 563.984C225.541 556.274 231.348 547.965 223.223 536.097C215.097 524.229 217.975 472.006 217.975 472.006C217.975 472.006 227.841 427.493 238.285 403.756C239.869 400.08 242.119 396.742 244.915 393.918C245.823 393.009 246.794 392.166 247.818 391.396C248.597 390.798 249.409 390.245 250.25 389.742L250.416 389.634C254.803 387.091 259.675 385.544 264.699 385.1C268.268 384.718 271.871 384.821 275.414 385.404C292.348 387.944 305.905 392.192 316.681 397.031C345.886 410.151 354.729 427.735 354.904 428.101L354.974 428.253C356.146 431.053 373.289 471.979 379.464 491.074C381.065 496.047 381.94 499.544 381.59 500.501C379.84 505.241 394.937 564.583 394.937 564.583C394.937 564.583 401.934 593.203 408.932 626.751C409.238 628.146 409.526 629.541 409.806 630.954C411.057 637.045 412.299 643.252 413.497 649.45C415.819 662.224 417.016 675.184 417.075 688.176C417.203 692.225 417.229 696.169 417.154 700.009Z" fill="#FF748E"/>
<path opacity="0.1" d="M263.327 364.69C263.327 364.69 247.434 358.429 247.627 367.928C247.819 377.426 251.502 381.969 250.338 383.356C249.175 384.742 250.915 393.051 250.915 393.051C250.915 393.051 272.389 393.051 282.255 397.594C292.121 402.137 328.49 411.242 333.134 414.015C337.778 416.787 355.001 429.219 355.001 429.219L356.549 405.679C356.549 405.679 338.749 390.645 309.544 382.935C280.339 375.226 263.327 364.69 263.327 364.69Z" fill="black"/>
<path d="M263.327 363.5C263.327 363.5 247.434 357.24 247.627 366.738C247.819 376.236 251.502 380.78 250.338 382.166C249.175 383.552 250.915 391.861 250.915 391.861C250.915 391.861 272.389 391.861 282.255 396.413C292.121 400.966 328.49 410.062 333.134 412.825C337.778 415.589 355.001 428.03 355.001 428.03L356.566 404.561C356.566 404.561 338.767 389.527 309.562 381.817C280.357 374.108 263.327 363.5 263.327 363.5Z" fill="#FF748E"/>
<path opacity="0.1" d="M311.302 420.15C311.302 420.15 341.67 453.77 340.122 463.08C338.574 472.391 311.302 420.15 311.302 420.15Z" fill="black"/>
<path opacity="0.1" d="M261.971 541.597C261.971 541.597 239.71 562.57 233.151 563.76C226.591 564.949 238.18 568.902 245.719 565.745C253.259 562.588 269.335 554.279 269.335 554.279L261.971 541.597Z" fill="black"/>
<path d="M426.198 700.009H374.287C367.027 693.57 360.161 687.604 355.787 684.018C348.79 678.276 343.743 669.824 340.525 663.027C339.799 661.48 339.169 660.031 338.635 658.716C337.68 656.451 336.839 654.138 336.116 651.785L374.558 628.441C376.682 630.289 378.678 632.285 380.532 634.416L380.995 634.961C383.129 637.537 385.01 640.462 385.176 642.859C385.369 645.649 392.961 656.444 400.719 666.81C408.591 677.355 416.655 687.434 417.189 688.114C417.189 688.114 418.518 689.965 420.688 692.81C422.218 694.867 424.108 697.335 426.198 700.009Z" fill="#FFCCD0"/>
<path opacity="0.1" d="M355.7 246.883C353.854 251.14 352.201 255.558 351.956 260.299C351.265 273.982 352.385 304.579 337.568 311.448C330.229 314.829 322.375 307.405 314.328 307.226C308.538 307.101 303.228 310.858 299.695 315.553C296.161 320.248 293.966 325.82 291.403 331.133C289.07 335.955 286.383 340.589 283.365 344.996C282.463 346.344 281.469 347.626 280.391 348.833C271.356 344.934 263.311 338.979 256.868 331.42C250.425 323.86 245.755 314.897 243.213 305.213C240.671 295.528 240.325 285.378 242.2 275.536C244.075 265.694 248.123 256.42 254.035 248.42C259.946 240.42 267.566 233.905 276.313 229.372C285.06 224.839 294.703 222.407 304.508 222.263C314.314 222.118 324.022 224.264 332.893 228.537C341.764 232.809 349.564 239.096 355.7 246.919V246.883Z" fill="black"/>
<path d="M350.793 257.884C350.093 271.568 351.222 302.164 336.396 309.024C329.058 312.405 321.203 304.99 313.156 304.812C307.366 304.677 302.065 308.443 298.523 313.129C294.981 317.816 292.803 323.397 290.231 328.718C287.898 333.54 285.211 338.174 282.193 342.581C280.391 345.193 278.397 347.813 275.624 349.28C270.796 351.856 264.945 350.407 259.767 348.752C253.049 346.588 246.431 344.149 239.912 341.436C240.061 340.43 240.137 339.413 240.139 338.395C239.947 338.771 239.737 339.12 239.527 339.495L239.116 340.229C238.372 341.57 237.646 342.912 236.982 344.289C236.728 344.817 236.483 345.363 236.264 345.908C235.385 347.938 234.832 350.101 234.629 352.312C234.183 358.277 237.06 363.939 239.614 369.305C249.437 390.063 255.507 414.337 248.116 436.115C244.915 445.586 239.369 454.002 235.32 463.152C228.241 479.357 226.157 497.382 229.346 514.829C231.366 525.668 235.416 536.401 234.419 547.393C232.67 566.309 216.716 580.386 200.736 590.063C192.103 595.269 181.537 599.901 172.37 595.787C178.213 588.811 179.717 579.161 180.977 570.056C184.423 545.222 187.878 520.377 191.342 495.519C192.724 485.627 194.103 475.735 195.479 465.844C198.05 447.259 200.657 428.468 199.047 409.766C197.875 395.984 194.569 381.352 200.412 368.876C203.499 362.266 209.001 356.793 210.715 349.673C212.124 343.887 210.812 337.734 211.739 331.84C212.246 329.158 213.105 326.559 214.293 324.112C215.805 320.792 217.779 317.714 220.153 314.972C217.809 314.274 215.622 313.317 214.293 311.314C218.054 308.809 218.622 303.166 216.917 298.927C215.211 294.687 211.8 291.459 208.73 288.114C205.66 284.769 202.704 280.869 202.319 276.308C201.575 267.624 210.059 260.898 211.555 252.33C213.068 243.61 207.086 235.131 207.567 226.303C208.126 215.634 217.713 207.879 227.177 203.381C241.458 196.62 257.234 193.843 272.904 195.331C285.657 196.565 297.998 200.599 310.716 202.164C318.387 203.059 326.162 203.148 333.781 204.525C341.399 205.903 349.035 208.809 354.397 214.524C368.531 229.595 351.598 242 350.793 257.884Z" fill="#FFE0D0"/>
<path opacity="0.1" d="M338.968 663.036C334.507 661.059 326.39 662.24 312.457 657.902C298.523 653.564 295.838 633.959 295.838 633.959V633.897C295.672 633.45 294.377 630.534 285.613 620.32C275.931 609.042 255 552.08 255 552.08C255 552.08 236.439 531.697 237.025 524.184C237.611 516.671 233.728 496.682 234.113 474.323C234.498 451.963 275.896 437.134 275.896 437.134C355.604 422.69 336.833 516.653 334.708 523.773C332.583 530.892 343.612 550.121 343.612 550.121C342.055 558.492 349.997 571.452 349.997 571.452C349.997 571.452 351.921 582.918 352.315 587.273C352.337 587.474 352.381 587.672 352.446 587.863C353.723 591.969 364.132 595.689 368.365 597.952C372.817 600.331 387.135 621.098 387.135 621.098C390.223 636.347 343.411 665.039 338.968 663.036Z" fill="black"/>
<path d="M341.285 659.458C336.833 657.473 328.708 658.662 314.783 654.316C300.858 649.969 298.164 630.382 298.164 630.382V630.319C298.007 629.863 296.704 626.957 287.939 616.743C278.257 605.465 257.326 548.493 257.326 548.493C257.326 548.493 238.766 528.119 239.343 520.607C239.92 513.094 236.054 493.105 236.439 470.763C236.824 448.422 278.196 433.602 278.196 433.602C357.904 419.158 339.134 513.121 337.008 520.24C334.883 527.359 345.912 546.588 345.912 546.588C344.355 554.959 352.297 567.919 352.297 567.919C352.297 567.919 354.221 579.385 354.624 583.74C354.638 583.942 354.68 584.14 354.746 584.331C356.023 588.436 366.432 592.157 370.674 594.419C375.117 596.789 389.444 617.566 389.444 617.566C392.549 632.788 345.737 661.479 341.285 659.458Z" fill="#FF748E"/>
<path opacity="0.1" d="M279.771 482.658C279.771 482.658 314.591 520.222 323.679 520.222C332.766 520.222 279.771 482.658 279.771 482.658Z" fill="black"/>
<path d="M341.286 659.458C336.834 657.473 328.708 658.662 314.784 654.315C300.859 649.969 298.165 630.382 298.165 630.382V630.319C307.393 624.059 330.764 606.377 339.974 599.911C346.455 595.376 351.747 588.713 354.843 584.295C356.12 588.4 366.529 592.121 370.771 594.383C375.214 596.754 389.541 617.53 389.541 617.53C392.55 632.788 345.738 661.479 341.286 659.458Z" fill="#FF748E"/>
<g opacity="0.1">
<path d="M214.346 311.412C214.389 311.484 214.451 311.546 214.503 311.618C214.766 311.278 215.037 310.938 215.317 310.616C215.018 310.913 214.693 311.179 214.346 311.412Z" fill="black"/>
<path d="M234.638 352.411C235.005 347.447 237.603 343.073 240.034 338.709C238.442 338.083 236.85 337.448 235.276 336.786C235.426 335.782 235.502 334.769 235.503 333.754C233.046 338.226 230.369 342.626 229.993 347.661C229.547 353.636 232.425 359.288 234.979 364.655C244.81 385.404 250.871 409.677 243.48 431.464C240.27 440.927 234.734 449.352 230.684 458.501C223.607 474.704 221.527 492.727 224.719 510.169C226.722 521.018 230.78 531.742 229.783 542.733C228.034 561.649 212.089 575.727 196.1 585.395C189.566 589.348 181.93 592.97 174.627 592.711C173.951 593.824 173.197 594.885 172.37 595.886C181.545 600.027 192.103 595.367 200.736 590.144C216.733 580.485 232.713 566.443 234.463 547.492C235.46 536.5 231.401 525.776 229.39 514.927C226.196 497.487 228.271 479.465 235.337 463.259C239.361 454.119 244.959 445.685 248.134 436.222C255.525 414.435 249.454 390.162 239.632 369.413C237.087 364.011 234.191 358.385 234.638 352.411Z" fill="black"/>
<path d="M354.38 214.632C353.519 213.73 352.595 212.893 351.616 212.128C362.217 226.187 346.91 238.136 346.149 253.269C345.467 266.953 346.586 297.559 331.761 304.409C324.431 307.799 316.568 300.376 308.53 300.197C302.731 300.072 297.43 303.837 293.888 308.524C290.345 313.21 288.167 318.791 285.605 324.104C283.267 328.925 280.577 333.559 277.558 337.966C275.808 340.587 273.762 343.199 270.98 344.674C266.17 347.241 260.318 345.801 255.131 344.138C250.087 342.516 245.09 340.727 240.14 338.771C240.129 339.703 240.053 340.632 239.912 341.553C246.437 344.272 253.058 346.71 259.776 348.869C264.954 350.532 270.805 351.972 275.625 349.405C278.397 347.93 280.409 345.309 282.202 342.689C285.223 338.287 287.911 333.656 290.24 328.835C292.812 323.522 294.981 317.932 298.532 313.246C302.083 308.559 307.375 304.803 313.165 304.928C321.212 305.107 329.075 312.53 336.405 309.141C351.231 302.29 350.102 271.684 350.793 258C351.598 242.089 368.532 229.693 354.38 214.632Z" fill="black"/>
</g>
<path opacity="0.1" d="M239.125 340.238C238.381 341.58 237.655 342.921 236.991 344.299C236.737 344.826 236.492 345.372 236.273 345.917C231.69 341.195 220.529 329.971 214.302 326.492C215.816 323.173 217.79 320.094 220.162 317.351C220.162 317.351 235.005 325.374 239.125 340.238Z" fill="black"/>
<path d="M239.536 339.505C236.098 323.594 220.162 314.981 220.162 314.981C217.788 317.723 215.814 320.802 214.302 324.121C220.87 327.797 232.976 340.122 236.991 344.299L239.536 339.505Z" fill="#FF748E"/>
</g>
<defs>
<linearGradient id="paint0_linear_100_327" x1="638.531" y1="85.3322" x2="638.531" y2="68.8936" gradientUnits="userSpaceOnUse">
<stop stop-color="#808080" stop-opacity="0.25"/>
<stop offset="0.54" stop-color="#808080" stop-opacity="0.12"/>
<stop offset="1" stop-color="#808080" stop-opacity="0.1"/>
</linearGradient>
<linearGradient id="paint1_linear_100_327" x1="492.288" y1="700.009" x2="492.288" y2="-1.12202e-06" gradientUnits="userSpaceOnUse">
<stop stop-color="#808080" stop-opacity="0.25"/>
<stop offset="0.54" stop-color="#808080" stop-opacity="0.12"/>
<stop offset="1" stop-color="#808080" stop-opacity="0.1"/>
</linearGradient>
<clipPath id="clip0_100_327">
<rect width="950" height="700" fill="white"/>
</clipPath>
</defs>
</svg>
