<svg width="835" height="400" viewBox="0 0 835 400" fill="none" xmlns="http://www.w3.org/2000/svg">
<g clip-path="url(#clip0_100_155)">
<path d="M811.428 214.518C810.147 213.84 809.043 212.913 808.195 211.802C807.347 210.691 806.776 209.424 806.521 208.089C806.266 206.754 806.334 205.385 806.719 204.076C807.105 202.768 807.799 201.553 808.754 200.517L798.196 129.87L820.189 130.858L823.642 199.767C825.437 201.35 826.536 203.481 826.73 205.756C826.924 208.031 826.2 210.292 824.694 212.11C823.188 213.929 821.006 215.178 818.561 215.622C816.116 216.066 813.578 215.673 811.428 214.518Z" fill="#CE9578"/>
<path d="M823.207 131.794C822.756 132.281 822.179 132.654 821.528 132.882L801.764 139.787C800.771 140.134 799.671 140.119 798.69 139.746C797.709 139.373 796.921 138.669 796.489 137.781L778.981 101.761C777.3 98.4199 777.014 94.6308 778.177 91.1097C779.037 88.5965 780.621 86.3422 782.763 84.5843C784.905 82.8264 787.525 81.63 790.348 81.1211C792.518 80.7121 794.76 80.7411 796.918 81.2062C799.503 81.7337 801.903 82.843 803.902 84.4336C805.901 86.0242 807.434 88.046 808.365 90.316L823.931 127.988C824.192 128.624 824.263 129.312 824.135 129.981C824.008 130.651 823.688 131.277 823.207 131.794Z" fill="#CCCCCC"/>
<path d="M720.215 386.953H706.54L701.58 338.439L720.215 338.668V386.953Z" fill="#CE9578"/>
<path d="M696.773 383.377H723.141V398.578H680.165C680.165 394.547 681.914 390.68 685.029 387.829C688.143 384.978 692.366 383.377 696.77 383.377H696.773Z" fill="#18181B"/>
<path d="M783.792 386.954H770.117L763.612 338.668H783.794L783.792 386.954Z" fill="#CE9578"/>
<path d="M760.35 383.377H786.719V398.578H743.742C743.742 394.547 745.492 390.68 748.606 387.829C751.72 384.978 755.943 383.377 760.347 383.377H760.35Z" fill="#18181B"/>
<path d="M785.512 369.774L764.038 368.318C762.815 368.236 761.668 367.747 760.812 366.944C759.955 366.141 759.449 365.079 759.388 363.958L754.6 273.356C754.554 272.486 754.163 271.662 753.501 271.038C752.839 270.414 751.95 270.032 751.002 269.965C750.055 269.898 749.112 270.149 748.353 270.672C747.593 271.196 747.068 271.955 746.876 272.807L726.9 362.059C726.653 363.157 725.976 364.135 724.997 364.809C724.018 365.482 722.804 365.805 721.583 365.717L702.168 364.295C701.511 364.247 700.871 364.081 700.284 363.806C699.697 363.532 699.175 363.154 698.747 362.695C698.32 362.235 697.996 361.704 697.793 361.13C697.59 360.555 697.512 359.95 697.565 359.349C697.567 359.319 697.57 359.289 697.574 359.259L715.585 194.375C715.655 193.73 715.874 193.107 716.226 192.545C716.578 191.983 717.056 191.496 717.628 191.115C718.201 190.734 718.854 190.469 719.547 190.336C720.239 190.202 720.954 190.205 721.646 190.342L790.137 203.973C791.271 204.201 792.284 204.78 793.004 205.613C793.724 206.447 794.108 207.482 794.09 208.545L790.9 365.278C790.875 366.48 790.337 367.624 789.401 368.467C788.465 369.31 787.206 369.784 785.893 369.787C785.767 369.787 785.64 369.782 785.512 369.774Z" fill="#18181B"/>
<path d="M766.723 56.513C781.853 56.513 794.118 45.2846 794.118 31.4337C794.118 17.5828 781.853 6.35449 766.723 6.35449C751.593 6.35449 739.328 17.5828 739.328 31.4337C739.328 45.2846 751.593 56.513 766.723 56.513Z" fill="#CE9578"/>
<path d="M724.218 207.092C721.584 204.929 719.493 202.27 718.088 199.297C716.684 196.324 716 193.108 716.083 189.87C716.083 153.824 750.165 73.288 751.233 70.7799C751.333 70.1746 752.231 69.9131 756.954 66.9954C761.676 64.0776 768.482 63.6268 777.186 65.6622C778.071 65.8695 778.877 66.2951 779.516 66.8926C780.155 67.4901 780.603 68.2366 780.811 69.0508L782.43 71.1923C782.571 71.7358 782.85 72.2413 783.244 72.668C783.638 73.0948 784.136 73.4309 784.697 73.6492C791.717 76.3566 814.03 88.8414 806.426 135.826C799.364 179.472 796.497 205.135 795.593 214.15C795.487 215.219 794.974 216.22 794.144 216.979C793.314 217.737 792.22 218.205 791.052 218.301C787.61 218.583 781.703 218.958 774.671 218.958C758.356 218.954 735.986 216.942 724.218 207.092Z" fill="#CCCCCC"/>
<path d="M691.482 193.737C690.83 192.52 690.478 191.188 690.45 189.833C690.422 188.478 690.719 187.134 691.32 185.895C691.92 184.657 692.811 183.554 693.927 182.664C695.044 181.775 696.36 181.12 697.783 180.747L732.018 116.698L749.679 128.738L710.604 187.719C711.132 189.949 710.748 192.279 709.524 194.268C708.301 196.256 706.323 197.764 703.965 198.506C701.608 199.248 699.035 199.172 696.735 198.293C694.434 197.414 692.566 195.793 691.484 193.737H691.482Z" fill="#CE9578"/>
<path d="M751.612 131.058C750.942 131.232 750.235 131.248 749.557 131.105L728.941 126.757C727.906 126.539 727.001 125.966 726.414 125.155C725.826 124.345 725.6 123.359 725.782 122.401L733.173 83.5605C733.811 79.9286 735.88 76.6362 738.988 74.3053C741.232 72.6571 743.92 71.5935 746.768 71.2264C749.617 70.8594 752.521 71.2025 755.174 72.2196C757.225 72.9872 759.069 74.1548 760.577 75.6412C762.403 77.3978 763.721 79.5434 764.412 81.8838C765.104 84.2241 765.147 86.6854 764.538 89.0449L754.533 128.264C754.363 128.926 754.002 129.534 753.488 130.026C752.975 130.517 752.327 130.873 751.612 131.058Z" fill="#CCCCCC"/>
<path d="M760.309 54.0934C758.976 52.8483 757.991 51.3262 757.44 49.6573C756.888 47.9883 756.786 46.222 757.142 44.509C758.097 39.9372 758.658 36.9427 758.765 35.8537C759.129 32.1295 755.015 29.1139 750.946 28.6302C750.789 28.611 750.657 28.5991 750.547 28.5908C750.647 28.6823 750.762 28.7792 750.86 28.8652C751.633 29.5299 752.594 30.3574 752.366 31.2114C752.228 31.7253 751.714 32.0901 750.797 32.3251C744.432 33.9554 739.53 32.4586 735.37 27.6116C734.201 26.2342 733.397 24.6268 733.022 22.9163C731.532 16.2231 735.502 10.5175 739.096 6.91033C742.059 3.93589 746.862 0.326882 752.92 0.0159972C757.63 -0.224481 763.233 2.2571 764.906 6.72927C765.696 5.65758 766.749 4.76916 767.98 4.13434C769.211 3.49952 770.586 3.13574 771.997 3.0718C775.213 3.00797 778.379 3.81393 781.097 5.38882C794.381 12.3545 800.089 28.9484 793.563 41.6251C789.458 49.5993 780.564 55.5354 770.352 57.1172C769.713 57.2166 769.066 57.2668 768.417 57.2672C766.901 57.2648 765.402 56.9829 764.007 56.4382C762.613 55.8936 761.353 55.0973 760.302 54.0971L760.309 54.0934Z" fill="#18181B"/>
<path d="M363.223 178.822C362.647 177.57 361.682 176.499 360.448 175.744C359.214 174.988 357.766 174.58 356.281 174.57H217.723C215.731 174.571 213.821 175.296 212.413 176.585C211.005 177.875 210.213 179.623 210.212 181.446V341.918C210.213 343.741 211.005 345.489 212.413 346.779C213.821 348.068 215.731 348.793 217.723 348.794H356.286C358.277 348.791 360.186 348.066 361.594 346.777C363.002 345.488 363.795 343.74 363.797 341.918V181.446C363.8 180.546 363.607 179.653 363.228 178.822H363.223ZM362.124 341.918C362.122 343.336 361.506 344.695 360.411 345.698C359.315 346.701 357.83 347.265 356.281 347.267H217.723C216.173 347.266 214.688 346.703 213.592 345.7C212.496 344.697 211.88 343.337 211.88 341.919V181.447C211.882 180.029 212.498 178.67 213.594 177.667C214.689 176.664 216.174 176.1 217.723 176.098H356.286C357.453 176.102 358.592 176.425 359.558 177.024C360.524 177.623 361.273 178.472 361.71 179.463C361.795 179.661 361.868 179.862 361.929 180.067C362.062 180.517 362.129 180.981 362.129 181.447L362.124 341.918Z" fill="#3F3D56"/>
<path d="M334.307 212.457H292.571C291.686 212.457 290.837 212.135 290.21 211.562C289.584 210.989 289.232 210.211 289.232 209.4C289.232 208.59 289.584 207.812 290.21 207.239C290.837 206.666 291.686 206.344 292.571 206.344H334.307C335.193 206.344 336.042 206.666 336.668 207.239C337.294 207.812 337.646 208.59 337.646 209.4C337.646 210.211 337.294 210.989 336.668 211.562C336.042 212.135 335.193 212.457 334.307 212.457Z" fill="#3F3D56"/>
<path d="M334.307 228.504H292.571C291.686 228.504 290.837 228.182 290.21 227.609C289.584 227.036 289.232 226.258 289.232 225.447C289.232 224.637 289.584 223.859 290.21 223.286C290.837 222.713 291.686 222.391 292.571 222.391H334.307C335.193 222.391 336.042 222.713 336.668 223.286C337.294 223.859 337.646 224.637 337.646 225.447C337.646 226.258 337.294 227.036 336.668 227.609C336.042 228.182 335.193 228.504 334.307 228.504Z" fill="#3F3D56"/>
<path d="M271.157 237.641H240.657C239.661 237.64 238.706 237.278 238.002 236.633C237.298 235.988 236.901 235.114 236.9 234.203V201.252C236.901 200.341 237.298 199.466 238.002 198.822C238.706 198.177 239.661 197.814 240.657 197.813H271.157C272.153 197.814 273.108 198.177 273.812 198.822C274.516 199.466 274.913 200.341 274.914 201.252V234.203C274.913 235.114 274.516 235.988 273.812 236.633C273.108 237.278 272.153 237.64 271.157 237.641Z" fill="#2864AE"/>
<path d="M334.018 261.363H239.695C238.81 261.363 237.961 261.041 237.334 260.468C236.708 259.894 236.356 259.117 236.356 258.306C236.356 257.496 236.708 256.718 237.334 256.145C237.961 255.572 238.81 255.25 239.695 255.25H334.018C334.456 255.25 334.891 255.329 335.296 255.482C335.701 255.636 336.069 255.861 336.379 256.145C336.689 256.429 336.935 256.766 337.103 257.137C337.271 257.507 337.357 257.905 337.357 258.306C337.357 258.708 337.271 259.105 337.103 259.476C336.935 259.847 336.689 260.184 336.379 260.468C336.069 260.752 335.701 260.977 335.296 261.13C334.891 261.284 334.456 261.363 334.018 261.363Z" fill="#CCCCCC"/>
<path d="M334.018 277.41H239.695C238.81 277.41 237.961 277.088 237.334 276.515C236.708 275.941 236.356 275.164 236.356 274.353C236.356 273.542 236.708 272.765 237.334 272.192C237.961 271.618 238.81 271.296 239.695 271.296H334.018C334.904 271.296 335.753 271.618 336.379 272.192C337.005 272.765 337.357 273.542 337.357 274.353C337.357 275.164 337.005 275.941 336.379 276.515C335.753 277.088 334.904 277.41 334.018 277.41Z" fill="#CCCCCC"/>
<path d="M334.018 293.457H239.695C238.81 293.457 237.961 293.135 237.334 292.562C236.708 291.989 236.356 291.211 236.356 290.4C236.356 289.59 236.708 288.812 237.334 288.239C237.961 287.666 238.81 287.344 239.695 287.344H334.018C334.904 287.344 335.753 287.666 336.379 288.239C337.005 288.812 337.357 289.59 337.357 290.4C337.357 291.211 337.005 291.989 336.379 292.562C335.753 293.135 334.904 293.457 334.018 293.457Z" fill="#CCCCCC"/>
<path d="M334.018 309.504H239.695C238.81 309.504 237.961 309.182 237.334 308.609C236.708 308.036 236.356 307.258 236.356 306.447C236.356 305.637 236.708 304.859 237.334 304.286C237.961 303.713 238.81 303.391 239.695 303.391H334.018C334.904 303.391 335.753 303.713 336.379 304.286C337.005 304.859 337.357 305.637 337.357 306.447C337.357 307.258 337.005 308.036 336.379 308.609C335.753 309.182 334.904 309.504 334.018 309.504Z" fill="#CCCCCC"/>
<path d="M334.018 325.551H239.695C238.81 325.551 237.961 325.229 237.334 324.656C236.708 324.083 236.356 323.305 236.356 322.495C236.356 321.684 236.708 320.907 237.334 320.333C237.961 319.76 238.81 319.438 239.695 319.438H334.018C334.904 319.438 335.753 319.76 336.379 320.333C337.005 320.907 337.357 321.684 337.357 322.495C337.357 323.305 337.005 324.083 336.379 324.656C335.753 325.229 334.904 325.551 334.018 325.551Z" fill="#CCCCCC"/>
<path d="M639.235 400H834.001C834.266 400 834.52 399.904 834.707 399.732C834.894 399.561 835 399.328 835 399.086C835 398.843 834.894 398.611 834.707 398.439C834.52 398.268 834.266 398.171 834.001 398.171H639.235C638.97 398.171 638.716 398.268 638.529 398.439C638.342 398.611 638.236 398.843 638.236 399.086C638.236 399.328 638.342 399.561 638.529 399.732C638.716 399.904 638.97 400 639.235 400Z" fill="#3F3D56"/>
<path d="M289.348 135.906C307.145 135.906 321.571 122.699 321.571 106.407C321.571 90.115 307.145 76.9077 289.348 76.9077C271.552 76.9077 257.125 90.115 257.125 106.407C257.125 122.699 271.552 135.906 289.348 135.906Z" fill="#2864AE"/>
<path d="M286.155 117.66C285.43 117.661 284.724 117.447 284.144 117.049L284.108 117.024L276.536 111.721C276.184 111.475 275.889 111.168 275.668 110.817C275.446 110.467 275.302 110.08 275.244 109.679C275.186 109.277 275.215 108.869 275.329 108.478C275.443 108.087 275.64 107.72 275.909 107.399C276.178 107.078 276.514 106.808 276.897 106.606C277.28 106.403 277.703 106.272 278.141 106.219C278.58 106.166 279.025 106.193 279.452 106.298C279.88 106.403 280.28 106.584 280.631 106.83L285.536 110.274L297.127 96.4305C297.67 95.7823 298.471 95.3581 299.356 95.2511C300.24 95.1442 301.135 95.3633 301.843 95.8602L301.844 95.8608L301.772 95.9523L301.846 95.8608C302.553 96.3585 303.016 97.0927 303.133 97.9023C303.249 98.712 303.01 99.5309 302.468 100.179L288.835 116.455C288.519 116.83 288.114 117.134 287.65 117.342C287.185 117.55 286.675 117.658 286.158 117.657L286.155 117.66Z" fill="white"/>
<path d="M77.2039 92.9314C89.2634 92.9314 99.0396 83.9816 99.0396 72.9415C99.0396 61.9014 89.2634 52.9517 77.2039 52.9517C65.1444 52.9517 55.3682 61.9014 55.3682 72.9415C55.3682 83.9816 65.1444 92.9314 77.2039 92.9314Z" fill="#CCCCCC"/>
<path d="M75.039 80.566C74.5478 80.5668 74.0697 80.4214 73.6766 80.1518L73.6526 80.1353L68.5208 76.5382C68.0547 76.1972 67.7532 75.7026 67.6809 75.1604C67.6086 74.6182 67.7713 74.0717 68.1341 73.6381C68.497 73.2044 69.031 72.9183 69.6216 72.841C70.2122 72.7637 70.8125 72.9014 71.2935 73.2245L74.6175 75.558L82.472 66.1803C82.8399 65.7411 83.3832 65.4537 83.9825 65.3812C84.5817 65.3088 85.1879 65.4573 85.6676 65.794L85.6192 65.8547L85.6692 65.7953C86.1483 66.1325 86.4618 66.63 86.5408 67.1785C86.6198 67.7271 86.4579 68.2819 86.0907 68.7213L76.8518 79.7522C76.6381 80.0064 76.3634 80.2122 76.0488 80.3535C75.7343 80.4948 75.3884 80.5678 75.038 80.5669L75.039 80.566Z" fill="white"/>
<path d="M138.565 119.811C138.112 118.826 137.353 117.984 136.382 117.39C135.411 116.795 134.272 116.474 133.104 116.466H24.074C22.5068 116.467 21.0041 117.037 19.8959 118.051C18.7878 119.066 18.1649 120.441 18.1641 121.876V248.144C18.1649 249.578 18.7878 250.954 19.8959 251.969C21.0041 252.983 22.5068 253.553 24.074 253.554H133.104C134.671 253.552 136.173 252.981 137.28 251.967C138.388 250.953 139.012 249.578 139.014 248.144V121.876C139.016 121.167 138.864 120.465 138.565 119.811ZM137.701 248.145C137.699 249.259 137.214 250.328 136.353 251.116C135.492 251.905 134.325 252.348 133.107 252.351H24.074C22.8554 252.351 21.6868 251.908 20.8252 251.119C19.9636 250.33 19.4795 249.26 19.4795 248.145V121.876C19.4819 120.761 19.9667 119.693 20.8278 118.904C21.6889 118.116 22.8562 117.672 24.074 117.67H133.104C134.023 117.673 134.919 117.928 135.68 118.4C136.44 118.872 137.029 119.541 137.372 120.322C137.438 120.477 137.496 120.635 137.544 120.796C137.649 121.15 137.702 121.516 137.702 121.883L137.701 248.145Z" fill="#CCCCCC"/>
<path d="M115.81 146.278H82.9692C82.2723 146.278 81.6041 146.025 81.1113 145.574C80.6186 145.123 80.3418 144.511 80.3418 143.873C80.3418 143.235 80.6186 142.623 81.1113 142.172C81.6041 141.721 82.2723 141.468 82.9692 141.468H115.809C116.505 141.468 117.174 141.721 117.666 142.172C118.159 142.623 118.436 143.235 118.436 143.873C118.436 144.511 118.159 145.123 117.666 145.574C117.174 146.025 116.506 146.278 115.81 146.278Z" fill="#CCCCCC"/>
<path d="M115.81 158.905H82.9692C82.2723 158.905 81.6041 158.652 81.1113 158.201C80.6186 157.75 80.3418 157.138 80.3418 156.5C80.3418 155.862 80.6186 155.25 81.1113 154.799C81.6041 154.348 82.2723 154.095 82.9692 154.095H115.809C116.505 154.095 117.174 154.348 117.666 154.799C118.159 155.25 118.436 155.862 118.436 156.5C118.436 157.138 118.159 157.75 117.666 158.201C117.174 158.652 116.506 158.905 115.81 158.905Z" fill="#CCCCCC"/>
<path d="M66.1177 166.095H42.1185C41.3349 166.094 40.5837 165.809 40.0296 165.302C39.4755 164.794 39.1639 164.107 39.1631 163.389V137.462C39.1639 136.745 39.4755 136.057 40.0296 135.55C40.5837 135.043 41.3349 134.758 42.1185 134.757H66.1177C66.9012 134.758 67.6523 135.043 68.2063 135.55C68.7603 136.058 69.072 136.745 69.0731 137.462V163.389C69.0723 164.107 68.7607 164.794 68.2066 165.302C67.6525 165.809 66.9013 166.094 66.1177 166.095Z" fill="#CCCCCC"/>
<path d="M115.58 184.76H41.3627C40.6659 184.76 39.9976 184.507 39.5049 184.056C39.0122 183.605 38.7354 182.993 38.7354 182.355C38.7354 181.717 39.0122 181.105 39.5049 180.654C39.9976 180.203 40.6659 179.95 41.3627 179.95H115.58C116.277 179.95 116.946 180.203 117.438 180.654C117.931 181.105 118.208 181.717 118.208 182.355C118.208 182.993 117.931 183.605 117.438 184.056C116.946 184.507 116.277 184.76 115.58 184.76Z" fill="#CCCCCC"/>
<path d="M115.58 197.391H41.3627C40.6659 197.391 39.9976 197.138 39.5049 196.687C39.0122 196.235 38.7354 195.624 38.7354 194.986C38.7354 194.348 39.0122 193.736 39.5049 193.285C39.9976 192.834 40.6659 192.581 41.3627 192.581H115.58C116.277 192.581 116.946 192.834 117.438 193.285C117.931 193.736 118.208 194.348 118.208 194.986C118.208 195.624 117.931 196.235 117.438 196.687C116.946 197.138 116.277 197.391 115.58 197.391Z" fill="#CCCCCC"/>
<path d="M115.58 210.014H41.3627C40.6659 210.014 39.9976 209.761 39.5049 209.31C39.0122 208.859 38.7354 208.247 38.7354 207.609C38.7354 206.971 39.0122 206.359 39.5049 205.908C39.9976 205.457 40.6659 205.204 41.3627 205.204H115.58C116.277 205.204 116.946 205.457 117.438 205.908C117.931 206.359 118.208 206.971 118.208 207.609C118.208 208.247 117.931 208.859 117.438 209.31C116.946 209.761 116.277 210.014 115.58 210.014Z" fill="#CCCCCC"/>
<path d="M115.58 222.644H41.3627C40.6659 222.644 39.9976 222.391 39.5049 221.939C39.0122 221.488 38.7354 220.877 38.7354 220.239C38.7354 219.601 39.0122 218.989 39.5049 218.538C39.9976 218.087 40.6659 217.833 41.3627 217.833H115.58C116.277 217.833 116.946 218.087 117.438 218.538C117.931 218.989 118.208 219.601 118.208 220.239C118.208 220.877 117.931 221.488 117.438 221.939C116.946 222.391 116.277 222.644 115.58 222.644Z" fill="#CCCCCC"/>
<path d="M115.58 235.268H41.3627C40.6659 235.268 39.9976 235.015 39.5049 234.564C39.0122 234.112 38.7354 233.501 38.7354 232.863C38.7354 232.225 39.0122 231.613 39.5049 231.162C39.9976 230.711 40.6659 230.458 41.3627 230.458H115.58C116.277 230.458 116.946 230.711 117.438 231.162C117.931 231.613 118.208 232.225 118.208 232.863C118.208 233.501 117.931 234.112 117.438 234.564C116.946 235.015 116.277 235.268 115.58 235.268Z" fill="#CCCCCC"/>
<path d="M0.790535 254.082H154.04C154.249 254.082 154.449 254.006 154.596 253.871C154.743 253.736 154.826 253.553 154.826 253.362C154.826 253.171 154.743 252.988 154.596 252.853C154.449 252.718 154.249 252.643 154.04 252.643H0.790535C0.687309 252.642 0.584977 252.66 0.489384 252.696C0.393791 252.731 0.306812 252.784 0.233405 252.85C0.159999 252.917 0.101613 252.996 0.0615689 253.083C0.0215243 253.17 0.000598983 253.264 1.26796e-05 253.358C-0.000573624 253.453 0.0191785 253.546 0.0581398 253.634C0.097101 253.721 0.154518 253.801 0.227095 253.868C0.299673 253.935 0.385994 253.989 0.481139 254.025C0.576283 254.062 0.678378 254.081 0.781604 254.082H0.790535Z" fill="#CCCCCC"/>
<path d="M496.699 92.9314C508.759 92.9314 518.535 83.9816 518.535 72.9415C518.535 61.9014 508.759 52.9517 496.699 52.9517C484.639 52.9517 474.863 61.9014 474.863 72.9415C474.863 83.9816 484.639 92.9314 496.699 92.9314Z" fill="#CCCCCC"/>
<path d="M494.535 80.566C494.044 80.5668 493.566 80.4214 493.173 80.1518L493.149 80.1353L488.017 76.5382C487.551 76.1972 487.249 75.7026 487.177 75.1604C487.105 74.6182 487.267 74.0717 487.63 73.6381C487.993 73.2044 488.527 72.9183 489.118 72.841C489.708 72.7637 490.309 72.9014 490.79 73.2245L494.114 75.558L501.968 66.1803C502.336 65.7411 502.879 65.4537 503.479 65.3812C504.078 65.3088 504.684 65.4573 505.164 65.794L505.115 65.8547L505.165 65.7953C505.644 66.1325 505.958 66.63 506.037 67.1785C506.116 67.7271 505.954 68.2819 505.587 68.7213L496.348 79.7522C496.134 80.0064 495.859 80.2122 495.545 80.3535C495.23 80.4948 494.884 80.5678 494.534 80.5669L494.535 80.566Z" fill="white"/>
<path d="M558.06 119.811C557.607 118.826 556.848 117.984 555.877 117.39C554.907 116.795 553.767 116.474 552.599 116.466H443.569C442.002 116.467 440.499 117.037 439.391 118.051C438.283 119.066 437.66 120.441 437.659 121.876V248.144C437.66 249.578 438.283 250.954 439.391 251.969C440.499 252.983 442.002 253.553 443.569 253.554H552.599C554.166 253.552 555.668 252.981 556.776 251.967C557.883 250.953 558.507 249.578 558.509 248.144V121.876C558.511 121.167 558.359 120.465 558.06 119.811ZM557.196 248.145C557.194 249.259 556.709 250.328 555.848 251.116C554.987 251.905 553.82 252.348 552.602 252.351H443.569C442.966 252.351 442.368 252.242 441.811 252.03C441.253 251.819 440.747 251.509 440.32 251.119C439.894 250.728 439.555 250.264 439.324 249.754C439.093 249.244 438.975 248.697 438.975 248.145V121.876C438.977 120.761 439.462 119.693 440.323 118.904C441.184 118.116 442.351 117.672 443.569 117.67H552.599C553.518 117.673 554.414 117.928 555.175 118.4C555.935 118.872 556.524 119.541 556.867 120.322C556.934 120.477 556.991 120.635 557.04 120.796C557.144 121.15 557.197 121.516 557.197 121.883L557.196 248.145Z" fill="#CCCCCC"/>
<path d="M535.305 146.278H502.464C501.767 146.278 501.099 146.025 500.606 145.574C500.114 145.123 499.837 144.511 499.837 143.873C499.837 143.235 500.114 142.623 500.606 142.172C501.099 141.721 501.767 141.468 502.464 141.468H535.304C536.001 141.468 536.669 141.721 537.162 142.172C537.654 142.623 537.931 143.235 537.931 143.873C537.931 144.511 537.654 145.123 537.162 145.574C536.669 146.025 536.001 146.278 535.304 146.278H535.305Z" fill="#CCCCCC"/>
<path d="M535.305 158.905H502.464C501.767 158.905 501.099 158.652 500.606 158.201C500.114 157.75 499.837 157.138 499.837 156.5C499.837 155.862 500.114 155.25 500.606 154.799C501.099 154.348 501.767 154.095 502.464 154.095H535.304C536.001 154.095 536.669 154.348 537.162 154.799C537.654 155.25 537.931 155.862 537.931 156.5C537.931 157.138 537.654 157.75 537.162 158.201C536.669 158.652 536.001 158.905 535.304 158.905H535.305Z" fill="#CCCCCC"/>
<path d="M485.614 166.095H461.615C460.831 166.094 460.08 165.809 459.526 165.302C458.972 164.794 458.66 164.107 458.659 163.389V137.462C458.66 136.745 458.972 136.057 459.526 135.55C460.08 135.043 460.831 134.758 461.615 134.757H485.614C486.397 134.758 487.148 135.043 487.702 135.55C488.256 136.058 488.568 136.745 488.569 137.462V163.389C488.568 164.107 488.257 164.794 487.703 165.302C487.149 165.809 486.397 166.094 485.614 166.095Z" fill="#CCCCCC"/>
<path d="M535.076 184.76H460.858C460.161 184.76 459.493 184.507 459 184.056C458.507 183.605 458.23 182.993 458.23 182.355C458.23 181.717 458.507 181.105 459 180.654C459.493 180.203 460.161 179.95 460.858 179.95H535.076C535.772 179.95 536.441 180.203 536.933 180.654C537.426 181.105 537.703 181.717 537.703 182.355C537.703 182.993 537.426 183.605 536.933 184.056C536.441 184.507 535.772 184.76 535.076 184.76Z" fill="#CCCCCC"/>
<path d="M535.076 197.391H460.858C460.161 197.391 459.493 197.138 459 196.687C458.507 196.235 458.23 195.624 458.23 194.986C458.23 194.348 458.507 193.736 459 193.285C459.493 192.834 460.161 192.581 460.858 192.581H535.076C535.772 192.581 536.441 192.834 536.933 193.285C537.426 193.736 537.703 194.348 537.703 194.986C537.703 195.624 537.426 196.235 536.933 196.687C536.441 197.138 535.772 197.391 535.076 197.391Z" fill="#CCCCCC"/>
<path d="M535.076 210.014H460.858C460.161 210.014 459.493 209.761 459 209.31C458.507 208.859 458.23 208.247 458.23 207.609C458.23 206.971 458.507 206.359 459 205.908C459.493 205.457 460.161 205.204 460.858 205.204H535.076C535.772 205.204 536.441 205.457 536.933 205.908C537.426 206.359 537.703 206.971 537.703 207.609C537.703 208.247 537.426 208.859 536.933 209.31C536.441 209.761 535.772 210.014 535.076 210.014Z" fill="#CCCCCC"/>
<path d="M535.076 222.644H460.858C460.161 222.644 459.493 222.391 459 221.939C458.507 221.488 458.23 220.877 458.23 220.239C458.23 219.601 458.507 218.989 459 218.538C459.493 218.087 460.161 217.833 460.858 217.833H535.076C535.772 217.833 536.441 218.087 536.933 218.538C537.426 218.989 537.703 219.601 537.703 220.239C537.703 220.877 537.426 221.488 536.933 221.939C536.441 222.391 535.772 222.644 535.076 222.644Z" fill="#CCCCCC"/>
<path d="M535.076 235.268H460.858C460.161 235.268 459.493 235.015 459 234.564C458.507 234.112 458.23 233.501 458.23 232.863C458.23 232.225 458.507 231.613 459 231.162C459.493 230.711 460.161 230.458 460.858 230.458H535.076C535.772 230.458 536.441 230.711 536.933 231.162C537.426 231.613 537.703 232.225 537.703 232.863C537.703 233.501 537.426 234.112 536.933 234.564C536.441 235.015 535.772 235.268 535.076 235.268Z" fill="#CCCCCC"/>
<path d="M420.286 254.082H573.535C573.744 254.082 573.944 254.006 574.091 253.871C574.239 253.736 574.321 253.553 574.321 253.362C574.321 253.171 574.239 252.988 574.091 252.853C573.944 252.718 573.744 252.643 573.535 252.643H420.286C420.182 252.642 420.08 252.66 419.984 252.696C419.889 252.731 419.802 252.784 419.728 252.85C419.655 252.917 419.597 252.996 419.557 253.083C419.517 253.17 419.496 253.264 419.495 253.358C419.495 253.453 419.514 253.546 419.553 253.634C419.592 253.721 419.65 253.801 419.722 253.868C419.795 253.935 419.881 253.989 419.976 254.025C420.071 254.062 420.173 254.081 420.277 254.082H420.286Z" fill="#CCCCCC"/>
<path d="M188.777 349.342H383.543C383.808 349.342 384.062 349.246 384.249 349.074C384.436 348.903 384.542 348.67 384.542 348.428C384.542 348.185 384.436 347.952 384.249 347.781C384.062 347.609 383.808 347.513 383.543 347.513H188.777C188.512 347.513 188.258 347.609 188.071 347.781C187.884 347.952 187.778 348.185 187.778 348.428C187.778 348.67 187.884 348.903 188.071 349.074C188.258 349.246 188.512 349.342 188.777 349.342Z" fill="#3F3D56"/>
</g>
<defs>
<clipPath id="clip0_100_155">
<rect width="835" height="400" fill="white"/>
</clipPath>
</defs>
</svg>
