<svg width="950" height="700" viewBox="0 0 950 700" fill="none" xmlns="http://www.w3.org/2000/svg">
<g clip-path="url(#clip0_100_669)">
<path opacity="0.15" d="M315.835 699.607C362.1 699.607 399.604 693.341 399.604 685.611C399.604 677.881 362.1 671.615 315.835 671.615C269.571 671.615 232.066 677.881 232.066 685.611C232.066 693.341 269.571 699.607 315.835 699.607Z" fill="#090278"/>
<path opacity="0.15" d="M771.192 700C828.922 700 875.722 693.734 875.722 686.005C875.722 678.275 828.922 672.009 771.192 672.009C713.461 672.009 666.661 678.275 666.661 686.005C666.661 693.734 713.461 700 771.192 700Z" fill="#090278"/>
<path opacity="0.1" d="M11.8985 302.45H99.1492V426.158H18.2861C18.0712 427.428 17.8648 428.707 17.6413 429.986H99.1492V529.753C99.0031 529.708 98.8741 529.655 98.7366 529.601C96.4326 528.653 94.1458 527.651 91.859 526.578L90.3975 525.89C88.105 524.763 85.8124 523.57 83.5199 522.312C82.7204 521.874 81.9209 521.418 81.13 520.953C68.4028 513.537 56.8409 504.14 46.8452 493.087C46.5529 492.792 46.2778 492.479 45.9855 492.193C44.5928 490.619 43.2259 489.027 41.902 487.399L40.4405 485.611C38.8758 483.616 37.3628 481.568 35.8927 479.494C35.6777 479.19 35.4714 478.886 35.2479 478.599C29.2691 469.976 24.3048 460.639 20.4611 450.787C20.3408 450.492 20.2376 450.17 20.1258 449.893C18.9452 446.733 17.8992 443.543 16.9879 440.324C16.5925 438.973 16.2142 437.641 15.8875 436.237C15.7672 435.825 15.664 435.423 15.5694 435.02C10.6863 415.194 10.1104 394.598 10.1104 374.146C10.1104 371.758 10.1104 369.361 10.1104 366.991C10.1104 358.719 10.2049 350.393 10.3425 342.076C10.3425 339.921 10.4284 337.775 10.4714 335.611C10.5918 330.12 10.7637 324.629 10.9872 319.138C11.0388 317.608 11.1076 316.088 11.185 314.568C11.185 313.691 11.228 312.815 11.3139 311.939C11.5203 308.755 11.6922 305.598 11.8985 302.45Z" fill="#6C63FF"/>
<path opacity="0.1" d="M99.1484 164.711H51.2891C59.0689 152.044 67.5692 139.872 76.7447 128.26C83.8544 119.174 91.3596 110.32 99.1484 101.789V164.711Z" fill="#174D90"/>
<path opacity="0.1" d="M99.1484 168.539V298.623H12.1729C12.1729 298.247 12.233 297.863 12.2588 297.487C12.3362 296.458 12.4136 295.43 12.4995 294.411C12.5941 293.212 12.6973 292.005 12.809 290.833C12.9208 289.662 13.0411 288.231 13.1701 286.934C13.2991 285.638 13.4194 284.323 13.5656 283.026C13.7117 281.729 13.8407 280.433 13.9954 279.145C14.1502 277.857 14.2877 276.551 14.4511 275.264C14.58 274.191 14.7176 273.126 14.8551 272.053C15.0528 270.542 15.2592 269.021 15.4827 267.519C15.4827 267.296 15.5429 267.063 15.5773 266.848C17.1464 255.85 19.2844 244.948 21.982 234.189C24.8057 222.903 28.4116 211.844 32.7712 201.1C37.4047 189.86 42.8298 178.992 49.0023 168.583L99.1484 168.539Z" fill="#174D90"/>
<path opacity="0.3" d="M119.979 302.441V426.158H306.336V302.441H119.979ZM119.979 429.977V536.219C121.046 536.451 122.103 536.675 123.152 536.863C124.579 537.149 125.997 537.408 127.45 537.632C127.725 537.676 128.009 537.721 128.31 537.748C128.877 537.846 129.462 537.927 130.029 538.007C131.465 538.213 132.892 538.383 134.328 538.517C135.007 538.589 135.695 538.651 136.383 538.705L138.042 538.839C138.944 538.911 139.838 538.964 140.724 538.991C141.274 538.991 141.824 539.045 142.392 539.063C142.822 539.063 143.251 539.063 143.699 539.063C144.146 539.063 144.782 539.063 145.323 539.063C146.063 539.063 146.802 539.063 147.533 539.063H148.521C149.261 539.063 150 539.063 150.731 538.991H150.782C151.29 538.991 151.805 538.991 152.321 538.919C152.464 538.928 152.608 538.928 152.751 538.919C153.181 538.919 153.611 538.919 154.023 538.857H154.324L157.204 538.624C158.15 538.535 159.104 538.419 160.067 538.311L162.027 538.07C170.002 536.908 177.887 535.162 185.626 532.847C203.009 527.803 220.014 520.747 237.388 515.578C259.852 508.916 284.672 505.643 306.379 513.79V429.977H119.979ZM306.336 164.711V0.00876577C285.933 -0.221178 265.586 2.26121 245.788 7.39564C198.599 19.728 156.259 46.4763 119.979 80.6384V164.702H129.333V168.521H119.979V298.623H306.336V168.53H167.736V164.711H306.336ZM545.702 109.077C534.027 108.648 522.421 104.802 511.924 98.8641C491.85 87.5065 475.817 69.9694 457.901 55.1688C420.676 24.3425 374.51 5.74119 327.149 1.12663V164.711H593.183L593.845 163.987L545.702 109.077ZM569.936 104.605L595.633 133.938V96.9145C587.027 98.0234 579.488 100.662 569.971 104.57L569.936 104.605ZM595.633 562.6V429.977H540.879C540.733 429.413 540.586 428.841 540.414 428.268C540.578 428.841 540.715 429.413 540.87 429.977H327.184V525.89C329.213 527.455 331.216 529.1 333.202 530.772C335.342 532.561 337.457 534.448 339.581 536.299L341.721 538.141C342.744 539.036 343.776 539.93 344.816 540.771C346.879 542.512 348.963 544.229 351.066 545.922C352.106 546.816 353.172 547.621 354.23 548.462C371.017 561.813 388.726 573.862 407.213 584.511C411.357 586.895 415.538 589.224 419.756 591.495C422.567 592.989 425.396 594.473 428.233 595.913C432.497 598.077 436.795 600.164 441.128 602.173C481.075 620.826 523.316 633.627 566.644 640.207C576.267 641.686 585.927 642.848 595.624 643.695V562.591H596.484L595.633 562.6ZM327.184 168.53V298.623H595.667V168.53H327.184ZM327.184 302.441V426.158H595.667V302.441H327.184ZM616.506 96.7535V138.052L649.304 100.617C638.437 98.7925 627.505 97.4898 616.506 96.7088V96.7535ZM616.506 302.486V426.158H877.639V302.441L616.506 302.486ZM876.685 572.42L877.605 429.977H616.506V645.117C633.326 645.852 650.172 645.643 666.971 644.491H667.263C675.287 643.966 683.273 643.203 691.223 642.202H691.403C733.812 637.067 775.281 625.557 814.512 608.031M927.992 322.813C927.012 320.408 925.989 318.02 924.949 315.659C923.006 311.187 920.951 306.841 918.836 302.495H898.461V426.158H949.974C949.948 391.137 941.429 355.366 928.018 322.769L927.992 322.813ZM898.461 430.021V552.54C912.973 538.07 925.232 521.517 934.061 502.593C944.679 479.807 949.536 455.133 949.931 430.003L898.461 430.021ZM898.461 266.437V298.632H916.928C911.341 287.549 905.185 276.787 898.487 266.392L898.461 266.437ZM721.364 121.025C720.005 120.488 718.647 119.943 717.28 119.415C702.864 113.877 688.132 109.271 673.169 105.625L622.98 162.922L622.017 163.987L622.662 164.72H801.29C776.412 146.906 749.591 132.224 721.389 120.98L721.364 121.025ZM806.525 168.574H620.169L616.506 172.062V298.623H648.607H648.659H877.674V237.319C856.957 211.255 833.046 188.129 806.551 168.53L806.525 168.574Z" fill="#658AE8"/>
<path opacity="0.1" d="M99.1484 234.153V298.623H12.1729C12.1729 298.247 12.233 297.863 12.2588 297.487C12.3362 296.459 12.4136 295.43 12.4995 294.411C12.5941 293.213 12.6973 292.005 12.809 290.834C12.9208 289.662 13.0411 288.231 13.1701 286.935C13.2991 285.638 13.4194 284.323 13.5656 283.027C13.7117 281.73 13.8407 280.433 13.9954 279.145C14.1502 277.857 14.2877 276.552 14.4511 275.264C14.58 274.191 14.7176 273.127 14.8551 272.054C15.0528 270.542 15.2592 269.022 15.4827 267.519C15.4827 267.296 15.5429 267.063 15.5773 266.849C17.1464 255.85 19.2844 244.948 21.982 234.189L99.1484 234.153Z" fill="#174D90"/>
<path opacity="0.1" d="M11.8985 302.45H99.1492V426.158H18.2861C18.0712 427.428 17.8648 428.707 17.6413 429.986H99.1492V529.753C99.0031 529.708 98.8741 529.655 98.7366 529.601C96.4326 528.653 94.1458 527.651 91.859 526.578L90.3975 525.89C88.105 524.763 85.8124 523.57 83.5199 522.312C82.7204 521.874 81.9209 521.418 81.13 520.953C68.4028 513.537 56.8409 504.14 46.8452 493.087C46.5529 492.792 46.2778 492.479 45.9855 492.193C44.5928 490.619 43.2259 489.027 41.902 487.399L40.4405 485.611C38.8758 483.616 37.3628 481.568 35.8927 479.494C35.6777 479.19 35.4714 478.886 35.2479 478.599C29.2691 469.976 24.3048 460.639 20.4611 450.787C20.3408 450.492 20.2376 450.17 20.1258 449.893C18.9452 446.733 17.8992 443.543 16.9879 440.324C16.5925 438.973 16.2142 437.641 15.8875 436.237C15.7672 435.825 15.664 435.423 15.5694 435.02C10.6863 415.194 10.1104 394.598 10.1104 374.146C10.1104 371.758 10.1104 369.361 10.1104 366.991C10.1104 358.719 10.2049 350.393 10.3425 342.076C10.3425 339.921 10.4284 337.775 10.4714 335.611C10.5918 330.12 10.7637 324.629 10.9872 319.138C11.0388 317.608 11.1076 316.088 11.185 314.568C11.185 313.691 11.228 312.815 11.3139 311.939C11.5203 308.755 11.6922 305.598 11.8985 302.45Z" fill="#174D90"/>
<path opacity="0.1" d="M185.583 187.158V298.623H119.979V187.158H129.333V149.419H167.727V187.158H185.583Z" fill="#174D90"/>
<path opacity="0.1" d="M185.583 302.441H119.988V426.149H185.583V302.441Z" fill="#174D90"/>
<path opacity="0.1" d="M119.979 429.986H185.583V532.83C177.844 535.143 169.959 536.885 161.984 538.043L160.024 538.294C159.061 538.41 158.107 538.508 157.161 538.607C156.216 538.705 155.236 538.777 154.281 538.839H153.981C153.568 538.839 153.121 538.893 152.717 538.902H152.278C151.762 538.902 151.247 538.956 150.731 538.973C150 539.018 149.269 539.027 148.521 539.036C148.203 539.036 147.902 539.036 147.584 539.036C146.845 539.036 146.114 539.036 145.375 539.036H143.75C143.312 539.036 142.89 539.036 142.435 539.036L140.776 538.973C139.916 538.973 138.987 538.875 138.093 538.813L136.443 538.687L134.388 538.491C132.944 538.356 131.508 538.187 130.09 537.981L128.37 537.73L127.51 537.605C126.075 537.373 124.656 537.122 123.212 536.836C122.155 536.648 121.106 536.416 120.04 536.192L119.979 429.986Z" fill="#174D90"/>
<path opacity="0.1" d="M595.667 173.994H541.575V298.614H595.667V173.994Z" fill="#2864AE"/>
<path opacity="0.1" d="M595.676 302.441V426.158H327.184V372.796H470.194V404.275H541.575V302.441H595.676Z" fill="#174D90"/>
<path opacity="0.1" d="M596.527 562.628H595.667V643.785C585.981 642.932 576.324 641.773 566.695 640.306C523.346 633.704 481.087 620.877 441.128 602.191C429.591 596.79 418.289 590.893 407.221 584.502C388.735 573.848 371.023 561.8 354.23 548.453C350.011 545.091 345.848 541.65 341.738 538.133C338.893 535.691 336.064 533.187 333.201 530.755C331.216 529.083 329.212 527.437 327.184 525.863V429.986H540.861C540.715 429.414 540.569 428.841 540.414 428.278C540.578 428.841 540.732 429.414 540.879 429.986H595.667V562.574C595.959 562.583 596.243 562.61 596.527 562.628Z" fill="#174D90"/>
<path opacity="0.1" d="M736.744 164.711H701.496V153.318H717.297V119.379C718.667 119.898 720.031 120.432 721.39 120.98V153.318H736.744V164.711Z" fill="#6C63FF"/>
<path opacity="0.1" d="M821.664 298.623H648.624C648.624 298.623 648.624 298.623 648.684 298.667L648.607 298.623H616.506V174.003H625.601V266.115H667.168V211.563H701.504V168.539H736.752V211.599H771.088V266.151H821.664V298.623Z" fill="#174D90"/>
<path opacity="0.1" d="M616.506 302.441V426.158H821.664V302.441H616.506ZM877.355 571.785L877.639 473.86H821.664V430.039H616.506V645.117C633.326 645.852 650.172 645.643 666.97 644.491H667.262C675.286 643.966 683.273 643.203 691.222 642.202H691.403C733.812 637.067 775.281 625.557 814.511 608.031" fill="#174D90"/>
<path opacity="0.15" d="M902.106 429.986H949.965C949.544 455.107 944.695 479.78 934.087 502.567C925.258 521.499 912.99 538.052 898.495 552.513V473.815H902.106V429.986Z" fill="#090278"/>
<path opacity="0.15" d="M949.992 426.158H902.106V322.769H928.018C941.429 355.366 949.949 391.137 949.992 426.158Z" fill="#090278"/>
<path opacity="0.1" d="M595.676 208.639H566.695V247.71H595.676V208.639Z" fill="#6C63FF"/>
<path opacity="0.1" d="M595.676 289.626H566.695V298.623H595.676V289.626Z" fill="#6C63FF"/>
<path opacity="0.15" d="M595.676 302.441H566.695V328.689H595.676V302.441Z" fill="#090278"/>
<path opacity="0.15" d="M595.676 370.613H566.695V409.685H595.676V370.613Z" fill="#090278"/>
<path opacity="0.15" d="M595.676 451.601H566.695V490.672H595.676V451.601Z" fill="#090278"/>
<path opacity="0.15" d="M595.667 562.574C595.959 562.574 596.243 562.574 596.527 562.627H595.667V571.704H566.695V532.588H595.667V562.574Z" fill="#090278"/>
<path opacity="0.15" d="M595.667 613.558V643.74C585.981 642.887 576.324 641.728 566.695 640.261V613.558H595.667Z" fill="#090278"/>
<path opacity="0.1" d="M451.384 423.288H327.184V426.158H451.384V423.288Z" fill="#6C63FF"/>
<path opacity="0.15" d="M451.384 429.977H327.184V440.976H451.384V429.977Z" fill="#090278"/>
<path opacity="0.15" d="M451.384 477.035H327.184V494.724H451.384V477.035Z" fill="#090278"/>
<path opacity="0.15" d="M451.376 530.782V548.471H354.23C350.012 545.12 345.845 541.68 341.73 538.151C338.885 535.709 336.065 533.205 333.193 530.782H451.376Z" fill="#090278"/>
<path opacity="0.15" d="M451.376 584.52V602.191H441.12C429.594 596.784 418.295 590.884 407.222 584.493L451.376 584.52Z" fill="#090278"/>
<path opacity="0.15" d="M691.428 314.434H666.979V339.868H691.428V314.434Z" fill="#090278"/>
<path opacity="0.15" d="M162.045 195.931H137.595V221.365H162.045V195.931Z" fill="#090278"/>
<path opacity="0.15" d="M162.045 255.008H137.595V280.442H162.045V255.008Z" fill="#090278"/>
<path opacity="0.15" d="M162.045 314.085H137.595V339.519H162.045V314.085Z" fill="#090278"/>
<path opacity="0.15" d="M162.045 373.153H137.595V398.587H162.045V373.153Z" fill="#090278"/>
<path opacity="0.1" d="M162.045 432.23H137.595V457.664H162.045V432.23Z" fill="#6C63FF"/>
<path opacity="0.1" d="M162.045 491.308H137.595V516.741H162.045V491.308Z" fill="#6C63FF"/>
<path opacity="0.1" d="M784.766 314.434H760.316V339.868H784.766V314.434Z" fill="#6C63FF"/>
<path opacity="0.15" d="M691.428 377.168H666.979V402.602H691.428V377.168Z" fill="#090278"/>
<path opacity="0.1" d="M784.766 377.168H760.316V402.602H784.766V377.168Z" fill="#6C63FF"/>
<path opacity="0.15" d="M691.428 439.895H666.979V465.328H691.428V439.895Z" fill="#090278"/>
<path opacity="0.1" d="M784.766 439.895H760.316V465.328H784.766V439.895Z" fill="#6C63FF"/>
<path opacity="0.15" d="M691.428 502.629H666.979V528.063H691.428V502.629Z" fill="#090278"/>
<path opacity="0.1" d="M784.766 502.629H760.316V528.063H784.766V502.629Z" fill="#6C63FF"/>
<path opacity="0.15" d="M691.428 565.364H666.979V590.798H691.428V565.364Z" fill="#090278"/>
<path opacity="0.15" d="M784.766 565.364H760.316V590.798H784.766V565.364Z" fill="#090278"/>
<path opacity="0.15" d="M666.979 644.491V628.09H691.42V642.157L666.979 644.491Z" fill="#090278"/>
<path opacity="0.15" d="M15.4746 266.831V281.381H99.149V266.831H15.4746ZM23.8137 280.469H16.9877V267.725H23.8653L23.8137 280.469ZM32.1441 280.469H25.2666V267.725H32.1441V280.469ZM40.4574 280.469H33.5798V267.725H40.4574V280.469ZM48.7879 280.469H41.9189V267.725H48.7965L48.7879 280.469ZM57.1098 280.469H50.2322V267.725H57.1098V280.469ZM65.4402 280.469H58.5626V267.725H65.4402V280.469ZM73.7707 280.469H66.8931V267.725H73.7707V280.469ZM82.0926 280.469H75.215V267.725H82.0926V280.469ZM90.4144 280.469H83.5369V267.725H90.4144V280.469ZM98.7363 280.469H91.8587V267.725H98.7363V280.469Z" fill="#090278"/>
<path opacity="0.15" d="M15.4746 309.167V323.717H99.149V309.167H15.4746ZM23.8137 322.796H16.9877V310.088H23.8653L23.8137 322.796ZM32.1441 322.796H25.2666V310.088H32.1441V322.796ZM40.4574 322.796H33.5798V310.088H40.4574V322.796ZM48.7879 322.796H41.9189V310.088H48.7965L48.7879 322.796ZM57.1098 322.796H50.2322V310.088H57.1098V322.796ZM65.4402 322.796H58.5626V310.088H65.4402V322.796ZM73.7707 322.796H66.8931V310.088H73.7707V322.796ZM82.0926 322.796H75.215V310.088H82.0926V322.796ZM90.4144 322.796H83.5369V310.088H90.4144V322.796ZM98.7363 322.796H91.8587V310.088H98.7363V322.796Z" fill="#090278"/>
<path opacity="0.15" d="M15.4746 351.521V366.097H99.149V351.521H15.4746ZM23.8137 365.15H16.9877V352.433H23.8653L23.8137 365.15ZM32.1441 365.15H25.2666V352.433H32.1441V365.15ZM40.4574 365.15H33.5798V352.433H40.4574V365.15ZM48.7879 365.15H41.9189V352.433H48.7965L48.7879 365.15ZM57.1098 365.15H50.2322V352.433H57.1098V365.15ZM65.4402 365.15H58.5626V352.433H65.4402V365.15ZM73.7707 365.15H66.8931V352.433H73.7707V365.15ZM82.0926 365.15H75.215V352.433H82.0926V365.15ZM90.4144 365.15H83.5369V352.433H90.4144V365.15ZM98.7363 365.15H91.8587V352.433H98.7363V365.15Z" fill="#090278"/>
<path opacity="0.15" d="M15.4746 393.874V408.406H99.149V393.874H15.4746ZM23.8137 407.503H16.9877V394.777H23.8653L23.8137 407.503ZM32.1441 407.503H25.2666V394.777H32.1441V407.503ZM40.4574 407.503H33.5798V394.777H40.4574V407.503ZM48.7879 407.503H41.9189V394.777H48.7965L48.7879 407.503ZM57.1098 407.503H50.2322V394.777H57.1098V407.503ZM65.4402 407.503H58.5626V394.777H65.4402V407.503ZM73.7707 407.503H66.8931V394.777H73.7707V407.503ZM82.0926 407.503H75.215V394.777H82.0926V407.503ZM90.4144 407.503H83.5369V394.777H90.4144V407.503ZM98.7363 407.503H91.8587V394.777H98.7363V407.503Z" fill="#090278"/>
<path opacity="0.15" d="M15.8359 436.219C16.1712 437.587 16.5495 438.955 16.9449 440.306V437.131H23.8225V449.848H20.143C20.2548 450.143 20.3665 450.465 20.4783 450.742H99.1492V436.219H15.8359ZM32.1702 449.848H25.2926V437.131H32.1702V449.848ZM40.4835 449.848H33.6059V437.131H40.4835V449.848ZM48.8139 449.848H41.9192V437.131H48.7967L48.8139 449.848ZM57.1358 449.848H50.2582V437.131H57.1358V449.848ZM65.4663 449.848H58.5887V437.131H65.4663V449.848ZM73.7967 449.848H66.9192V437.131H73.7967V449.848ZM82.1186 449.848H75.241V437.131H82.1186V449.848ZM90.4405 449.848H83.5629V437.131H90.4405V449.848ZM98.7623 449.848H91.8848V437.131H98.7623V449.848Z" fill="#090278"/>
<path opacity="0.1" d="M35.2646 478.573C35.4796 478.859 35.6859 479.181 35.9094 479.467H40.4572V485.575C40.9472 486.183 41.4287 486.791 41.9273 487.364V479.431H48.8049V492.193H46.0195C46.2946 492.488 46.5611 492.801 46.8792 493.087H99.1746V478.573H35.2646ZM57.1096 492.193H50.232V479.485H57.1096V492.193ZM65.44 492.193H58.5624V479.485H65.44V492.193ZM73.7705 492.193H66.8929V479.485H73.7705V492.193ZM82.0924 492.193H75.2148V479.485H82.0924V492.193ZM90.4142 492.193H83.5367V479.485H90.4142V492.193ZM98.7361 492.193H91.8585V479.485H98.7361V492.193Z" fill="#6C63FF"/>
<path opacity="0.1" d="M81.1641 520.917C81.9464 521.383 82.7459 521.812 83.554 522.277V521.83H90.4316V525.854L91.8931 526.56V521.83H98.7707V529.565C98.9026 529.634 99.0408 529.687 99.1833 529.726V520.917H81.1641Z" fill="#6C63FF"/>
<path opacity="0.15" d="M540.414 428.268C540.578 428.841 540.715 429.413 540.87 429.977C540.732 429.413 540.586 428.841 540.414 428.268ZM129.367 164.684V168.503H167.77V164.684H129.367ZM540.414 428.268C540.578 428.841 540.715 429.413 540.87 429.977C540.732 429.413 540.586 428.841 540.414 428.268ZM540.414 428.268C540.578 428.841 540.715 429.413 540.87 429.977C540.732 429.413 540.586 428.841 540.414 428.268Z" fill="#090278"/>
<path d="M396.836 339.537C396.836 339.537 393.449 339.045 393.449 333.912C393.449 328.779 391.024 319.192 391.024 319.192C391.024 319.147 388.927 302.495 386.03 299.848C383.132 297.201 379.41 281.658 379.41 281.658C379.41 281.658 378.774 273.225 377.476 271.41C376.177 269.594 374.424 265.15 371.836 258.809C369.248 252.468 358.459 248.077 358.459 248.077C358.459 248.077 338.952 236.309 333.425 232.472C332.922 232.157 332.453 231.788 332.023 231.372C331.06 230.057 326.865 230.031 326.865 230.031C326.427 227.151 326.005 223.842 325.868 220.846C325.868 220.524 325.868 220.202 325.825 219.88C331.989 216.09 336.632 210.114 338.901 203.05C339.004 202.71 339.09 202.352 339.185 202.012C339.554 201.886 339.894 201.68 340.183 201.409C340.471 201.138 340.702 200.808 340.861 200.438C341.36 199.285 341.368 197.934 341.987 196.861C342.709 195.591 344.085 194.912 345.168 193.955C347.902 191.54 348.607 187.471 348.478 183.769C348.392 180.773 347.928 177.75 348.108 174.772L348.16 174.021C348.211 173.574 348.272 173.127 348.349 172.697C348.77 170.48 349.69 168.387 350.206 166.187C350.722 163.987 350.773 161.51 349.57 159.614C347.807 156.833 344.136 156.278 340.913 155.992C337.259 155.67 333.992 156.09 331.654 152.934C330.559 151.284 329.328 149.736 327.974 148.31C327.493 147.845 322.816 144.876 322.816 144.679C318.251 142.48 313.078 142.067 308.244 143.517C305.82 144.25 303.533 145.448 301.074 146.047C295.77 147.353 289.666 145.94 285.161 149.097C282.651 150.886 281.146 153.729 279.737 156.502C278.59 158.785 277.427 161.066 276.246 163.343C274.346 167.09 272.412 170.9 271.612 175.049C271.444 175.952 271.341 176.867 271.303 177.786V177.831C271.303 178.162 271.303 178.492 271.303 178.823V179.244C271.303 179.557 271.303 179.861 271.355 180.138C271.406 180.415 271.397 180.505 271.423 180.692C271.449 180.88 271.492 181.301 271.544 181.587C271.595 181.873 271.698 182.374 271.802 182.767C271.845 182.937 271.905 183.098 271.956 183.259C272.042 183.563 272.145 183.858 272.257 184.153C272.317 184.305 272.378 184.466 272.446 184.618C272.575 184.931 272.73 185.235 272.885 185.513C272.954 185.638 273.005 185.754 273.074 185.87C273.314 186.286 273.578 186.686 273.865 187.069C275.705 189.456 278.413 190.977 280.416 193.213C280.416 193.302 280.416 193.391 280.416 193.472C280.416 193.722 280.416 193.964 280.416 194.214C280.522 199.2 281.798 204.084 284.132 208.44C286.467 212.797 289.789 216.494 293.81 219.21C293.81 219.549 293.853 219.898 293.87 220.238C294.038 222.893 294.006 225.557 293.775 228.206C293.425 227.777 292.987 227.436 292.493 227.207C291.999 226.978 291.462 226.867 290.921 226.883C290.552 226.864 290.182 226.897 289.821 226.981L289.743 226.918V226.999C287.852 227.482 285.522 229.53 283.296 235.352C283.296 235.352 276.521 243.293 271.363 242.962C266.205 242.631 253.146 251.225 253.146 251.225C253.146 251.225 240.405 259.829 237.672 268.593C236.143 273.562 234.311 278.425 232.187 283.152L216.437 316.911L213.531 343.695C213.531 343.695 215.139 355.607 214.821 357.423C214.503 359.238 221.432 375.613 221.432 375.613C221.432 375.613 244.326 417.457 253.679 419.603L254.35 419.111C254.75 419.329 255.174 419.494 255.613 419.603L257.539 418.19C257.655 419.765 257.606 421.348 257.393 422.912C256.103 427.044 257.874 454.007 260.127 459.292C262.379 464.577 261.58 533.876 261.58 533.876L261.262 539.993C261.262 539.993 261.262 540.19 261.339 540.53L261.262 541.978L261.494 542.104C261.735 544.044 261.656 546.013 261.262 547.925C260.454 550.608 260.127 558.192 260.127 558.192C260.127 558.192 253.688 601.011 256.74 609.614C259.792 618.217 262.388 627.643 262.388 627.643C262.388 627.643 265.612 638.374 262.543 640.208C259.473 642.041 250.748 645.117 252.544 649.589C254.178 653.72 260.376 664.792 261.296 666.411L261.219 667.26L259.955 681.506C260.16 683.387 260.65 685.223 261.408 686.944C262.792 690.047 265.483 693.266 270.598 692.917C271.458 692.855 272.455 692.747 273.418 692.613C282.78 691.308 294.308 686.961 294.308 686.961C293.71 686.566 293.161 686.094 292.675 685.557C292.215 685.094 291.85 684.537 291.603 683.922C291.357 683.307 291.233 682.647 291.239 681.98C291.377 679.387 286.709 667.028 285.548 663.987C285.368 663.549 285.273 663.298 285.273 663.298C285.273 663.298 295.916 651.726 294.145 641.469C294.145 641.469 282.367 634.314 286.244 630.388C290.122 626.462 297.051 615.185 297.051 615.185C297.051 615.185 297.369 573.019 297.051 566.724C296.719 562.354 296.918 557.958 297.644 553.64C297.773 552.987 297.928 552.352 298.091 551.726C303.453 552.559 308.866 552.986 314.288 553.005C316.265 553.005 318.277 553.005 320.306 552.88C320.306 553.476 320.331 554.12 320.383 554.812C320.83 565.257 321.664 583.572 322.343 590.378C323.306 600.134 328.628 626.427 328.628 626.427C328.628 626.427 318.475 633.205 330.399 649.911C330.399 649.911 330.399 655.965 329.608 656.842C328.763 659.707 328.083 662.621 327.57 665.57C327.071 668.718 326.865 671.901 327.673 673.556C329.608 677.509 341.214 677.187 341.214 677.187L341.497 677.133C343.688 676.897 345.902 677.117 348.011 677.779C350.12 678.44 352.082 679.531 353.782 680.987C358.193 684.672 374.931 683.053 383.992 681.882C387.543 681.417 389.915 680.987 389.915 680.987C390.03 680.569 390.071 680.133 390.036 679.7C389.941 677.383 388.196 672.304 376.367 667.77C376.367 667.77 365.242 659.99 365.397 653.211H365.165H363.875C364.812 653.157 365.414 653.211 365.414 653.211C365.414 653.211 361.055 636.666 362.835 635.325C364.614 633.983 359.284 615.65 359.284 615.65C359.284 615.65 356.232 584.887 356.069 582.731C356.076 580.882 356.345 579.044 356.869 577.276L356.069 560.41C356.069 560.41 355.914 554.803 356.069 552.978C356.043 551.395 355.92 549.814 355.699 548.247C355.622 547.621 355.545 546.969 355.459 546.325C359.628 545.225 362.336 544.205 362.336 544.205L361.855 485.495C365.397 478.34 366.05 462.646 366.033 451.512C366.033 444.357 365.723 439.063 365.723 439.063L370.564 430.844C370.564 430.844 371.681 421.007 369.91 418.852C369.128 417.877 369.48 416.867 370.125 416.035C370.46 415.759 370.813 415.508 371.183 415.284C371.183 415.284 371.131 415.203 371.071 415.087C371.409 414.793 371.768 414.527 372.145 414.291C372.145 414.291 370.426 411.519 371.965 410.347C373.409 411.367 374.699 412.136 375.679 412.762C375.61 413.415 375.541 413.79 375.541 413.79L375.954 412.896C376.9 413.45 377.476 413.79 377.476 413.79C377.476 413.79 385.058 398.077 384.895 395.761C384.731 393.445 390.053 383.688 390.053 383.688C390.053 383.688 390.698 378.564 393.603 376.418C396.509 374.271 395.856 358.72 395.856 358.72C395.856 358.72 396.664 350.617 398.598 347.308C400.533 343.999 396.836 339.537 396.836 339.537ZM251.753 332.642L251.9 336.389C251.04 334.949 250.421 333.912 250.421 333.912L251.753 332.642Z" fill="url(#paint0_linear_100_669)"/>
<path d="M377.889 407.002L376.032 415.23C376.032 415.23 361.159 407.333 358.477 397.299C355.794 387.265 362.964 383.456 362.964 383.456L376.823 389.564L377.889 407.002Z" fill="white"/>
<path opacity="0.1" d="M377.889 407.002L376.032 415.23C376.032 415.23 361.159 407.333 358.477 397.299C355.794 387.265 362.964 383.456 362.964 383.456L376.823 389.564L377.889 407.002Z" fill="black"/>
<path d="M294.421 687.015C294.421 687.015 280.666 692.273 271.209 692.935C266.189 693.284 263.549 690.082 262.191 686.997C261.449 685.282 260.97 683.456 260.772 681.586L262.002 667.412L262.655 659.864L282.746 654.436L285.592 663.486L285.858 664.174C287.002 667.197 291.584 679.494 291.446 682.06C291.441 682.718 291.563 683.369 291.805 683.976C292.047 684.583 292.405 685.133 292.856 685.593C293.318 686.134 293.843 686.612 294.421 687.015Z" fill="white"/>
<path d="M388.377 679.807C388.411 680.237 388.37 680.67 388.256 681.086C388.256 681.086 358.837 686.192 352.819 681.086C351.123 679.594 349.145 678.487 347.013 677.838C344.881 677.188 342.642 677.008 340.44 677.312C340.44 677.312 329.057 677.634 327.157 673.734C326.367 672.098 326.573 668.923 327.063 665.793C327.563 662.86 328.229 659.961 329.057 657.11L329.513 656.734L332.221 654.471L363.927 653.497H364.167C364.013 660.24 374.931 667.975 374.931 667.975C386.528 672.447 388.239 677.499 388.377 679.807Z" fill="white"/>
<path opacity="0.1" d="M388.377 679.807C388.407 680.237 388.363 680.67 388.248 681.085C388.248 681.085 358.838 686.192 352.82 681.085C351.124 679.595 349.148 678.489 347.017 677.839C344.887 677.189 342.65 677.01 340.449 677.311C340.449 677.311 329.058 677.633 327.166 673.734C326.375 672.089 326.573 668.923 327.063 665.793C331.448 666.249 338.368 667.385 341.085 670.095C345.194 674.217 352.158 678.331 356.43 678.653C359.775 678.877 379.78 679.538 388.377 679.807Z" fill="black"/>
<path opacity="0.1" d="M294.421 687.015C294.421 687.015 280.666 692.273 271.209 692.935C266.188 693.284 263.549 690.082 262.199 686.988C265.698 688.213 270.555 689.501 273.109 688.321C276.135 686.925 286.864 686.022 292.882 685.638C293.34 686.159 293.856 686.622 294.421 687.015Z" fill="black"/>
<path d="M314.829 263.253C303.481 258.666 288.884 243.507 292.529 236.425C293.338 234.637 293.819 232.708 293.947 230.737C294.182 228.061 294.216 225.37 294.05 222.688C293.795 218.296 293.287 213.924 292.529 209.596C292.529 209.596 327.957 210.427 325.894 215.856C325.292 217.448 325.197 220.211 325.361 223.305C325.524 226.399 325.954 229.896 326.401 232.856C327.02 236.916 327.639 240.011 327.639 240.011C327.639 240.011 325.472 243.168 324.2 243.337C322.928 243.507 331.112 269.791 314.829 263.253Z" fill="#CE9578"/>
<path opacity="0.1" d="M285.832 664.174L285.566 664.479C274.974 651.154 262.165 667.761 262.165 667.761L261.976 667.412L262.629 659.864L282.72 654.436L285.566 663.486L285.832 664.174Z" fill="black"/>
<path opacity="0.1" d="M364.177 654.436C364.177 654.436 356.44 654.266 352.313 658.058C348.186 661.849 328.241 658.88 329.101 658.058C329.356 657.65 329.51 657.183 329.548 656.698L332.256 654.436L363.962 653.461C364.082 654.06 364.177 654.436 364.177 654.436Z" fill="black"/>
<path d="M299.012 549.794C298.435 551.276 297.998 552.813 297.705 554.382C296.988 558.68 296.789 563.054 297.112 567.403C297.43 573.663 297.112 615.614 297.112 615.614C297.112 615.614 290.312 626.802 286.52 630.746C282.729 634.69 294.258 641.772 294.258 641.772C295.977 651.967 285.557 663.486 285.557 663.486C274.966 650.161 262.157 666.777 262.157 666.777C262.157 666.777 255.193 654.257 253.456 649.785C251.72 645.314 260.257 642.219 263.257 640.404C266.257 638.589 263.111 627.884 263.111 627.884C263.111 627.884 260.575 618.503 257.566 609.944C254.557 601.386 260.884 558.782 260.884 558.782C260.884 558.782 261.211 551.216 261.993 548.578C262.388 546.674 262.466 544.714 262.225 542.783C262.174 542.13 262.114 541.585 262.071 541.218C262.028 540.851 261.993 540.681 261.993 540.681L262.114 540.467L266.412 532.132C266.412 532.132 301.075 544.545 299.012 549.794Z" fill="#18181B"/>
<path d="M364.176 653.452C364.176 653.452 356.439 653.282 352.312 657.029C348.186 660.776 328.241 657.852 329.1 657.029C329.96 656.206 329.891 650.116 329.891 650.116C318.191 633.5 328.172 626.757 328.172 626.757C328.172 626.757 322.945 600.599 321.999 590.896C321.337 584.117 320.521 565.9 320.082 555.5C319.893 551.028 319.781 547.952 319.781 547.952L329.341 545.949L330.57 545.689L353.628 540.878C353.628 540.878 354.264 545.349 354.694 549.007C354.908 550.569 355.028 552.143 355.055 553.72C354.9 555.509 355.055 561.107 355.055 561.107L355.837 577.893C355.326 579.654 355.062 581.482 355.055 583.321C355.209 585.459 358.21 616.061 358.21 616.061C358.21 616.061 363.428 634.323 361.649 635.637C359.869 636.952 364.176 653.452 364.176 653.452Z" fill="#18181B"/>
<path opacity="0.1" d="M325.894 215.856C325.292 217.448 325.198 220.211 325.361 223.305C320.616 226.278 315.16 227.798 309.622 227.69C304.083 227.583 298.686 225.852 294.051 222.697C293.796 218.302 293.288 213.927 292.529 209.596C292.529 209.596 327.957 210.41 325.894 215.856Z" fill="black"/>
<path d="M339.589 196.092C339.596 199.314 339.109 202.517 338.145 205.58C335.991 212.443 331.575 218.292 325.676 222.095C319.777 225.897 312.776 227.408 305.909 226.361C299.043 225.313 292.754 221.774 288.154 216.369C283.553 210.964 280.937 204.042 280.769 196.825C280.769 196.575 280.769 196.342 280.769 196.092C280.702 192.029 281.414 187.994 282.862 184.221C284.31 180.448 286.466 177.012 289.204 174.115C291.942 171.218 295.207 168.916 298.809 167.346C302.411 165.775 306.278 164.966 310.184 164.966C314.089 164.966 317.956 165.775 321.558 167.346C325.16 168.916 328.425 171.218 331.163 174.115C333.901 177.012 336.057 180.448 337.505 184.221C338.953 187.994 339.665 192.029 339.598 196.092H339.589Z" fill="#CE9578"/>
<path opacity="0.1" d="M314.829 263.253C303.481 258.666 288.884 243.507 292.529 236.425C293.338 234.637 293.819 232.708 293.947 230.737L309.482 244.017L319.093 252.218L326.401 232.865C327.02 236.925 327.639 240.02 327.639 240.02C327.639 240.02 325.472 243.176 324.2 243.346C322.928 243.516 331.112 269.791 314.829 263.253Z" fill="black"/>
<path d="M355.004 321.946L342.031 548.65L325.112 549.803L281.302 418.351L288.489 262.288L290.002 229.315L309.483 245.958L319.103 254.158L326.625 234.242L340.612 246.924L355.004 321.946Z" fill="#2864AE"/>
<path opacity="0.1" d="M299.011 549.794C298.435 551.276 297.997 552.813 297.704 554.382C285.393 552.405 273.437 548.519 262.233 542.855L262.001 542.729L262.078 541.29L262.121 540.538L266.42 532.204C266.42 532.204 301.074 544.545 299.011 549.794Z" fill="black"/>
<path opacity="0.1" d="M329.54 554.418C326.392 554.975 323.218 555.351 320.031 555.545C319.842 551.073 319.73 547.997 319.73 547.997L329.29 545.994L329.54 554.418Z" fill="black"/>
<path opacity="0.1" d="M354.643 549.052C348.53 550.706 339.091 552.567 330.64 551.404L330.52 545.734L353.577 540.923C353.577 540.923 354.213 545.35 354.643 549.052Z" fill="black"/>
<path opacity="0.1" d="M330.485 552.441C295.237 558.701 262.956 540.753 262.956 540.753L263.265 534.672C263.265 534.672 264.065 465.73 261.847 460.445C259.629 455.16 257.901 428.358 259.156 424.244C260.411 420.13 254.574 358.442 254.574 358.442L253.628 333.402L219.017 318.816L234.491 285.262C236.581 280.557 238.379 275.718 239.873 270.774C242.564 262.064 255.055 253.505 255.055 253.505C255.055 253.505 267.865 244.956 272.928 245.278C277.992 245.6 284.629 237.712 284.629 237.712C289.529 224.718 293.965 230.603 293.965 230.603C293.965 231.22 293.965 230.603 293.724 232.525C292.005 246.789 321.527 291.862 321.948 292.658L324.759 363.897L327.605 454.051L330.485 552.441Z" fill="black"/>
<path d="M329.539 552.441C294.291 558.701 262.001 540.753 262.001 540.753L262.319 534.672C262.319 534.672 263.119 465.73 260.892 460.445C258.666 455.16 256.946 428.358 258.21 424.244C259.474 420.13 253.628 358.442 253.628 358.442L252.674 333.402L218.045 318.762L233.519 285.208C235.605 280.502 237.403 275.663 238.901 270.721C241.583 262.01 254.083 253.452 254.083 253.452C254.083 253.452 266.893 244.902 271.948 245.224C277.003 245.546 283.648 237.659 283.648 237.659C288.557 224.664 293.965 230.549 293.965 230.549C293.965 231.166 293.449 231.443 293.724 232.472C297.507 246.306 320.581 291.808 321.002 292.604L323.848 363.843L326.693 453.997L329.539 552.441Z" fill="white"/>
<path opacity="0.1" d="M320.039 294.634C316.248 292.989 296.165 269.138 296.165 269.138V263.71C295.435 261.921 291.093 263.012 287.568 264.264L289.081 231.292L290.801 232.776C294.566 246.602 319.601 293.838 320.039 294.634Z" fill="black"/>
<path d="M320.994 292.658C317.194 291.012 297.112 267.161 297.112 267.161V261.733C296.381 259.945 292.039 261.036 288.515 262.288L290.036 229.315L291.756 230.799C295.53 244.625 320.573 291.871 320.994 292.658Z" fill="white"/>
<path opacity="0.1" d="M262.956 411.608C263.429 411.608 287.466 408.979 287.466 408.979C287.466 408.979 302.02 438.75 301.066 445.993C300.112 453.237 298.384 459.649 292.529 458.513C286.675 457.378 261.021 459.408 261.021 459.408L262.956 411.608Z" fill="black"/>
<path d="M262.002 409.632C262.475 409.632 286.512 407.002 286.512 407.002C286.512 407.002 301.058 436.782 300.112 444.017C299.166 451.252 297.421 457.673 291.575 456.537C285.729 455.402 260.067 457.432 260.067 457.432L262.002 409.632Z" fill="white"/>
<path d="M280.115 395.654C280.115 395.654 302.175 407.986 302.648 411.751C303.121 415.516 291.42 410.106 288.893 409.453C287.229 409.036 285.536 408.761 283.829 408.63L266.971 409.104L280.115 395.654Z" fill="#CE9578"/>
<path opacity="0.1" d="M313.884 296.172C315.166 296.172 316.205 295.091 316.205 293.758C316.205 292.424 315.166 291.343 313.884 291.343C312.602 291.343 311.562 292.424 311.562 293.758C311.562 295.091 312.602 296.172 313.884 296.172Z" fill="black"/>
<path d="M313.884 295.189C315.166 295.189 316.205 294.108 316.205 292.774C316.205 291.44 315.166 290.359 313.884 290.359C312.602 290.359 311.562 291.44 311.562 292.774C311.562 294.108 312.602 295.189 313.884 295.189Z" fill="#3F3D56"/>
<path opacity="0.1" d="M318.157 400.697C319.439 400.697 320.478 399.616 320.478 398.283C320.478 396.949 319.439 395.868 318.157 395.868C316.875 395.868 315.836 396.949 315.836 398.283C315.836 399.616 316.875 400.697 318.157 400.697Z" fill="black"/>
<path d="M318.157 399.705C319.439 399.705 320.478 398.624 320.478 397.29C320.478 395.957 319.439 394.875 318.157 394.875C316.875 394.875 315.836 395.957 315.836 397.29C315.836 398.624 316.875 399.705 318.157 399.705Z" fill="#3F3D56"/>
<path opacity="0.1" d="M316.197 348.435C317.479 348.435 318.518 347.354 318.518 346.021C318.518 344.687 317.479 343.606 316.197 343.606C314.915 343.606 313.876 344.687 313.876 346.021C313.876 347.354 314.915 348.435 316.197 348.435Z" fill="black"/>
<path d="M316.197 347.451C317.479 347.451 318.518 346.37 318.518 345.037C318.518 343.703 317.479 342.622 316.197 342.622C314.915 342.622 313.876 343.703 313.876 345.037C313.876 346.37 314.915 347.451 316.197 347.451Z" fill="#3F3D56"/>
<path d="M369.704 408.129C369.704 408.129 371.286 410.597 369.704 411.751C368.122 412.904 369.859 415.695 369.859 415.695C369.859 415.695 365.913 418.1 367.649 420.265C369.386 422.429 368.286 432.203 368.286 432.203L363.54 440.377C363.54 440.377 363.824 445.645 363.841 452.763C363.841 463.87 363.213 479.485 359.74 486.603L360.222 545.01C360.222 545.01 343.604 551.323 329.694 549.401L327.631 455.679C327.631 455.679 330.639 402.531 331.749 392.336C332.398 387.043 332.662 381.707 332.539 376.373C332.539 376.373 332.067 360.418 330.476 353.014C330.476 353.014 328.757 320.935 328.585 312.055C328.507 307.807 328.722 295.412 328.963 283.625C329.23 270.738 329.53 258.585 329.53 258.585L326.393 232.758C326.393 232.758 329.53 232.427 330.476 233.742C330.9 234.153 331.36 234.522 331.852 234.842C337.268 238.651 356.405 250.366 356.405 250.366C356.405 250.366 366.996 254.749 369.532 261.026C372.068 267.304 373.831 271.758 375.06 273.547C376.289 275.335 376.96 283.742 376.96 283.742C376.96 283.742 380.605 299.213 383.451 301.833C386.296 304.453 388.377 321.123 388.377 321.123L363.231 341.692C363.231 341.692 361.021 375.908 360.548 377.231C360.076 378.555 369.704 408.129 369.704 408.129Z" fill="white"/>
<path d="M370.658 408.129C370.658 408.129 372.231 410.597 370.658 411.751C369.085 412.905 370.804 415.695 370.804 415.695C370.804 415.695 366.884 418.127 368.603 420.291C370.323 422.456 369.24 432.23 369.24 432.23L364.494 440.404C364.494 440.404 364.778 445.672 364.803 452.79C364.803 463.897 364.176 479.512 360.703 486.63L361.176 545.037C361.176 545.037 344.532 551.35 330.639 549.428L328.584 455.706C328.584 455.706 331.593 402.558 332.702 392.363C333.352 387.07 333.614 381.734 333.485 376.4C333.485 376.4 333.012 360.445 331.43 353.041C331.43 353.041 329.711 320.962 329.53 312.082C329.453 307.834 329.676 295.439 329.908 283.652C330.175 270.765 330.476 258.612 330.476 258.612L326.332 232.436C326.332 232.436 330.476 232.436 331.43 233.769C331.85 234.185 332.311 234.554 332.806 234.869C338.222 238.678 357.367 250.393 357.367 250.393C357.367 250.393 367.95 254.776 370.486 261.053C373.022 267.331 374.785 271.785 376.023 273.574C377.261 275.362 377.914 283.769 377.914 283.769C377.914 283.769 381.559 299.24 384.405 301.86C387.25 304.48 389.305 321.114 389.305 321.114L364.159 341.683C364.159 341.683 361.949 375.899 361.468 377.222C360.986 378.546 370.658 408.129 370.658 408.129Z" fill="white"/>
<path opacity="0.1" d="M340.544 266.205L342.813 273.091L330.863 285.611C331.13 272.733 331.431 260.571 331.431 260.571L327.287 234.395C327.287 234.395 331.431 234.395 332.385 235.727C332.804 236.142 333.265 236.508 333.761 236.818L343.922 267.314L340.544 266.205Z" fill="black"/>
<path d="M339.589 264.228L341.867 271.114L329.917 283.634C330.183 270.747 330.484 258.594 330.484 258.594L326.332 232.418C326.332 232.418 330.484 232.418 331.43 233.75C331.852 234.164 332.313 234.533 332.806 234.85L342.976 265.337L339.589 264.228Z" fill="white"/>
<path opacity="0.1" d="M339.589 196.092C339.596 199.314 339.109 202.517 338.145 205.58C337.983 205.607 337.817 205.599 337.657 205.557C337.498 205.516 337.348 205.441 337.217 205.339C336.993 197.29 333.185 189.733 328.499 183.303C327.184 181.362 325.589 179.643 323.771 178.206C321.933 176.77 319.647 176.097 317.358 176.319C314.779 176.686 312.5 178.51 309.895 178.742C306.457 179.038 303.379 176.56 299.966 176.435C298.579 176.449 297.21 176.77 295.951 177.378C294.693 177.985 293.573 178.865 292.667 179.959C290.874 182.165 289.542 184.736 288.756 187.506C287.404 191.708 286.668 196.098 286.572 200.527C286.529 203.031 286.297 206.17 284.062 207.083C284.23 205.241 284.029 203.383 283.471 201.627C282.913 199.87 282.01 198.253 280.821 196.879L280.769 196.825C280.769 196.575 280.769 196.342 280.769 196.092C280.702 192.029 281.414 187.994 282.862 184.221C284.31 180.448 286.466 177.012 289.204 174.115C291.942 171.218 295.207 168.916 298.809 167.346C302.411 165.775 306.278 164.966 310.184 164.966C314.089 164.966 317.956 165.775 321.558 167.346C325.16 168.916 328.425 171.218 331.163 174.115C333.901 177.012 336.057 180.448 337.505 184.221C338.953 187.994 339.665 192.029 339.598 196.092H339.589Z" fill="black"/>
<path d="M322.36 147.505C317.893 145.319 312.812 144.906 308.072 146.342C305.691 147.076 303.447 148.265 301.031 148.864C295.873 150.161 289.855 148.757 285.428 151.896C282.969 153.685 281.49 156.511 280.115 159.256L276.676 166.071C274.802 169.8 272.911 173.592 272.128 177.696C271.346 181.801 271.819 186.398 274.321 189.698C276.143 192.103 278.834 193.615 280.811 195.877C281.996 197.254 282.894 198.87 283.451 200.624C284.007 202.378 284.209 204.233 284.044 206.072C286.288 205.178 286.502 202.03 286.554 199.526C286.65 195.096 287.386 190.707 288.738 186.505C289.522 183.733 290.855 181.163 292.649 178.957C293.556 177.865 294.676 176.986 295.934 176.378C297.192 175.771 298.561 175.449 299.948 175.434C303.387 175.559 306.473 178.027 309.878 177.732C312.457 177.509 314.744 175.675 317.34 175.318C319.629 175.092 321.917 175.765 323.753 177.205C325.571 178.639 327.163 180.359 328.473 182.302C333.167 188.732 336.975 196.271 337.199 204.337C338.17 205.08 339.572 204.114 340.053 202.969C340.534 201.824 340.552 200.483 341.162 199.392C341.867 198.131 343.217 197.46 344.274 196.512C346.956 194.107 347.627 190.056 347.524 186.38C347.421 182.704 346.733 178.975 347.403 175.362C347.807 173.144 348.719 171.07 349.217 168.879C349.716 166.688 349.776 164.228 348.598 162.341C346.879 159.569 343.26 159.024 340.105 158.764C336.52 158.442 333.313 158.854 331.026 155.715C329.953 154.077 328.745 152.539 327.415 151.118C326.96 150.653 322.36 147.702 322.36 147.505Z" fill="black"/>
<path opacity="0.1" d="M228.92 336.094L219.936 318.816L217.091 345.475C217.091 345.475 218.673 357.315 218.355 359.131C218.036 360.946 224.837 377.222 224.837 377.222C224.837 377.222 247.301 418.843 256.474 420.989L287.466 397.952L279.247 387.095C279.247 387.095 276.401 385.942 275.688 387.095C275.688 387.095 260.428 359.784 258.846 357.807C257.264 355.831 257.574 351.887 257.574 351.887C257.574 351.887 255.201 349.258 255.992 346.789C256.783 344.321 251.41 335.763 251.41 335.763L256.31 330.996L228.92 336.094Z" fill="black"/>
<path d="M220.409 316.849L218.036 318.816L215.19 345.475C215.19 345.475 216.772 357.315 216.454 359.131C216.136 360.946 222.945 377.222 222.945 377.222C222.945 377.222 245.4 418.843 254.573 420.989L285.574 397.952L277.347 387.095C277.347 387.095 274.501 385.942 273.787 387.095C273.787 387.095 258.528 359.784 256.946 357.807C255.364 355.831 255.682 351.887 255.682 351.887C255.682 351.887 253.309 349.258 254.1 346.79C254.891 344.321 249.51 335.763 249.51 335.763L254.41 330.996L220.409 316.849Z" fill="white"/>
<path opacity="0.1" d="M367.649 421.284C369.369 423.457 368.286 433.214 368.286 433.214L363.54 441.388C363.54 441.388 363.824 446.664 363.841 453.774L355.863 456.367C355.142 456.602 354.378 456.653 353.634 456.518C352.89 456.382 352.187 456.063 351.586 455.588C350.984 455.113 350.501 454.495 350.176 453.786C349.85 453.077 349.693 452.297 349.716 451.511L351.092 405.357L369.704 412.762C368.122 413.906 369.859 416.714 369.859 416.714C369.859 416.714 365.913 419.111 367.649 421.284Z" fill="black"/>
<path d="M368.604 420.291C370.324 422.465 369.24 432.23 369.24 432.23L364.495 440.404C364.495 440.404 364.778 445.672 364.804 452.79L356.68 455.428C355.974 455.657 355.226 455.706 354.497 455.573C353.769 455.439 353.082 455.127 352.493 454.661C351.905 454.196 351.431 453.591 351.113 452.897C350.794 452.203 350.64 451.44 350.662 450.671L352.046 404.373L370.667 411.778C369.077 412.923 370.814 415.722 370.814 415.722C370.814 415.722 366.885 418.127 368.604 420.291Z" fill="white"/>
<path d="M374.768 398.292C374.768 398.292 373.504 406.689 370.34 407.181C367.177 407.673 365.758 420.765 362.603 420.3C359.448 419.835 361.537 408.129 361.649 405.858C361.761 403.586 358.21 394.178 360.867 392.041C363.523 389.903 371.931 392.041 371.931 392.041L374.768 398.292Z" fill="#CE9578"/>
<path opacity="0.1" d="M381.499 333.626L387.465 321.105C387.465 321.105 389.838 330.648 389.838 335.745C389.838 340.843 393.157 341.343 393.157 341.343C393.157 341.343 396.793 345.815 394.876 349.07C392.959 352.325 392.185 360.428 392.185 360.428C392.185 360.428 392.813 375.89 389.967 378.027C387.122 380.165 386.528 385.271 386.528 385.271C386.528 385.271 381.301 394.974 381.465 397.281C381.628 399.589 374.192 415.212 374.192 415.212C374.192 415.212 377.828 395.797 356.637 387.408C356.637 387.408 356.473 380.818 358.055 379.011C359.637 377.205 362.104 376.382 360.557 367.251C359.009 358.12 360.11 347.21 360.11 345.019C360.11 342.828 364.855 329.163 364.855 329.163L381.499 333.626Z" fill="black"/>
<path d="M384.079 319.317L389.288 321.105C389.288 321.105 391.67 330.648 391.67 335.745C391.67 340.843 394.988 341.343 394.988 341.343C394.988 341.343 398.625 345.815 396.708 349.07C394.79 352.325 394.025 360.428 394.025 360.428C394.025 360.428 394.653 375.89 391.807 378.027C388.962 380.165 388.326 385.271 388.326 385.271C388.326 385.271 383.107 394.974 383.27 397.281C383.434 399.589 375.989 415.212 375.989 415.212C375.989 415.212 379.634 395.797 358.434 387.408C358.434 387.408 358.279 380.818 359.861 379.011C361.443 377.205 363.91 376.382 362.363 367.251C360.815 358.12 361.916 347.21 361.916 345.019C361.916 342.828 366.661 329.163 366.661 329.163L384.079 319.317Z" fill="white"/>
<path opacity="0.1" d="M269.008 643.83C269.008 643.83 277.312 638.401 282.763 642.345C288.213 646.289 269.008 643.83 269.008 643.83Z" fill="black"/>
<path opacity="0.1" d="M333.537 627.043C333.537 627.043 340.888 626.06 347.06 632.973C353.233 639.885 333.537 627.043 333.537 627.043Z" fill="black"/>
<g opacity="0.1">
<path d="M344.292 194.554C343.235 195.502 341.877 196.181 341.172 197.442C340.57 198.524 340.553 199.857 340.071 201.019C339.59 202.182 338.188 203.13 337.217 202.397C336.993 194.348 333.176 186.791 328.491 180.352C327.181 178.409 325.589 176.689 323.771 175.255C321.931 173.816 319.641 173.143 317.349 173.368C314.77 173.734 312.501 175.559 309.896 175.782C306.457 176.086 303.371 173.609 299.958 173.484C298.571 173.498 297.203 173.821 295.945 174.43C294.688 175.039 293.57 175.921 292.667 177.016C290.873 179.218 289.54 181.786 288.756 184.555C287.405 188.757 286.669 193.147 286.572 197.576C286.521 200.071 286.297 203.184 284.079 204.114C284.131 204.774 284.131 205.438 284.079 206.099C286.314 205.205 286.538 202.057 286.589 199.553C286.685 195.123 287.421 190.734 288.773 186.532C289.558 183.76 290.89 181.189 292.685 178.984C293.59 177.892 294.708 177.012 295.965 176.405C297.222 175.797 298.589 175.475 299.975 175.46C303.414 175.586 306.509 178.054 309.913 177.759C312.492 177.535 314.779 175.702 317.367 175.344C319.658 175.119 321.949 175.792 323.789 177.231C325.606 178.666 327.198 180.385 328.508 182.329C333.194 188.759 337.011 196.297 337.234 204.364C338.206 205.106 339.607 204.14 340.088 202.996C340.57 201.851 340.587 200.51 341.189 199.419C341.894 198.158 343.252 197.487 344.309 196.539C346.992 194.133 347.662 190.082 347.559 186.407C347.559 186.29 347.559 186.174 347.559 186.067C347.396 189.25 346.579 192.497 344.292 194.554Z" fill="black"/>
<path d="M280.829 193.919C278.852 191.656 276.152 190.145 274.338 187.748C272.811 185.626 271.939 183.072 271.837 180.424C271.566 183.734 272.455 187.033 274.338 189.716C276.152 192.121 278.852 193.633 280.829 195.895C282.728 198.108 283.867 200.914 284.07 203.872C284.202 202.072 283.983 200.262 283.426 198.552C282.869 196.841 281.986 195.265 280.829 193.919Z" fill="black"/>
<path d="M349.235 166.92C348.728 169.111 347.825 171.195 347.412 173.404C347.168 174.88 347.078 176.379 347.146 177.875C347.174 177.023 347.264 176.174 347.412 175.335C347.825 173.118 348.728 171.043 349.235 168.852C349.53 167.643 349.626 166.391 349.518 165.149C349.465 165.746 349.37 166.338 349.235 166.92Z" fill="black"/>
</g>
<path opacity="0.15" d="M114.108 680.192C160.372 680.192 197.877 673.926 197.877 666.196C197.877 658.466 160.372 652.2 114.108 652.2C67.8435 652.2 30.3389 658.466 30.3389 666.196C30.3389 673.926 67.8435 680.192 114.108 680.192Z" fill="#090278"/>
<path d="M116.807 398.086H111.417V524.334H116.807V398.086Z" fill="#535461"/>
<path d="M150.679 523.949L150.344 529.637L149.863 537.686L149.665 541.03L149.192 549.079L148.986 552.424L148.504 560.472L143.071 651.753C142.835 655.68 141.169 659.366 138.412 662.061C135.656 664.756 132.016 666.257 128.233 666.258H99.9831C96.2012 666.257 92.562 664.756 89.8067 662.061C87.0515 659.366 85.3874 655.679 85.1534 651.753L79.7459 560.41L79.2644 552.361L79.0667 549.016L78.5853 540.968L78.3875 537.623L77.9061 529.574L77.5622 523.887C77.5025 522.792 77.6584 521.696 78.0204 520.666C78.3824 519.637 78.9429 518.695 79.6674 517.898C80.3919 517.102 81.2652 516.468 82.2337 516.035C83.2022 515.602 84.2455 515.38 85.2995 515.382H143.08C144.13 515.391 145.167 515.624 146.127 516.067C147.087 516.509 147.95 517.152 148.662 517.955C149.374 518.758 149.92 519.704 150.267 520.735C150.614 521.766 150.755 522.86 150.679 523.949Z" fill="#18181B"/>
<path d="M150.344 529.637L149.862 537.659H78.3525L77.8711 529.637H150.344Z" fill="#2864AE"/>
<path d="M149.665 541.003L149.192 549.034H79.0322L78.5508 541.003H149.665Z" fill="#2864AE"/>
<path d="M148.985 552.388L148.512 560.41H79.7109L79.2295 552.388H148.985Z" fill="#2864AE"/>
<path opacity="0.3" d="M0.413086 420.435C0.413086 420.435 39.6841 443.105 52.2786 461.876C64.8732 480.647 114.134 505.983 114.134 505.983" stroke="#110000" stroke-width="2" stroke-miterlimit="10"/>
<path opacity="0.3" d="M52.2354 384.216C52.2354 384.216 73.6074 396.557 80.4592 406.77C87.311 416.983 114.134 430.773 114.134 430.773" stroke="#110000" stroke-width="2" stroke-miterlimit="10"/>
<path opacity="0.3" d="M186.236 400.25C186.236 400.25 160.669 423.252 154.169 439.099C147.67 454.946 115.156 481.515 115.156 481.515" stroke="#110000" stroke-width="2" stroke-miterlimit="10"/>
<path d="M859.413 421.857C859.413 421.857 845.22 348.399 850.653 339.26C850.653 339.26 850.851 330.764 850.524 319.934C850.524 319.523 850.524 319.111 850.524 318.691C851.48 319.354 852.477 319.951 853.507 320.479C858.513 323.155 864.26 323.927 869.755 322.662L865.457 317.68C864.425 316.491 863.351 315.203 863.127 313.629C862.904 312.055 863.523 310.651 864.056 309.247C868.139 298.516 868.354 285.021 860.488 276.829C853.843 269.943 852.226 261.054 845.013 254.767C839.744 250.161 836.846 243.409 834.112 236.881C831.8 231.363 829.47 225.8 828.146 219.952C827.115 215.382 826.702 210.651 825.283 206.189C823.865 201.726 821.208 197.389 817.056 195.394C815.577 194.688 813.935 194.286 812.586 193.347C810.815 192.103 809.749 190.082 808.468 188.312C801.96 179.369 780.166 184.636 769.85 188.267C767.045 189.181 764.448 190.678 762.216 192.667L762.311 192.506C762.388 192.372 762.483 192.238 762.568 192.103C761.439 193.053 760.464 194.186 759.68 195.457C758.175 197.934 757.548 200.823 756.293 203.506C754.78 206.68 746.363 215.543 749.983 219.111C750.236 219.351 750.527 219.544 750.842 219.684C752.201 220.272 753.697 220.427 755.141 220.131L754.986 220.515C753.75 223.663 753.116 227.032 753.12 230.433C753.12 245.126 764.769 257.038 779.152 257.038C781.856 257.041 784.544 256.61 787.121 255.759C787.182 256.099 787.233 256.439 787.293 256.779C787.293 256.913 787.336 257.047 787.354 257.181L786.898 257.843C786.875 257.802 786.849 257.763 786.821 257.727L773.323 277.348C771.26 278.859 759.379 287.802 758.708 294.509C758.004 301.851 757.299 310.445 757.299 310.445L757.204 312.288C756.614 312.8 755.924 313.174 755.182 313.382C754.44 313.591 753.663 313.629 752.906 313.495C748.693 312.78 748.693 329.592 748.693 329.592C748.693 329.592 745.89 332.275 743.965 329.95C742.039 327.625 736.95 335.504 736.95 335.504L705.055 336.934L704.324 336.979L702.605 331.443C702.42 330.86 702.021 330.375 701.494 330.096C700.968 329.816 700.357 329.764 699.793 329.95C699.66 329.996 699.531 330.052 699.406 330.12L699.286 330.191L699.063 330.352L698.951 330.46C698.889 330.518 698.832 330.581 698.779 330.648L698.676 330.773L698.624 330.826C698.426 331.112 698.294 331.442 698.24 331.79C698.187 332.138 698.212 332.494 698.315 332.83L699.793 337.578C693.638 338.866 687.345 342.497 692.477 352.495L666.463 347.496L674.879 354.847L718.328 364.175C717.752 365.248 718.131 366.804 719.927 368.995C727.665 378.448 741.764 381.014 747.438 381.676C748.936 385.163 750.808 388.463 753.017 391.513L752.527 400.93C752.527 400.93 738.162 472.706 735.531 476.346C736.859 474.781 738.074 473.116 739.168 471.365C734.998 486.112 729.169 506.296 727.639 509.319C725.18 514.148 722.902 533.688 725.705 534.94C726.564 535.325 729.023 535.137 732.531 534.86V536.478L732.376 597.818C732.376 597.818 733.081 635.441 731.147 639.027C729.212 642.613 728.696 650.134 728.696 650.134C728.696 650.134 720.959 664.971 714.829 670.936C714.788 670.982 714.742 671.024 714.692 671.061L714.503 669.666C714.503 669.666 707.135 679.342 690.835 678.796C690.835 678.796 681.026 685.432 695.572 685.79C710.118 686.147 728.696 685.253 728.696 685.253C728.696 685.253 741.669 664.684 752.536 667.367V682.955H755.863V667.117C757.406 666.06 758.726 664.689 759.745 663.085C760.763 661.482 761.457 659.68 761.786 657.789C762.071 655.84 761.862 653.848 761.181 652.008C760.499 650.169 759.369 648.546 757.9 647.299C757.241 646.679 756.711 645.923 756.346 645.08C755.981 644.237 755.787 643.324 755.777 642.399L755.656 642.506C755.656 642.193 755.579 641.871 755.545 641.54C754.591 633.491 753.396 616.884 757.617 604.597C763.402 587.748 765.156 564.282 760.944 550.313C759.584 545.848 758.468 541.307 757.599 536.711C757.496 536.13 757.402 535.575 757.316 535.056C760.195 535.462 763.047 536.059 765.853 536.845C775.61 539.644 796.956 540.163 815.182 540.011C815.225 540.53 815.277 541.075 815.337 541.621C815.662 545.413 816.341 549.162 817.366 552.817C819.652 559.971 820.701 591.513 820.701 591.513C820.701 591.513 823.65 617.448 822.042 628C821.183 633.867 820.323 639.76 819.833 645.681V645.797C819.833 645.797 815.001 660.106 811.468 667.877C811.382 668.074 811.288 668.271 811.202 668.458C810.26 668.548 809.332 668.761 808.442 669.093C808.442 669.093 803.705 678.931 798.985 680.558C794.266 682.186 795.83 687.543 806.516 685.575C817.202 683.608 833.339 681.998 833.339 681.998L834.035 671.964L837.319 667.689L836.459 677.696L839.958 676.981L839.494 664.81L844.867 657.816C844.867 657.816 851.358 651.807 841.712 639.984V640.243C841.609 640.073 841.514 639.895 841.403 639.725V639.671C839.804 637.095 838.531 632.293 840.861 623.77C845.074 608.371 847.524 594.393 847.524 594.393C847.524 594.393 856.929 556.949 845.624 539.233H846.122C844.964 536.74 844.145 534.091 843.69 531.363C843.632 531.041 843.581 530.71 843.535 530.37C851.9 529.87 860.11 528.296 866.807 524.897C866.781 524.862 862.749 436.004 859.413 421.857ZM753.215 359.882V360.061L751.496 360.15L753.215 359.882ZM747.317 360.732C747.035 360.797 746.77 360.928 746.544 361.116C745.805 362.204 745.34 363.468 745.194 364.792L742.512 364.166C742.512 364.166 740.629 363.745 737.921 363.271L736.64 361.93C740.165 361.626 743.827 361.179 747.317 360.732Z" fill="url(#paint1_linear_100_669)"/>
<path d="M836.064 664.935L835.041 677.607L838.471 676.891L837.955 663.146L836.064 664.935Z" fill="#1D2366"/>
<path d="M757.806 604.766C753.671 617.018 754.841 633.554 755.769 641.584C756.113 644.553 756.431 646.36 756.431 646.36C756.431 646.36 750.25 661.009 749.734 661.563C749.218 662.117 731.543 673.341 731.543 673.341L719.189 680.844C719.189 680.844 706.655 675.129 712.664 673.162C713.892 672.649 714.997 671.865 715.905 670.864C721.923 664.917 729.479 650.134 729.479 650.134C729.479 650.134 729.995 642.631 731.887 639.062C733.778 635.494 733.09 597.997 733.09 597.997L733.236 536.872V528.903L756.749 529.082C756.897 531.787 757.236 534.477 757.763 537.131C758.607 541.711 759.701 546.237 761.039 550.688C765.183 564.63 763.463 587.98 757.806 604.766Z" fill="#F2C6A5"/>
<path opacity="0.1" d="M756.431 646.36C756.431 646.36 750.25 661.009 749.734 661.563C749.218 662.118 731.543 673.341 731.543 673.341L719.189 680.844C719.189 680.844 706.655 675.13 712.664 673.162C713.892 672.65 714.997 671.865 715.905 670.864L716.438 674.772L720.556 674.593L755.803 641.603C756.113 644.554 756.431 646.36 756.431 646.36Z" fill="black"/>
<path d="M756.001 642.434L720.556 675.648L716.438 675.827L715.578 669.567C715.578 669.567 708.374 679.207 692.366 678.671C692.366 678.671 682.755 685.28 697 685.637C711.245 685.995 729.436 685.101 729.436 685.101C729.436 685.101 742.143 664.532 752.777 667.215V682.749H756.044V667.072C757.563 666.008 758.859 664.636 759.855 663.038C760.851 661.439 761.525 659.648 761.838 657.771C762.121 655.838 761.921 653.862 761.257 652.032C760.593 650.203 759.487 648.582 758.047 647.326C757.404 646.698 756.89 645.941 756.538 645.1C756.187 644.259 756.004 643.351 756.001 642.434Z" fill="#18181B"/>
<path d="M839.331 623.869C837.044 632.364 838.291 637.149 839.855 639.715V639.769C841.862 642.938 843.258 646.483 843.965 650.205L844.102 651.01L827.974 675.469L819.223 679.046C819.223 679.046 805.149 674.047 807.72 672.617C808.365 672.268 809.37 670.408 810.522 667.841C813.961 660.105 818.707 645.832 818.707 645.832V645.716C819.205 639.823 819.996 633.947 820.873 628.099C822.447 617.573 819.558 591.737 819.558 591.737C819.558 591.737 818.526 560.32 816.291 553.175C815.282 549.542 814.611 545.816 814.288 542.05C813.824 537.578 813.721 533.894 813.721 533.894C813.721 533.894 822.988 520.479 839.976 534.967C841.334 536.122 842.529 537.471 843.526 538.973C855.261 556.34 845.813 594.598 845.813 594.598C845.813 594.598 843.449 608.513 839.331 623.869Z" fill="#F2C6A5"/>
<path opacity="0.1" d="M844.129 651.011L828.001 675.47L819.249 679.047C819.249 679.047 805.176 674.048 807.746 672.617C808.391 672.268 809.397 670.408 810.549 667.841C816.507 667.788 819.593 673.69 819.593 673.69L827.141 672.438C827.141 672.438 837.096 652.084 839.332 650.841C841.567 649.598 839.675 641.549 839.675 641.549V639.501C839.736 639.573 839.787 639.653 839.856 639.725V639.778C841.863 642.947 843.258 646.492 843.965 650.215L844.129 651.011Z" fill="black"/>
<path d="M820.108 674.217C820.108 674.217 815.81 666.008 807.574 669.039C807.574 669.039 802.94 678.877 798.306 680.469C793.673 682.06 795.22 687.426 805.691 685.468C816.162 683.509 831.946 681.89 831.946 681.89L832.634 671.883L843.277 657.78C843.277 657.78 849.622 651.797 840.182 640.02V642.068C840.182 642.068 842.074 650.116 839.838 651.359C837.603 652.602 827.682 672.965 827.682 672.965L820.108 674.217Z" fill="#18181B"/>
<path opacity="0.1" d="M756.775 529.065C756.923 531.77 757.262 534.46 757.789 537.113C748.109 535.638 739.125 536.371 733.236 536.854V528.886L756.775 529.065Z" fill="black"/>
<path opacity="0.1" d="M844.481 541.2C844.481 541.2 830.725 541.898 814.322 542.041C813.858 537.569 813.755 533.885 813.755 533.885C813.755 533.885 823.022 520.47 840.01 534.958C841.368 536.113 842.564 537.462 843.561 538.964C843.827 539.727 844.134 540.473 844.481 541.2Z" fill="black"/>
<path d="M844.481 539.59C844.481 539.59 784.233 542.622 765.87 537.265C747.507 531.908 729.307 536.55 726.565 535.307C723.822 534.063 726.049 514.595 728.456 509.774C730.863 504.954 744.068 456.206 744.068 456.206L756.774 387.292L770.16 383.455L771.105 383.178L794.429 376.489L811.52 371.579C811.52 371.579 845.504 509.596 842.589 519.773C841.531 523.67 841.36 527.77 842.091 531.747C842.536 534.464 843.34 537.103 844.481 539.59Z" fill="#282B34"/>
<path d="M712.483 340.163C712.483 340.163 700.447 353.577 709.56 361.053C718.672 368.53 724.664 361.769 724.664 361.769L712.483 340.163Z" fill="#C7DAF5"/>
<path opacity="0.1" d="M712.483 340.163C712.483 340.163 700.447 353.577 709.56 361.053C718.672 368.53 724.664 361.769 724.664 361.769L712.483 340.163Z" fill="black"/>
<path d="M809.724 251.967C809.724 251.967 808.314 253.362 806.19 255.419C803.164 258.361 798.685 262.663 794.713 266.267C789.211 271.248 784.672 274.906 786.297 271.785C787.922 268.664 787.612 263.226 786.804 258.138C786.744 257.798 786.692 257.458 786.632 257.127C785.963 253.39 785.076 249.699 783.976 246.074C783.976 246.074 792.865 234.126 797.782 229.413C799.613 227.625 800.894 226.891 800.972 228.134C801.058 229.807 802.261 233.5 803.757 237.417C803.8 237.542 803.843 237.659 803.895 237.784C804.892 240.467 806.018 243.221 807.007 245.6C808.52 249.249 809.724 251.967 809.724 251.967Z" fill="#F2C6A5"/>
<path opacity="0.1" d="M803.895 237.784C803.059 242.458 801.033 246.813 798.026 250.393C795.02 253.974 791.144 256.649 786.804 258.138C786.12 254.056 785.176 250.025 783.976 246.074C783.976 246.074 800.714 223.583 800.972 228.135C801.032 229.861 802.339 233.688 803.895 237.784Z" fill="black"/>
<path opacity="0.1" d="M785.136 264.148L787.303 260.973C787.303 260.973 788.738 270.077 794.017 266.062C799.296 262.046 799.553 296.28 799.553 296.28L793.888 384.395L752.949 381.846L754.11 339.269L758.744 317.806L770.203 286.604L777.021 276.292L785.136 264.148Z" fill="black"/>
<path d="M799.553 296.825L794.395 376.498L793.853 384.94L771.028 383.518L770.169 383.464L752.975 382.391L754.135 339.805L758.769 318.342L770.229 287.14L777.046 276.829L785.162 264.639L787.328 261.474C787.328 261.474 788.764 270.578 794.042 266.562L794.154 266.482C799.312 263.083 799.553 296.825 799.553 296.825Z" fill="#282B34"/>
<path d="M759.345 310.884C759.345 310.884 757.29 315.355 753.164 314.631C749.037 313.907 749.046 330.728 749.046 330.728C749.046 330.728 746.303 333.411 744.412 331.086C742.521 328.761 737.534 336.622 737.534 336.622L706.293 338.052C706.293 338.052 720.194 344.661 717.469 364.658C717.469 364.658 764.666 361.617 766.214 356.976C767.761 352.334 759.345 310.884 759.345 310.884Z" fill="white"/>
<path opacity="0.03" d="M759.345 310.884C759.345 310.884 757.29 315.355 753.164 314.631C749.037 313.907 749.046 330.728 749.046 330.728C749.046 330.728 746.303 333.411 744.412 331.086C742.521 328.761 737.534 336.622 737.534 336.622L706.293 338.052C706.293 338.052 720.194 344.661 717.469 364.658C717.469 364.658 764.666 361.617 766.214 356.976C767.761 352.334 759.345 310.884 759.345 310.884Z" fill="black"/>
<path d="M668.553 348.56L676.789 355.875L744.584 370.694L736.177 361.769L668.553 348.56Z" fill="white"/>
<path d="M785.265 266.965C784.138 268.753 780.915 277.911 778.224 285.906C775.98 292.568 774.106 298.426 774.106 298.426C774.106 298.426 769.73 328.063 767.495 333.42C765.26 338.777 766.472 359.667 766.472 359.667L758.141 411.259C758.141 411.259 754.367 437.864 748.538 453.756C742.787 469.397 736.382 476.73 736.185 476.963C738.764 473.332 752.82 401.842 752.82 401.842L757.462 311.679C757.462 311.679 758.141 303.112 758.829 295.788C759.517 288.464 773.444 278.465 773.444 278.465L786.872 258.603C788.222 260.481 787.319 263.754 785.265 266.965Z" fill="white"/>
<path d="M750.249 382.839C750.249 382.839 730.476 381.944 720.899 369.979C711.322 358.013 743.036 365.203 743.036 365.203L751.281 367.171L750.249 382.839Z" fill="#F2C6A5"/>
<path opacity="0.1" d="M842.59 519.782C841.531 523.679 841.361 527.779 842.091 531.757C820.521 533.348 797.447 527.285 797.447 527.285C793.148 531.399 781.826 537.462 781.826 537.462L775.654 457.87C771.708 447.138 770.16 390.914 770.16 390.914C770.16 390.914 770.513 387.972 771.02 383.563C771.02 383.456 771.02 383.339 771.063 383.232C772.602 370.918 775.654 347.8 777.149 344.679C779.213 340.386 770.805 328.966 770.805 328.966L774.631 295.028L775.095 290.932C783.159 287.185 789.34 275.219 789.34 275.219L794.085 266.571C799.244 263.128 799.51 296.87 799.51 296.87L794.352 376.543L811.443 371.633C811.443 371.633 845.504 509.605 842.59 519.782Z" fill="black"/>
<path d="M864.726 525.282C841.214 537.426 798.478 526.176 798.478 526.176C794.18 530.29 782.858 536.353 782.858 536.353L776.676 456.761C772.739 446.029 771.191 389.805 771.191 389.805C771.191 389.805 776.16 347.854 778.224 343.57C778.826 342.318 778.533 340.458 777.82 338.455C774.312 328.92 773.021 318.657 774.054 308.505L775.705 293.919L776.16 289.832C784.233 286.076 790.414 274.11 790.414 274.11L794.713 266.276L802.622 251.842L806.37 245.01L807.006 245.609L811.864 250.188C811.864 250.188 813.927 251.976 817.022 254.659C823.753 260.562 835.385 270.953 841.386 277.312C846.664 282.91 848.332 304.686 848.813 321.078C849.132 331.873 848.942 340.333 848.942 340.333C843.621 349.445 857.539 422.608 857.539 422.608C860.78 436.746 864.726 525.282 864.726 525.282Z" fill="white"/>
<path opacity="0.03" d="M819.593 273.931C819.593 273.931 803.456 305.884 805.331 318.029C807.205 330.173 812.535 343.919 809.964 347.129C809.081 348.346 807.939 349.333 806.629 350.014C805.318 350.695 803.873 351.051 802.408 351.055C799.828 351.234 792.951 356.233 792.951 356.77C792.951 357.306 786.598 357.306 780.915 359.81C775.233 362.314 766.842 363.736 766.842 363.736C766.842 363.736 750.508 363.2 748.986 364.809C747.464 366.419 745.9 376.051 749.158 383.733C752.416 391.415 756.036 397.147 758.769 398.194C761.503 399.24 778.852 393.194 792.925 391.764C806.998 390.333 822.275 378.734 822.275 378.734C822.275 378.734 839.099 372.474 842.048 361.948C844.997 351.422 838.446 293.57 838.446 293.57C838.446 293.57 833.494 266.607 819.593 273.931Z" fill="black"/>
<path opacity="0.03" d="M817.529 271.249C817.529 271.249 801.392 303.211 803.284 315.346C805.175 327.482 810.488 341.236 807.909 344.456C807.029 345.673 805.889 346.662 804.579 347.343C803.269 348.024 801.825 348.38 800.361 348.382C797.782 348.56 790.904 353.559 790.904 354.096C790.904 354.633 784.551 354.633 778.868 357.128C773.186 359.623 764.795 361.054 764.795 361.054C764.795 361.054 748.461 360.517 746.948 362.127C745.435 363.737 743.853 373.377 747.12 381.05C750.387 388.723 753.997 394.465 756.731 395.511C759.465 396.557 776.814 390.512 790.887 389.09C804.96 387.668 820.237 376.051 820.237 376.051C820.237 376.051 837.053 369.791 839.967 359.274C842.881 348.757 836.365 290.887 836.365 290.887C836.365 290.887 831.43 263.933 817.529 271.249Z" fill="black"/>
<path d="M819.086 272.322C819.086 272.322 802.949 304.284 804.84 316.419C806.732 328.555 812.045 342.309 809.474 345.52C808.594 346.74 807.453 347.731 806.142 348.414C804.83 349.097 803.384 349.453 801.917 349.455C799.338 349.633 792.461 354.633 792.461 355.16C792.461 355.688 786.116 355.697 780.425 358.201C774.734 360.705 766.352 362.127 766.352 362.127C766.352 362.127 750.017 361.59 748.496 363.2C746.974 364.81 745.409 374.45 748.668 382.123C751.926 389.796 755.545 395.538 758.279 396.584C761.013 397.63 778.362 391.585 792.435 390.154C806.508 388.723 821.785 377.124 821.785 377.124C821.785 377.124 838.609 370.864 841.558 360.338C844.507 349.812 837.999 291.96 837.999 291.96C837.999 291.96 832.978 265.042 819.086 272.322Z" fill="white"/>
<path opacity="0.1" d="M818.733 358.049C818.733 358.049 805.838 355.366 810.325 359.837C814.813 364.309 814.787 368.226 820.281 368.047C825.774 367.868 818.733 358.049 818.733 358.049Z" fill="black"/>
<path opacity="0.1" d="M840.526 454.257C840.526 454.257 834.697 458.362 845.847 467.823C856.997 477.285 840.526 454.257 840.526 454.257Z" fill="black"/>
<path opacity="0.1" d="M829.402 487.999C829.402 488.535 827.338 507.673 835.059 512.457C842.779 517.242 829.402 487.999 829.402 487.999Z" fill="black"/>
<path d="M706.826 338.007C700.602 338.231 687.156 340.207 694.128 353.738C700.293 365.713 710.652 357.709 716.481 351.636C715.059 345.975 711.603 341.097 706.826 338.007Z" fill="#F2C6A5"/>
<path opacity="0.1" d="M817.022 255.205C810.42 259.9 804.883 263.862 803.8 264.684C800.843 266.965 795.203 280.352 791.567 287.185C788.669 292.685 779.256 294.098 775.705 294.447L776.161 290.36C784.233 286.604 790.415 274.638 790.415 274.638L806.371 245.538L811.864 250.733C811.864 250.733 813.927 252.522 817.022 255.205Z" fill="black"/>
<path d="M817.022 254.668C810.42 259.363 804.883 263.325 803.8 264.157C800.843 266.428 795.203 279.816 791.567 286.648C788.669 292.148 779.256 293.561 775.705 293.91L776.161 289.823C784.233 286.067 790.415 274.101 790.415 274.101L806.371 245.001L811.864 250.179C811.864 250.179 813.927 251.95 817.022 254.668Z" fill="#DCE7FF"/>
<path d="M804.316 231.882C804.319 237.25 802.754 242.493 799.828 246.915C796.372 252.143 791.229 255.909 785.332 257.531C779.435 259.152 773.174 258.52 767.687 255.75C762.199 252.981 757.847 248.256 755.421 242.435C752.996 236.613 752.657 230.08 754.465 224.02C756.274 217.96 760.111 212.776 765.281 209.408C770.45 206.039 776.608 204.71 782.639 205.661C788.67 206.612 794.173 209.78 798.15 214.591C802.127 219.402 804.315 225.536 804.316 231.882Z" fill="#F2C6A5"/>
<path opacity="0.1" d="M848.814 321.088C845.323 318.853 842.479 315.676 840.587 311.894C839.151 308.943 838.197 305.536 835.746 303.443C833.537 301.565 830.588 301.109 827.837 300.268C818.793 297.487 811.211 288.902 810.927 279.1C810.789 274.486 812.173 269.88 811.546 265.31C811.189 262.724 810.2 260.276 808.675 258.201C807.917 257.208 807.086 256.278 806.19 255.419C804.986 254.239 803.723 253.094 802.622 251.842C801.929 251.067 801.323 250.212 800.817 249.294C800.408 248.542 800.077 247.748 799.828 246.924C798.109 241.451 799.673 234.958 797.782 229.422L797.679 229.118C796.965 227.151 795.513 225.183 793.492 225.031C791.472 224.879 789.744 226.623 787.818 227.401C783.786 229.029 779.436 226.257 776.075 223.431C772.713 220.605 768.922 217.376 764.649 218.002C761.821 218.423 759.586 220.426 756.981 221.463C756.393 221.7 755.786 221.883 755.167 222.009C757.371 216.29 761.422 211.548 766.622 208.598C771.822 205.648 777.848 204.674 783.663 205.843C789.479 207.012 794.721 210.252 798.49 215.005C802.259 219.759 804.319 225.729 804.316 231.891C804.319 233.751 804.131 235.607 803.757 237.426C803.8 237.551 803.843 237.668 803.895 237.793C804.892 240.476 806.018 243.23 807.007 245.609L811.864 250.188C811.864 250.188 813.927 251.976 817.022 254.659C823.754 260.562 835.385 270.953 841.386 277.312C846.665 282.928 848.315 304.695 848.814 321.088Z" fill="black"/>
<path d="M756.68 205.124C757.91 202.522 758.52 199.607 759.99 197.138C762.148 193.561 765.913 191.272 769.782 189.886C779.883 186.264 801.23 181.005 807.609 189.886C808.864 191.674 809.904 193.66 811.641 194.894C812.965 195.833 814.564 196.235 816.017 196.942C820.083 198.927 822.679 203.255 824.063 207.673C825.447 212.091 825.86 216.831 826.875 221.383C828.173 227.222 830.451 232.758 832.72 238.258C835.394 244.751 838.231 251.485 843.389 256.072C850.43 262.332 851.986 271.195 858.52 278.063C866.257 286.219 866.008 299.678 862.019 310.365C861.494 311.769 860.901 313.236 861.108 314.729C861.314 316.223 862.38 317.582 863.386 318.771L867.616 323.735C857.609 326.248 846.286 320.81 841.627 311.268C840.191 308.317 839.237 304.919 836.778 302.817C834.577 300.939 831.62 300.492 828.878 299.651C819.834 296.861 812.251 288.267 811.967 278.466C811.83 273.86 813.214 269.254 812.586 264.693C812.237 262.09 811.245 259.625 809.706 257.539C807.342 254.328 803.774 252.173 801.849 248.596C798.59 242.613 801.066 234.842 798.719 228.421C797.997 226.453 796.553 224.486 794.533 224.334C792.512 224.182 790.784 225.926 788.85 226.704C784.827 228.331 780.477 225.568 777.115 222.733C773.754 219.898 769.963 216.679 765.681 217.314C762.853 217.725 760.626 219.728 758.021 220.775C756.096 221.544 752.193 222.232 750.508 220.542C746.948 217.135 755.193 208.308 756.68 205.124Z" fill="#9E5161"/>
<path opacity="0.1" d="M844.017 308.317C842.572 305.366 841.627 301.967 839.168 299.875C836.967 297.997 834.01 297.541 831.259 296.7C822.223 293.919 814.641 285.325 814.349 275.523C814.211 270.917 815.595 266.303 814.976 261.742C814.616 259.155 813.624 256.707 812.096 254.632C809.723 251.422 806.156 249.267 804.238 245.689C800.98 239.716 803.456 231.944 801.101 225.514C800.387 223.556 798.934 221.588 796.922 221.427C794.911 221.266 793.166 223.028 791.24 223.806C787.216 225.434 782.858 222.661 779.505 219.835C776.152 217.009 772.344 213.781 768.071 214.407C765.243 214.827 763.007 216.831 760.411 217.868C758.485 218.637 754.574 219.335 752.889 217.644C749.347 214.067 757.591 205.258 759.07 202.093C760.299 199.481 760.91 196.575 762.388 194.107C762.466 193.972 762.552 193.838 762.638 193.704C761.532 194.657 760.577 195.786 759.809 197.049C758.339 199.517 757.729 202.415 756.5 205.035C755.012 208.201 746.768 217.036 750.318 220.587C752.038 222.286 755.906 221.588 757.832 220.819C760.411 219.773 762.664 217.77 765.492 217.358C769.79 216.723 773.573 219.952 776.926 222.778C780.279 225.604 784.663 228.376 788.669 226.748C790.595 225.97 792.28 224.217 794.343 224.378C796.407 224.539 797.782 226.498 798.53 228.465C800.877 234.886 798.401 242.658 801.659 248.641C803.585 252.155 807.153 254.355 809.517 257.584C811.056 259.669 812.048 262.134 812.397 264.738C813.025 269.299 811.64 273.904 811.778 278.51C812.062 288.347 819.644 296.906 828.688 299.696C831.414 300.537 834.388 300.984 836.589 302.862C839.056 304.963 840.028 308.362 841.438 311.313C846.097 320.855 857.419 326.292 867.426 323.779L865.432 321.436C856.757 321.57 847.98 316.437 844.017 308.317Z" fill="black"/>
<path opacity="0.1" d="M784.749 267.501C783.623 269.29 780.399 278.448 777.708 286.443C775.189 285.423 772.902 278.922 772.902 278.922L786.331 259.05C787.706 261.018 786.804 264.282 784.749 267.501Z" fill="black"/>
<path d="M785.265 266.965C784.138 268.753 780.915 277.911 778.224 285.906C775.705 284.895 773.418 278.385 773.418 278.385L786.846 258.522C788.222 260.481 787.319 263.754 785.265 266.965Z" fill="#DCE7FF"/>
<path d="M707.187 358.326L699.742 333.902C699.654 333.616 699.621 333.315 699.645 333.016C699.669 332.717 699.75 332.425 699.883 332.159C700.015 331.892 700.197 331.655 700.418 331.462C700.639 331.268 700.894 331.122 701.169 331.032C701.724 330.852 702.324 330.907 702.839 331.185C703.354 331.463 703.743 331.941 703.92 332.516L711.365 356.913L710.626 362.019L707.187 358.326Z" fill="#BE8B87"/>
<path opacity="0.1" d="M700.447 331.757C701.002 331.574 701.604 331.627 702.122 331.906C702.639 332.184 703.029 332.664 703.207 333.241L710.651 357.637L710.093 361.465L710.634 362.055L711.374 356.949L703.886 332.552C703.708 331.978 703.319 331.499 702.804 331.221C702.289 330.943 701.689 330.888 701.135 331.068C700.668 331.225 700.266 331.54 699.991 331.962C700.137 331.881 700.29 331.812 700.447 331.757Z" fill="white"/>
<path d="M707.188 358.326L711.366 356.949L710.755 361.134L710.626 362.055L709.406 360.732L707.188 358.326Z" fill="#EFC8C4"/>
<path d="M709.405 360.731C709.478 360.636 709.569 360.557 709.672 360.499C709.732 360.459 709.802 360.438 709.874 360.438C709.945 360.438 710.015 360.459 710.076 360.499C710.134 360.572 710.183 360.654 710.222 360.74C710.279 360.839 710.356 360.923 710.448 360.987C710.541 361.05 710.645 361.091 710.755 361.107L710.626 362.001L709.405 360.731Z" fill="#727A9C"/>
<path d="M699.699 342.577C699.699 342.577 714.632 342.488 711.116 349.097C707.6 355.705 702.106 356.501 702.106 356.501L699.699 342.577Z" fill="#F2C6A5"/>
<path d="M606.826 45.9844H606.182C580.528 45.9844 557.841 60.1053 544.791 80.9423C531.74 60.1053 509.053 45.9844 483.4 45.9844H482.755C463.503 46.1752 445.101 54.262 431.548 68.4873C417.996 82.7126 410.387 101.927 410.377 121.955C410.377 146.825 420.848 182.114 441.266 211.152C480.167 266.482 544.791 314.89 544.791 314.89C544.791 314.89 609.414 266.491 648.307 211.152C668.733 182.114 679.196 146.825 679.196 121.955C679.185 101.928 671.578 82.7154 658.027 68.4904C644.477 54.2654 626.077 46.1776 606.826 45.9844ZM597.602 215.408C594.68 215.397 591.83 214.467 589.426 212.74C587.022 211.013 585.176 208.57 584.13 205.732H568.793C567.783 205.726 566.801 205.391 565.982 204.776C565.164 204.16 564.551 203.294 564.228 202.298L559.517 187.533L544.61 241.719C544.32 242.762 543.712 243.679 542.878 244.332C542.044 244.985 541.029 245.339 539.985 245.34H539.684C538.595 245.286 537.557 244.844 536.743 244.089C535.929 243.333 535.389 242.31 535.214 241.191L519.851 145.072L508.623 201.949C508.366 203.03 507.768 203.989 506.925 204.675C506.082 205.361 505.042 205.733 503.972 205.732H482.368C481.72 205.761 481.074 205.653 480.467 205.414C479.861 205.176 479.307 204.813 478.839 204.346C478.371 203.88 477.999 203.32 477.745 202.699C477.49 202.079 477.359 201.412 477.359 200.738C477.359 200.063 477.49 199.396 477.745 198.776C477.999 198.156 478.371 197.595 478.839 197.129C479.307 196.662 479.861 196.299 480.467 196.061C481.074 195.822 481.72 195.714 482.368 195.743H500.19L516.094 119.272C516.355 118.141 516.986 117.14 517.878 116.439C518.77 115.739 519.868 115.382 520.985 115.431C522.102 115.48 523.168 115.93 524 116.706C524.833 117.481 525.381 118.534 525.551 119.683L541.24 217.734L554.6 169.254C554.878 168.233 555.466 167.333 556.276 166.688C557.087 166.043 558.076 165.689 559.096 165.677H559.191C560.201 165.677 561.185 166.009 562.004 166.626C562.822 167.243 563.432 168.112 563.747 169.111L572.267 195.77H583.941C584.771 193.146 586.282 190.813 588.306 189.026C590.331 187.24 592.791 186.07 595.414 185.645C598.038 185.221 600.723 185.559 603.173 186.622C605.623 187.685 607.744 189.432 609.3 191.669C610.857 193.906 611.789 196.548 611.993 199.301C612.198 202.055 611.667 204.814 610.459 207.273C609.252 209.733 607.414 211.797 605.15 213.239C602.886 214.681 600.283 215.444 597.628 215.444L597.602 215.408Z" fill="#2864AE"/>
<path opacity="0.75" d="M69.6441 445.403C101.032 469.031 114.133 505.983 114.133 505.983C114.133 505.983 76.3068 504.632 44.9106 481.005C13.5145 457.378 0.438477 420.435 0.438477 420.435C0.438477 420.435 38.248 421.776 69.6441 445.403Z" fill="#438F58"/>
<path opacity="0.75" d="M89.9073 397.809C106.989 410.66 114.134 430.773 114.134 430.773C114.134 430.773 93.5438 430.039 76.453 417.188C59.3622 404.337 52.2354 384.216 52.2354 384.216C52.2354 384.216 72.8165 384.949 89.9073 397.809Z" fill="#438F58"/>
<path opacity="0.75" d="M138.935 429.753C119.309 452.191 115.156 481.515 115.156 481.515C115.156 481.515 142.83 474.45 162.44 452.003C182.049 429.556 186.219 400.241 186.219 400.241C186.219 400.241 158.562 407.315 138.935 429.753Z" fill="#438F58"/>
</g>
<defs>
<linearGradient id="paint0_linear_100_669" x1="306.336" y1="692.962" x2="306.336" y2="142.667" gradientUnits="userSpaceOnUse">
<stop stop-color="#808080" stop-opacity="0.25"/>
<stop offset="0.54" stop-color="#808080" stop-opacity="0.12"/>
<stop offset="1" stop-color="#808080" stop-opacity="0.1"/>
</linearGradient>
<linearGradient id="paint1_linear_100_669" x1="768.079" y1="686.004" x2="768.079" y2="183.411" gradientUnits="userSpaceOnUse">
<stop stop-color="#808080" stop-opacity="0.25"/>
<stop offset="0.54" stop-color="#808080" stop-opacity="0.12"/>
<stop offset="1" stop-color="#808080" stop-opacity="0.1"/>
</linearGradient>
<clipPath id="clip0_100_669">
<rect width="950" height="700" fill="white"/>
</clipPath>
</defs>
</svg>
