<svg width="450" height="450" viewBox="0 0 450 450" fill="none" xmlns="http://www.w3.org/2000/svg">
<mask id="mask0_4_2" style="mask-type:luminance" maskUnits="userSpaceOnUse" x="56" y="0" width="338" height="405">
<path d="M393.75 0H56.25V405H393.75V0Z" fill="white"/>
</mask>
<g mask="url(#mask0_4_2)">
<path opacity="0.75" d="M141.562 405H98.0913C97.9877 404.482 97.8841 403.964 97.7861 403.439C95.9437 394.001 94.3891 384.471 92.8576 375.006C86.7659 337.358 80.68 299.709 74.5883 262.062C72.4177 248.655 70.247 234.947 72.0549 221.475C73.8686 208.003 80.4381 194.57 91.3836 189.061C92.2299 188.635 93.0879 188.261 93.9515 187.939C97.838 208.685 101.897 229.392 106.141 250.046C110.511 271.309 115.071 292.521 119.815 313.68C124.582 334.944 129.546 356.149 134.693 377.289C136.818 386.019 138.977 394.735 141.17 403.439C141.297 403.957 141.43 404.482 141.562 405Z" fill="#438F58"/>
<path opacity="0.75" d="M379.379 323.964C364.541 351.112 349.421 378.417 332.022 403.439C331.659 403.964 331.296 404.482 330.928 405H266.718C267.063 404.482 267.42 403.957 267.777 403.439C277.865 388.622 288.228 374.049 298.897 359.77C311.075 343.484 323.656 327.585 336.749 312.244C349.347 297.486 362.411 283.24 376.085 269.788C377.709 268.187 379.338 266.607 380.979 265.033C382.401 263.668 380.352 261.36 378.947 262.711C365.169 275.94 352.007 289.983 339.328 304.57C326.114 319.774 313.418 335.561 301.149 351.755C288.706 368.172 276.701 385.002 265.042 402.14C264.748 402.573 264.455 403.006 264.167 403.439C263.81 403.957 263.453 404.475 263.113 405H144.556C144.423 404.482 144.291 403.957 144.165 403.439C142.558 397.077 140.975 390.715 139.409 384.346C134.215 363.213 129.206 342.028 124.387 320.777C119.596 299.637 114.99 278.439 110.574 257.188C106.135 235.832 101.885 214.431 97.8322 192.977C97.4637 191.016 97.0952 189.048 96.7267 187.087C107.977 184.279 120.316 189.185 130.749 195.547C166.349 217.271 193.387 256.48 203.486 301.022C211.19 277.121 233.685 264.154 254.989 256.421C282.142 246.569 310.626 241.44 339.127 241.283C349.398 241.224 359.866 241.847 369.51 245.874C379.16 249.895 387.986 257.778 391.712 268.68C397.999 287.097 388.545 307.187 379.379 323.964Z" fill="#438F58"/>
<path d="M256.786 272.47C263.021 277.691 270.495 278.098 273.477 273.369C276.454 268.647 273.811 260.586 267.57 255.365C265.099 253.24 262.215 251.842 259.146 251.305L232.465 229.575L223.581 244.68L250.826 264.495C252.22 267.689 254.263 270.424 256.786 272.47Z" fill="#CE9578"/>
<path d="M194.861 108.098C186.052 109.37 179.822 118.553 180.962 128.581L189.058 251.744L253.521 282.571L262.192 269.827L217.644 232.684L224.347 136.386C223.655 118.959 210.056 105.913 194.861 108.104V108.098Z" fill="#2864AE"/>
<path d="M165.785 111.758L197.124 123.491V72.1022H168.687L165.785 111.758Z" fill="#CE9578"/>
<path d="M193.243 86.3222C210.491 86.3222 224.473 70.3944 224.473 50.7465C224.473 31.0985 210.491 15.1708 193.243 15.1708C175.995 15.1708 162.013 31.0985 162.013 50.7465C162.013 70.3944 175.995 86.3222 193.243 86.3222Z" fill="#CE9578"/>
<path d="M184.67 47.2244C189.904 47.0471 193.33 41.0194 195.362 35.5296C197.395 30.0332 199.485 23.7236 204.327 21.4542C208.294 19.598 215.29 32.1321 218.422 28.7936C221.681 25.3174 218.502 7.43774 215.042 4.22389C211.582 1.01657 206.843 0.38692 202.381 0.157358C191.499 -0.413268 180.548 0.590244 169.884 3.12855C163.286 4.69612 156.492 7.05736 151.736 12.4947C145.714 19.3881 144.165 29.7905 143.733 39.5043C143.289 49.4478 143.79 59.8631 148.034 68.567C152.277 77.2704 161.167 83.6852 169.683 81.4685C170.541 76.1949 169.666 70.7837 169.337 65.4251C169.009 60.0732 169.355 54.288 172.222 50.0315C175.089 45.7745 181.221 44.0824 184.561 47.8602" fill="#18181B"/>
<path d="M146.243 59.5485C143.117 56.9381 139.38 54.7605 135.534 55.2915C131.377 55.8689 127.87 59.765 126.799 64.3757C125.728 68.9868 126.926 74.07 129.5 77.8347C132.067 81.5994 135.891 84.105 139.932 85.338C142.27 86.0531 144.838 86.3546 147.06 85.266C150.348 83.6591 152.116 78.8774 150.826 75.0735" fill="#18181B"/>
<path d="M177.853 253.122L166.746 254.434C166.746 254.434 138.833 301.553 166.746 340.368L167.132 404.226H218.83C218.83 404.226 240.272 332.518 228.786 306.78L239.507 299.362L177.853 253.122Z" fill="#18181B"/>
<path d="M176.373 265.8L167.195 273.041C167.195 273.041 145.944 337.64 203.555 348.338L230.91 404.075L276.206 404.22C276.206 404.22 264.656 301.087 243.698 284.847L249.957 272.464L176.373 265.8Z" fill="#18181B"/>
<path d="M199.68 98.2656L162.008 89.7719L149.894 137.527C149.894 137.527 190.1 227.391 166.741 254.434L239.501 299.362C239.501 299.362 318.767 250.505 230.311 178.967C230.311 178.967 245.247 158.463 228.394 140.577C211.547 122.691 199.675 98.2656 199.675 98.2656H199.68Z" fill="#2864AE"/>
<path d="M233.685 308.695C239.921 313.916 247.395 314.323 250.377 309.594C253.354 304.871 250.711 296.811 244.47 291.59C242 289.465 239.115 288.068 236.046 287.53L209.365 265.8L200.481 280.905L227.726 300.72C229.12 303.914 231.164 306.649 233.685 308.695Z" fill="#CE9578"/>
<path d="M148.27 108.098C139.46 109.37 133.231 118.552 134.37 128.581L142.466 251.744L223.2 301.546L228.555 280.656L171.047 232.677L177.749 136.38C177.058 118.953 163.458 105.907 148.264 108.098H148.27Z" fill="#2864AE"/>
<path d="M365.814 404.22C365.814 404.653 365.508 405 365.128 405H56.9352C56.5552 405 56.25 404.653 56.25 404.22C56.25 403.787 56.5552 403.439 56.9352 403.439H365.128C365.508 403.439 365.814 403.787 365.814 404.22Z" fill="#2F2E41"/>
</g>
</svg>
