<svg width="450" height="450" viewBox="0 0 750 1000" fill="none" xmlns="http://www.w3.org/2000/svg">
<g clip-path="url(#clip0_39_17)">
<path d="M189.582 900H92.9808C92.7505 898.848 92.5202 897.697 92.3026 896.531C88.2083 875.557 84.7536 854.379 81.3502 833.347C67.8132 749.684 54.2889 666.021 40.7519 582.359C35.9282 552.567 31.1045 522.104 35.1221 492.166C39.1525 462.229 53.7515 432.378 78.0747 420.135C79.9555 419.188 81.862 418.357 83.7812 417.643C92.4178 463.744 101.438 509.759 110.868 555.657C120.579 602.91 130.713 650.047 141.256 697.067C151.85 744.32 162.879 791.443 174.318 838.419C179.039 857.819 183.838 877.189 188.712 896.531C188.994 897.682 189.288 898.848 189.582 900Z" fill="#D7D7D8"/>
<path d="M718.064 719.921C685.091 780.249 651.492 840.926 612.826 896.531C612.019 897.697 611.213 898.849 610.395 900H467.706C468.473 898.849 469.267 897.683 470.06 896.531C492.477 863.605 515.507 831.219 539.216 799.488C566.278 763.298 594.235 727.967 623.33 693.875C651.326 661.081 680.357 629.423 710.745 599.529C714.353 595.972 717.974 592.46 721.621 588.962C724.781 585.93 720.226 580.799 717.104 583.802C686.486 613.201 657.237 644.406 629.062 676.822C599.698 710.608 571.485 745.691 544.219 781.677C516.569 818.159 489.892 855.56 463.982 893.645C463.33 894.607 462.677 895.569 462.037 896.531C461.244 897.683 460.451 898.834 459.696 900H196.236C195.941 898.849 195.647 897.683 195.366 896.531C191.796 882.393 188.277 868.255 184.797 854.102C173.256 807.14 162.124 760.062 151.415 712.838C140.77 665.861 130.534 618.754 120.72 571.53C110.855 524.072 101.412 476.513 92.4049 428.837C91.586 424.479 90.7671 420.106 89.9482 415.748C114.95 409.51 142.369 420.412 165.553 434.55C244.664 482.824 304.749 569.955 327.192 668.937C344.311 615.824 394.301 587.009 441.642 569.824C501.983 547.932 565.28 536.534 628.615 536.184C651.441 536.053 674.702 537.438 696.133 546.387C717.578 555.322 737.192 572.841 745.471 597.066C759.443 637.993 738.433 682.638 718.064 719.921Z" fill="#DDDEDF"/>
<path d="M445.635 605.49C459.491 617.092 476.099 617.996 482.727 607.487C489.342 596.993 483.469 579.079 469.599 567.477C464.11 562.755 457.7 559.65 450.88 558.455L391.589 510.167L371.846 543.734L432.392 587.766C435.488 594.865 440.03 600.942 445.635 605.49Z" fill="#F6A6A9"/>
<path d="M308.025 240.217C288.449 243.044 274.605 263.45 277.138 285.736L295.128 559.432L438.379 627.936L457.649 599.616L358.654 517.076L373.548 303.08C372.012 264.354 341.791 235.363 308.025 240.231V240.217Z" fill="#6C63FF"/>
<path d="M243.411 248.35L313.053 274.425V160.227H249.859L243.411 248.35Z" fill="#F6A6A9"/>
<path d="M304.429 191.827C342.758 191.827 373.829 156.432 373.829 112.77C373.829 69.1078 342.758 33.7129 304.429 33.7129C266.101 33.7129 235.03 69.1078 235.03 112.77C235.03 156.432 266.101 191.827 304.429 191.827Z" fill="#F6A6A9"/>
<path d="M285.378 104.943C297.009 104.549 304.622 91.1542 309.138 78.9546C313.655 66.7405 318.299 52.719 329.06 47.6759C337.876 43.5511 353.422 71.4046 360.382 63.9857C367.624 56.2608 360.561 16.5283 352.871 9.3864C345.182 2.25904 334.651 0.859808 324.735 0.34967C300.553 -0.918387 276.217 1.31164 252.521 6.95231C237.858 10.4358 222.76 15.683 212.191 27.7659C198.808 43.0847 195.366 66.2012 194.406 87.7873C193.421 109.884 194.534 133.029 203.964 152.371C213.394 171.712 233.149 185.967 252.073 181.041C253.979 169.322 252.035 157.297 251.305 145.389C250.576 133.496 251.344 120.64 257.716 111.181C264.087 101.721 277.714 97.9609 285.135 106.356" fill="#2F2E41"/>
<path d="M199.984 132.33C193.037 126.529 184.733 121.69 176.186 122.87C166.948 124.153 159.156 132.811 156.776 143.057C154.396 153.304 157.057 164.6 162.777 172.966C168.483 181.332 176.979 186.9 185.961 189.64C191.156 191.229 196.862 191.899 201.801 189.48C209.107 185.909 213.035 175.283 210.169 166.83" fill="#2F2E41"/>
<path d="M270.229 562.493L245.547 565.408C245.547 565.408 183.518 670.117 245.547 756.374L246.405 898.28H361.29C361.29 898.28 408.938 738.928 383.413 681.734L407.237 665.249L270.229 562.493Z" fill="#2F2E41"/>
<path d="M266.94 590.667L246.545 606.758C246.545 606.758 199.319 750.311 327.345 774.084L388.134 897.945L488.791 898.266C488.791 898.266 463.125 669.083 416.551 632.994L430.459 605.476L266.94 590.667Z" fill="#2F2E41"/>
<path d="M318.734 218.368L235.017 199.493L208.097 305.616C208.097 305.616 297.444 505.314 245.535 565.408L407.224 665.249C407.224 665.249 583.372 556.677 386.803 397.704C386.803 397.704 419.993 352.141 382.543 312.394C345.105 272.647 318.722 218.368 318.722 218.368H318.734Z" fill="#6C63FF"/>
<path d="M394.301 685.99C408.158 697.592 424.766 698.496 431.394 687.987C438.008 677.492 432.136 659.579 418.266 647.977C412.777 643.255 406.367 640.15 399.547 638.955L340.255 590.667L320.513 624.234L381.058 668.266C384.155 675.364 388.697 681.442 394.301 685.99Z" fill="#F6A6A9"/>
<path d="M204.488 240.217C184.912 243.044 171.068 263.45 173.601 285.736L191.591 559.432L371.001 670.103L382.901 623.68L255.105 517.061L269.998 303.066C268.463 264.339 238.241 235.348 204.475 240.217H204.488Z" fill="#6C63FF"/>
<path d="M687.919 898.266C687.919 899.228 687.241 900 686.396 900H1.5226C0.678131 900 0 899.228 0 898.266C0 897.304 0.678131 896.531 1.5226 896.531H686.396C687.241 896.531 687.919 897.304 687.919 898.266Z" fill="#2F2E41"/>
</g>
<defs>
<clipPath id="clip0_39_17">
<rect width="750" height="900" fill="white"/>
</clipPath>
</defs>
</svg>
