<svg width="338" height="405" viewBox="0 0 338 405" fill="none" xmlns="http://www.w3.org/2000/svg">
<mask id="mask0_4_20" style="mask-type:luminance" maskUnits="userSpaceOnUse" x="0" y="0" width="338" height="405">
<path d="M337.75 0H0.25V405H337.75V0Z" fill="white"/>
</mask>
<g mask="url(#mask0_4_20)">
<path opacity="0.75" d="M85.5619 405H42.0913C41.9877 404.482 41.8841 403.964 41.7861 403.439C39.9437 394.001 38.3891 384.471 36.8576 375.006C30.7659 337.358 24.68 299.709 18.5883 262.062C16.4177 248.655 14.247 234.947 16.0549 221.475C17.8686 208.003 24.4381 194.57 35.3836 189.061C36.2299 188.635 37.0879 188.261 37.9515 187.939C41.838 208.685 45.8971 229.392 50.1406 250.046C54.5105 271.309 59.0708 292.521 63.8152 313.68C68.5825 334.944 73.5455 356.149 78.6931 377.289C80.8175 386.019 82.9771 394.735 85.1704 403.439C85.2973 403.957 85.4296 404.482 85.5619 405Z" fill="#438F58"/>
<path opacity="0.75" d="M323.379 323.964C308.541 351.112 293.421 378.417 276.022 403.439C275.659 403.964 275.296 404.482 274.928 405H210.718C211.063 404.482 211.42 403.957 211.777 403.439C221.865 388.622 232.228 374.049 242.897 359.77C255.075 343.484 267.656 327.585 280.749 312.244C293.347 297.486 306.411 283.24 320.085 269.788C321.709 268.187 323.338 266.607 324.979 265.033C326.401 263.668 324.352 261.36 322.947 262.711C309.169 275.94 296.007 289.983 283.328 304.57C270.114 319.774 257.418 335.561 245.149 351.755C232.706 368.172 220.701 385.002 209.042 402.14C208.748 402.573 208.455 403.006 208.167 403.439C207.81 403.957 207.453 404.475 207.113 405H88.5562C88.4234 404.482 88.2911 403.957 88.1647 403.439C86.5582 397.077 84.9746 390.715 83.4086 384.346C78.2152 363.213 73.2058 342.028 68.3867 320.777C63.5965 299.637 58.9903 278.439 54.574 257.188C50.1347 235.832 45.8854 214.431 41.8322 192.977C41.4637 191.016 41.0952 189.048 40.7267 187.087C51.9775 184.279 64.316 189.185 74.7488 195.547C110.349 217.271 137.387 256.48 147.486 301.022C155.19 277.121 177.685 264.154 198.989 256.421C226.142 246.569 254.626 241.44 283.127 241.283C293.398 241.224 303.866 241.847 313.51 245.874C323.16 249.895 331.986 257.778 335.712 268.68C341.999 287.097 332.545 307.187 323.379 323.964Z" fill="#438F58"/>
<path d="M200.786 272.47C207.021 277.691 214.495 278.098 217.477 273.369C220.454 268.647 217.811 260.586 211.57 255.365C209.099 253.24 206.215 251.842 203.146 251.305L176.465 229.575L167.581 244.68L194.826 264.495C196.22 267.689 198.263 270.424 200.786 272.47Z" fill="#CE9578"/>
<path d="M138.861 108.098C130.052 109.37 123.822 118.553 124.962 128.581L133.058 251.744L197.521 282.571L206.192 269.827L161.644 232.684L168.347 136.386C167.655 118.959 154.056 105.913 138.861 108.104V108.098Z" fill="#2864AE"/>
<path d="M109.785 111.758L141.124 123.491V72.1022H112.687L109.785 111.758Z" fill="#CE9578"/>
<path d="M137.243 86.3222C154.491 86.3222 168.473 70.3944 168.473 50.7465C168.473 31.0985 154.491 15.1708 137.243 15.1708C119.995 15.1708 106.013 31.0985 106.013 50.7465C106.013 70.3944 119.995 86.3222 137.243 86.3222Z" fill="#CE9578"/>
<path d="M128.67 47.2244C133.904 47.0471 137.33 41.0194 139.362 35.5296C141.395 30.0332 143.485 23.7236 148.327 21.4542C152.294 19.598 159.29 32.1321 162.422 28.7936C165.681 25.3174 162.502 7.43774 159.042 4.22389C155.582 1.01657 150.843 0.38692 146.381 0.157358C135.499 -0.413268 124.548 0.590244 113.884 3.12855C107.286 4.69612 100.492 7.05736 95.7359 12.4947C89.7136 19.3881 88.1647 29.7905 87.7327 39.5043C87.2894 49.4478 87.7903 59.8631 92.0338 68.567C96.2773 77.2704 105.167 83.6852 113.683 81.4685C114.541 76.1949 113.666 70.7837 113.337 65.4251C113.009 60.0732 113.355 54.288 116.222 50.0315C119.089 45.7745 125.221 44.0824 128.561 47.8602" fill="#18181B"/>
<path d="M90.2428 59.5485C87.1167 56.9381 83.3799 54.7605 79.5337 55.2915C75.3766 55.8689 71.8702 59.765 70.7992 64.3757C69.7282 68.9868 70.9257 74.07 73.4997 77.8347C76.0674 81.5994 79.8906 84.105 83.9325 85.338C86.2702 86.0531 88.8379 86.3546 91.0605 85.266C94.3482 83.6591 96.1158 78.8774 94.8261 75.0735" fill="#18181B"/>
<path d="M121.853 253.122L110.746 254.434C110.746 254.434 82.8331 301.553 110.746 340.368L111.132 404.226H162.83C162.83 404.226 184.272 332.518 172.786 306.78L183.507 299.362L121.853 253.122Z" fill="#18181B"/>
<path d="M120.373 265.8L111.195 273.041C111.195 273.041 89.9436 337.64 147.555 348.338L174.91 404.075L220.206 404.22C220.206 404.22 208.656 301.087 187.698 284.847L193.957 272.464L120.373 265.8Z" fill="#18181B"/>
<path d="M143.68 98.2656L106.008 89.7719L93.8937 137.527C93.8937 137.527 134.1 227.391 110.741 254.434L183.501 299.362C183.501 299.362 262.767 250.505 174.311 178.967C174.311 178.967 189.247 158.463 172.394 140.577C155.547 122.691 143.675 98.2656 143.675 98.2656H143.68Z" fill="#2864AE"/>
<path d="M177.685 308.695C183.921 313.916 191.395 314.323 194.377 309.594C197.354 304.871 194.711 296.811 188.47 291.59C186 289.465 183.115 288.068 180.046 287.53L153.365 265.8L144.481 280.905L171.726 300.72C173.12 303.914 175.164 306.649 177.685 308.695Z" fill="#CE9578"/>
<path d="M92.2696 108.098C83.4604 109.37 77.2306 118.552 78.3704 128.581L86.4659 251.744L167.2 301.546L172.555 280.656L115.047 232.677L121.749 136.38C121.058 118.953 107.458 105.907 92.2637 108.098H92.2696Z" fill="#2864AE"/>
<path d="M309.814 404.22C309.814 404.653 309.508 405 309.128 405H0.93517C0.555159 405 0.25 404.653 0.25 404.22C0.25 403.787 0.555159 403.439 0.93517 403.439H309.128C309.508 403.439 309.814 403.787 309.814 404.22Z" fill="#2F2E41"/>
</g>
</svg>
