<svg width="250" height="250" viewBox="0 0 250 250" fill="none" xmlns="http://www.w3.org/2000/svg">
<g clip-path="url(#clip0_16_2)">
<path d="M127.237 163.197C149.647 163.197 167.814 145.03 167.814 122.62C167.814 100.209 149.647 82.042 127.237 82.042C104.826 82.042 86.6592 100.209 86.6592 122.62C86.6592 145.03 104.826 163.197 127.237 163.197Z" fill="#CE9578"/>
<path d="M103.943 169.197L102.109 150.667L138.717 143.821L160.334 196.453L122.74 239.686L95.9539 187.055L103.943 169.197Z" fill="#CE9578"/>
<path d="M101.521 159.942L109.525 161.751C109.525 161.751 103.233 141.8 105.369 139.896C107.504 137.991 112.737 140.992 112.737 140.992L118.236 147.157L124.934 140.338C124.934 140.338 132.207 131.295 135.054 128.756C137.901 126.216 133.328 116.79 133.328 116.79C133.328 116.79 175.57 105.399 159.852 84.9102C159.852 84.9102 150.636 68.846 147.635 74.079C144.634 79.312 141.055 71.001 141.055 71.001L130.128 73.079C130.128 73.079 108.561 60.3626 88.0913 87.5666C67.6218 114.771 101.521 159.942 101.521 159.942Z" fill="#18181B"/>
<path d="M203.553 222.251C181.377 240.23 153.943 250 125 250C98.5714 250 73.3975 241.852 52.3402 226.748C52.3778 226.353 52.4154 225.963 52.4483 225.573C53.0075 219.464 53.5056 213.524 53.8346 208.6C55.1081 189.478 99.718 176.734 99.718 176.734C99.718 176.734 99.9201 176.936 100.324 177.289C102.787 179.45 112.782 187.289 130.31 189.478C145.94 191.433 151.086 182.162 152.641 177.721C153.111 176.367 153.252 175.461 153.252 175.461L199.135 197.129C202.129 201.405 203.299 210.616 203.529 220.968C203.539 221.396 203.548 221.819 203.553 222.251Z" fill="#2864AE"/>
<path d="M213.388 36.6119C189.779 13.0028 158.388 0 125 0C91.6118 0 60.2209 13.0028 36.6119 36.6119C13.0028 60.2209 0 91.6118 0 125C0 155.475 10.8318 184.286 30.6814 207.035C32.5752 209.211 34.5536 211.33 36.6119 213.388C37.0959 213.872 37.5846 214.356 38.078 214.826C39.3938 216.1 40.7331 217.345 42.0959 218.553C42.923 219.29 43.7594 220.014 44.6053 220.724C45.2679 221.283 45.9305 221.833 46.6025 222.373C46.6166 222.387 46.626 222.397 46.64 222.406C48.5057 223.91 50.4041 225.357 52.3402 226.748C73.3976 241.852 98.5714 250 125 250C153.943 250 181.377 240.23 203.553 222.251C205.362 220.785 207.133 219.262 208.872 217.688C210.409 216.297 211.913 214.864 213.388 213.388C213.853 212.923 214.319 212.453 214.774 211.978C216.043 210.672 217.274 209.342 218.477 207.993C238.858 185.099 250 155.907 250 125C250 91.6118 236.997 60.2209 213.388 36.6119ZM218.172 206.823C216.997 208.158 215.794 209.474 214.563 210.757C212.646 212.754 210.667 214.69 208.623 216.555C207.848 217.27 207.063 217.965 206.269 218.656C205.367 219.441 204.455 220.211 203.529 220.968C196.231 226.96 188.238 232.129 179.69 236.339C176.311 238.008 172.848 239.525 169.305 240.883C155.54 246.165 140.602 249.06 125 249.06C109.944 249.06 95.5075 246.363 82.1476 241.429C76.6635 239.408 71.3628 237.007 66.2735 234.258C65.5263 233.853 64.7839 233.445 64.0461 233.026C60.1645 230.827 56.4098 228.426 52.8055 225.832C52.688 225.747 52.5658 225.658 52.4483 225.573C49.8825 223.722 47.3872 221.772 44.9765 219.723C44.0931 218.976 43.219 218.219 42.359 217.444C40.9587 216.198 39.5865 214.915 38.2472 213.6C35.7096 211.114 33.2848 208.524 30.9681 205.832C12.2604 184.102 0.93985 155.851 0.93985 125C0.93985 56.593 56.5931 0.93985 125 0.93985C193.407 0.93985 249.06 56.593 249.06 125C249.06 156.325 237.392 184.972 218.172 206.823Z" fill="#B6C2D9"/>
</g>
<defs>
<clipPath id="clip0_16_2">
<rect width="250" height="250" fill="white"/>
</clipPath>
</defs>
</svg>
