<svg width="60" height="55" viewBox="0 0 60 55" fill="none" xmlns="http://www.w3.org/2000/svg">
<path d="M56.651 35.0393C54.1224 32.8029 50.6601 29.6351 50.6601 26.4026V16.111C50.6601 7.24578 41.5447 0.0322266 29.8944 0.0322266C18.2418 0.0322266 9.198 7.24578 9.198 16.111V26.4026C9.198 29.5799 5.44093 32.5823 3.05973 34.9132C0.916855 37.0062 -0.775341 38.6611 0.368679 40.3143C1.37186 41.769 3.88741 41.955 5.96528 41.955H18.3805C18.3848 46.5949 23.5568 50.3569 29.9355 50.3569C36.3143 50.3569 41.4906 46.5965 41.4927 41.955H54.1983C55.52 41.955 58.6097 41.955 59.6735 40.3191C60.7461 38.6642 59.03 37.1433 56.651 35.0393ZM29.9334 47.0551C26.0593 47.0551 22.9154 44.773 22.9111 41.9566H36.9557C36.9492 44.773 33.8096 47.0551 29.9334 47.0551ZM54.1983 38.5996H5.96311C5.6316 38.5996 5.35427 38.5917 5.12676 38.5807C5.5731 38.0779 6.22745 37.4349 6.76262 36.9132C9.40167 34.3333 13.8152 30.6894 13.8152 26.4026V16.111C13.8152 9.09448 20.792 3.38762 29.8987 3.38762C39.0054 3.38762 46.0515 9.09606 46.0515 16.111V26.4026C46.0515 30.836 50.1205 34.5413 53.0911 37.1701C53.5916 37.613 54.1896 38.1426 54.6555 38.5965C54.5168 38.5996 54.3651 38.6012 54.2026 38.6012L54.1983 38.5996Z" fill="#2864AE"/>
</svg>
