<svg width="120" height="120" viewBox="0 0 120 120" fill="none" xmlns="http://www.w3.org/2000/svg">
<path d="M40.0193 47.0907C38.0667 45.1381 38.0667 41.9723 40.0193 40.0197C41.9719 38.067 45.1378 38.067 47.0904 40.0197L60.0285 52.9579L72.9535 40.0328C74.9065 38.0802 78.072 38.0802 80.0245 40.0328C81.9775 41.9854 81.9775 45.1512 80.0245 47.1039L67.0995 60.0289L80.0195 72.9484C81.972 74.9014 81.972 78.0669 80.0195 80.0194C78.0665 81.9724 74.901 81.9724 72.948 80.0194L60.0285 67.0999L47.1049 80.0239C45.1523 81.9764 41.9864 81.9764 40.0338 80.0239C38.0812 78.0709 38.0812 74.9054 40.0338 72.9524L52.9575 60.0289L40.0193 47.0907Z" fill="#2864AE"/>
<path fill-rule="evenodd" clip-rule="evenodd" d="M115 60C115 90.3755 90.3755 115 60 115C29.6244 115 5 90.3755 5 60C5 29.6244 29.6244 5 60 5C90.3755 5 115 29.6244 115 60ZM15.0341 60C15.0341 84.834 35.166 104.966 60 104.966C84.834 104.966 104.966 84.834 104.966 60C104.966 35.166 84.834 15.0341 60 15.0341C35.166 15.0341 15.0341 35.166 15.0341 60Z" fill="#2864AE"/>
</svg>
