<svg width="240" height="100" viewBox="0 0 240 100" fill="none" xmlns="http://www.w3.org/2000/svg">
<path d="M25.8395 62.8064C31.5576 62.8064 36.1146 57.224 36.1146 48.96C36.5567 42.4725 32.3737 36.8002 26.7674 36.283C26.4613 36.2548 26.1504 36.2436 25.8395 36.2492C19.8639 36.2492 16.7352 42.3488 16.7352 49.6852C16.7303 58.056 21.0153 62.8064 25.8395 62.8064ZM51.6462 70.7612C51.6462 92.8716 42.3671 99.9999 23.6095 99.9999C17.5659 100.017 11.5563 98.87 5.83825 96.5932L6.63985 81.9148C11.464 84.9336 16.8761 86.4627 22.361 86.3616C31.6499 86.3616 36.649 81.302 36.649 70.7612V67.8604H36.4692C32.9713 73.8307 27.0686 77.3049 20.8404 77.0576C8.06816 77.0576 0.125 65.904 0.125 49.9776C0.125 33.9555 6.63985 21.9756 21.1076 21.9756C27.705 22.0374 33.7535 26.2313 36.9113 32.9324H37.0959V23.2292H51.6462V70.7556L51.6462 70.7612Z" fill="#2864AE"/>
<path d="M116.45 76.9959H134.333L151.147 23.4937H135.528L126.045 61.6092H125.87L116.46 23.4937H99.6016L116.45 76.9959Z" fill="#46AD44"/>
<path d="M89.157 50.2583C89.157 42.2529 86.14 35.1695 78.775 35.1695C71.4099 35.1695 68.3979 42.2529 68.3979 50.2583C68.3979 58.1625 71.4148 65.2459 78.775 65.2459C86.1352 65.2459 89.157 58.1625 89.157 50.2583ZM51.8994 50.2583C51.8994 32.4992 63.5154 22.2451 78.775 22.2451C94.0346 22.2451 105.651 32.5104 105.651 50.2583C105.651 67.9163 94.0346 78.176 78.775 78.176C63.5154 78.176 51.8994 67.9163 51.8994 50.2583Z" fill="#FABD10"/>
<path d="M152.954 69.4343C152.954 74.2802 149.559 78.2042 145.371 78.2042C141.183 78.2042 137.792 74.2746 137.792 69.4286C137.792 64.5883 141.183 60.6643 145.371 60.6587C149.554 60.6531 152.95 64.5771 152.954 69.4174C152.954 69.423 152.954 69.4286 152.954 69.4343Z" fill="#2864AE"/>
<path d="M180.131 36.4515C174.277 36.4515 170.371 42.3993 170.371 50.4103C170.371 58.2133 174.812 64.0712 180.131 64.0712C186.165 64.0712 189.804 58.2133 189.804 49.6907C189.804 42.6129 186.345 36.4515 180.131 36.4515ZM154.402 0H170.468V30.3968H170.648C174.491 24.865 180.413 21.8405 186.534 22.2903C199.311 22.2903 206.312 36.3503 206.312 49.2916C206.312 65.0999 198.952 78.2492 185.194 78.2492C178.538 78.5472 172.334 74.3365 169.312 67.4667H169.132V77.0237H154.393V0.00562176H154.402V0Z" fill="#2864AE"/>
<path d="M239.313 38.3014C237.545 37.7898 235.723 37.5818 233.901 37.6886C226.449 37.6886 222.285 43.9512 222.285 54.4246V77.0184H206.307V23.4936H220.872V33.3542H221.051C223.067 26.6362 228.572 22.1725 234.713 22.2681C236.53 22.3018 238.337 22.5098 240.125 22.8809L239.313 38.3014Z" fill="#FABD10"/>
</svg>
