<svg width="60" height="55" viewBox="0 0 60 55" fill="none" xmlns="http://www.w3.org/2000/svg">
<path fill-rule="evenodd" clip-rule="evenodd" d="M28.2008 0.744911C29.2085 -0.248304 30.7915 -0.248304 31.7992 0.744911L52.6688 21.319L59.1905 27.7485C60.2337 28.7768 60.2739 30.4861 59.2803 31.5663C58.2869 32.6461 56.6356 32.6877 55.5921 31.6592L53.4783 29.5753V49.9565C53.4783 52.9393 51.1424 55.3571 48.2609 55.3571H35.2174H24.7826H11.7391C8.85765 55.3571 6.52175 52.9393 6.52175 49.9565V29.5753L4.40781 31.6592C3.36449 32.6877 1.71327 32.6461 0.719645 31.5663C-0.27397 30.4861 -0.233697 28.7768 0.809601 27.7485L7.33133 21.319L28.2008 0.744911ZM11.7391 24.4317V49.9565H22.1739V36.4547C22.1739 31.9805 25.6777 28.3537 30 28.3537C34.3224 28.3537 37.8261 31.9805 37.8261 36.4547V49.9565H48.2609V24.4317L30 6.42939L11.7391 24.4317ZM32.6087 49.9565V36.4547C32.6087 34.9633 31.4408 33.7544 30 33.7544C28.5592 33.7544 27.3913 34.9633 27.3913 36.4547V49.9565H32.6087Z" fill="#5B5C60"/>
</svg>
