<svg width="120" height="120" viewBox="0 0 120 120" fill="none" xmlns="http://www.w3.org/2000/svg">
<path fill-rule="evenodd" clip-rule="evenodd" d="M110.082 84.536L106.113 91.464C105.017 93.38 102.593 94.032 100.693 92.928L89.6727 86.512C84.0805 92.876 76.5162 97.436 67.9319 99.196V108C67.9319 110.212 66.1598 112 63.9677 112H56.0314C53.8393 112 52.0672 110.212 52.0672 108V99.196C43.4829 97.436 35.9186 92.876 30.3264 86.512L19.306 92.928C17.4059 94.032 14.9818 93.38 13.8857 91.464L9.9176 84.536C8.82156 82.624 9.47358 80.176 11.3697 79.076L22.4341 72.6281C21.118 68.6521 20.33 64.424 20.33 60C20.33 55.576 21.118 51.3519 22.4341 47.3719L11.3697 40.928C9.47358 39.824 8.82156 37.38 9.9176 35.464L13.8857 28.536C14.9818 26.624 17.4059 25.968 19.306 27.072L30.3264 33.488C35.9186 27.124 43.4829 22.564 52.0672 20.804V12C52.0672 9.788 53.8393 8 56.0314 8H63.9677C66.1598 8 67.9319 9.788 67.9319 12V20.804C76.5162 22.564 84.0805 27.124 89.6727 33.488L100.693 27.072C102.593 25.968 105.017 26.624 106.113 28.536L110.082 35.464C111.178 37.38 110.526 39.824 108.629 40.928L97.565 47.3719C98.8811 51.3519 99.6691 55.576 99.6691 60C99.6691 64.424 98.8811 68.6521 97.565 72.6281L108.629 79.076C110.526 80.176 111.178 82.624 110.082 84.536ZM116.034 74.144L106.741 68.736C107.261 65.896 107.605 62.996 107.605 60C107.605 57.008 107.261 54.104 106.741 51.264L116.034 45.856C119.83 43.648 121.126 38.752 118.934 34.928L111.002 21.072C108.814 17.248 103.957 15.932 100.165 18.144L90.7768 23.604C86.3926 19.844 81.4084 16.768 75.8682 14.788V8C75.8682 3.584 72.3161 0 67.9319 0L52.0672 0C47.6831 0 44.1309 3.584 44.1309 8V14.788C38.5907 16.768 33.6065 19.844 29.2223 23.604L19.834 18.144C16.0418 15.932 11.1856 17.248 8.99755 21.072L1.06523 34.928C-1.12686 38.752 0.173186 43.648 3.96534 45.856L13.2577 51.264C12.7377 54.104 12.3937 57.008 12.3937 60C12.3937 62.996 12.7377 65.896 13.2577 68.736L3.96534 74.144C0.173186 76.352 -1.12686 81.248 1.06523 85.072L8.99755 98.928C11.1856 102.752 16.0418 104.068 19.834 101.856L29.2223 96.396C33.6065 100.156 38.5907 103.236 44.1309 105.212V112C44.1309 116.416 47.6831 120 52.0672 120H67.9319C72.3161 120 75.8682 116.416 75.8682 112V105.212C81.4084 103.236 86.3926 100.156 90.7768 96.396L100.165 101.856C103.957 104.068 108.814 102.752 111.002 98.928L118.934 85.072C121.126 81.248 119.83 76.352 116.034 74.144ZM59.9996 72C53.4273 72 48.0991 66.628 48.0991 60C48.0991 53.376 53.4273 48 59.9996 48C66.5718 48 71.9 53.376 71.9 60C71.9 66.628 66.5718 72 59.9996 72ZM59.9996 40C49.0431 40 40.1668 48.952 40.1668 60C40.1668 71.048 49.0431 80 59.9996 80C70.956 80 79.8363 71.048 79.8363 60C79.8363 48.952 70.956 40 59.9996 40Z" fill="#2864AE"/>
</svg>
