<svg width="80" height="80" viewBox="0 0 120 120" fill="none" xmlns="http://www.w3.org/2000/svg">
<path d="M20.0475 25.7251C23.8293 25.7251 26.895 22.6594 26.895 18.8776C26.895 15.0958 23.8293 12.03 20.0475 12.03C16.2657 12.03 13.2 15.0958 13.2 18.8776C13.2 22.6594 16.2657 25.7251 20.0475 25.7251Z" fill="#2864AE"/>
<path d="M111.427 0H8.57344C3.84598 0 0 3.84598 0 8.57344V111.427C0 116.154 3.84598 120 8.57344 120H111.427C116.154 120 120 116.154 120 111.427V8.57344C120 3.84598 116.154 0 111.427 0ZM99.5328 97.8176H20.4672C18.3062 97.8176 16.5542 96.0656 16.5542 93.9045C16.5542 91.7435 18.3062 89.9915 20.4672 89.9915H99.5328C101.694 89.9915 103.446 91.7435 103.446 93.9045C103.446 96.0656 101.694 97.8176 99.5328 97.8176ZM99.5328 79.1292H20.4672C18.3062 79.1292 16.5542 77.3772 16.5542 75.2162C16.5542 73.0552 18.3062 71.3032 20.4672 71.3032H99.5328C101.694 71.3032 103.446 73.0552 103.446 75.2162C103.446 77.3772 101.694 79.1292 99.5328 79.1292ZM99.5328 60.4406H20.4672C18.3062 60.4406 16.5542 58.6886 16.5542 56.5276C16.5542 54.3665 18.3062 52.6146 20.4672 52.6146H99.5328C101.694 52.6146 103.446 54.3665 103.446 56.5276C103.446 58.6886 101.694 60.4406 99.5328 60.4406ZM112.174 30.7115H7.82605V8.57344C7.82605 8.16127 8.16127 7.82605 8.57344 7.82605H111.427C111.839 7.82605 112.174 8.16127 112.174 8.57344V30.7115Z" fill="#2864AE"/>
</svg>
