<svg width="120" height="120" viewBox="0 0 120 120" fill="none" xmlns="http://www.w3.org/2000/svg">
<path d="M41.9473 18.9022V37.8047H61.1225H80.2978V18.9022V-0.00019455H61.1225H41.9473V18.9022Z" fill="#2864AE"/>
<path d="M11.2664 40.6583C11.8849 40.7071 18.1695 41.1217 25.2705 41.5851L38.1612 42.4144L49.5427 53.7071C55.8025 59.9266 64.1406 68.2193 68.0499 72.1217L75.1757 79.2681H98.0375H120.875V59.8778V40.4876L65.5262 40.5364C35.0684 40.5607 10.6478 40.6095 11.2664 40.6583Z" fill="#2864AE"/>
<path d="M0.875 60.4635V79.1952L3.1018 79.4879C15.374 81.0489 28.5863 82.2196 41.4523 82.9269C51.9183 83.4879 71.9348 83.8293 73.9142 83.4635L74.8297 83.2928L71.8111 80.2196C67.7534 76.0976 57.609 65.7562 56.2977 64.3903C54.4668 62.4879 43.9513 51.7562 40.2647 48.0245L36.7266 44.4391L33.5843 44.2684C22.3018 43.7074 13.7657 43.0732 5.89768 42.1952C3.54717 41.9269 1.44407 41.7074 1.24613 41.7074C0.924485 41.7074 0.875 43.9269 0.875 60.4635Z" fill="#2864AE"/>
<path d="M76.0918 82.0487C76.0918 82.1706 76.6114 82.8292 77.2299 83.5609C78.0217 84.4633 78.4423 85.2194 78.566 85.9267C78.665 86.4877 79.2341 91.6584 79.8279 97.4389C80.4217 103.195 80.9413 107.317 80.9908 106.585C81.065 104.829 80.397 82.4633 80.2732 82.317C80.0753 82.1219 76.0918 81.878 76.0918 82.0487Z" fill="#2864AE"/>
<path d="M37.9883 86.1463C37.9883 88 38.7553 100.951 39.1017 105C39.5965 110.829 40.5367 117.707 41.1058 119.561C41.2295 119.976 42.3677 120 60.5037 120H79.7532L79.4068 118.22C78.2192 112.171 77.2543 102.878 76.8337 93.5366C76.6852 90.1707 76.512 86.9756 76.4378 86.3902L76.3141 85.3659H57.1388H37.9883V86.1463Z" fill="#2864AE"/>
</svg>
