<svg width="165" height="145" viewBox="0 0 165 145" fill="none" xmlns="http://www.w3.org/2000/svg">
<path fill-rule="evenodd" clip-rule="evenodd" d="M119.16 115.226C107.865 125.678 95.9524 135.437 83.4223 144.504C82.4296 145.166 81.4369 145.166 80.4441 144.504C75.556 140.819 70.7572 137.014 66.0497 133.09C64.9071 128.794 65.734 124.99 68.5315 121.677C77.7966 121.346 87.0626 121.015 96.3276 120.684C97.1546 119.857 97.9825 119.03 98.8094 118.203C100.418 107.383 100.749 96.4659 99.8021 85.4515C98.4927 83.4794 96.6731 82.3212 94.3422 81.9778C86.0699 81.6473 77.7966 81.3158 69.5242 80.9853C67.9945 79.4182 66.836 77.598 66.0497 75.5267C65.7192 67.5869 65.3876 59.6472 65.057 51.7074C63.9561 49.4098 62.1354 47.9211 59.5971 47.2412C51.9859 46.5793 44.3757 46.5793 36.7646 47.2412C35.9376 48.068 35.1097 48.8957 34.2828 49.7224C33.9522 58.6547 33.6206 67.5869 33.29 76.5192C32.6279 77.8422 31.9668 79.1661 31.3046 80.4891C26.1971 82.6805 21.0677 83.3424 15.9175 82.474C17.6925 82.7569 19.3473 82.4264 20.8811 81.4816C11.5932 60.2129 16.8884 43.983 36.7646 32.5001C57.0001 26.2247 72.0567 32.1993 81.9332 50.7149C90.1261 34.6259 103.197 27.8444 121.146 30.3692C142.23 37.2887 150.668 51.6796 146.46 73.5418C140.363 89.5315 130.932 103.261 118.167 114.729C118.394 115.125 118.725 115.29 119.16 115.226Z" fill="#9BB1D1"/>
<path fill-rule="evenodd" clip-rule="evenodd" d="M119 115.5C119 115.5 118 115.5 118 114.5C130.764 103.032 136.403 87.9897 142.5 72C146.708 50.1378 142.23 37.2886 121.145 30.3691C103.197 27.8443 90.126 34.6258 81.9331 50.7148C72.0566 32.1992 57 26.0786 36.7645 32.354C16.8883 43.837 12.2121 61.2052 21.5 82.4739C19.9663 83.4188 17.6924 82.7568 15.9174 82.4739C3.36843 67.9411 -1.75995 51.0691 0.530251 31.8578C9.81316 7.03289 27.5163 -3.05727 53.6407 1.58741C66.7128 5.5572 76.3094 13.6624 82.4295 25.903C98.5234 -1.27807 120.363 -7.06746 147.949 8.5347C165.248 23.4704 169.384 41.5007 160.358 62.6245C149.791 82.6198 135.898 100.427 119 115.5Z" fill="#2A65AE"/>
</svg>
