<svg width="224" height="197" viewBox="0 0 224 197" fill="none" xmlns="http://www.w3.org/2000/svg">
<path fill-rule="evenodd" clip-rule="evenodd" d="M148.16 115.226C136.865 125.678 124.952 135.437 112.422 144.504C111.429 145.166 110.437 145.166 109.444 144.504C104.556 140.819 99.7571 137.014 95.0496 133.09C93.907 128.794 94.7339 124.99 97.5314 121.677C106.796 121.346 116.062 121.015 125.328 120.684C126.154 119.857 126.982 119.03 127.809 118.203C129.418 107.383 129.749 96.4659 128.802 85.4515C127.493 83.4794 125.673 82.3212 123.342 81.9778C115.07 81.6473 106.796 81.3158 98.5241 80.9853C96.9943 79.4182 95.8358 77.598 95.0496 75.5267C94.719 67.5869 94.3875 59.6472 94.0569 51.7074C92.956 49.4098 91.1353 47.9211 88.5969 47.2412C80.9858 46.5793 73.3756 46.5793 65.7644 47.2412C64.9375 48.068 64.1096 48.8957 63.2826 49.7224C62.9521 58.6547 62.6205 67.5869 62.2899 76.5192C61.6278 77.8422 60.9666 79.1661 60.3045 80.4891C55.197 82.6805 50.0676 83.3424 44.9174 82.474C46.6923 82.7569 48.3472 82.4264 49.8809 81.4816C40.5931 60.2129 45.8882 43.983 65.7644 32.5001C86 26.2247 101.057 32.1993 110.933 50.7149C119.126 34.6259 132.197 27.8444 150.145 30.3692C171.23 37.2887 179.668 51.6796 175.46 73.5418C169.362 89.5315 159.932 103.261 147.167 114.729C147.394 115.125 147.725 115.29 148.16 115.226Z" fill="#9BB1D1"/>
<path fill-rule="evenodd" clip-rule="evenodd" d="M148 115.5C148 115.5 147 115.5 147 114.5C159.764 103.032 165.403 87.9897 171.5 72C175.708 50.1378 171.23 37.2886 150.145 30.3691C132.197 27.8443 119.126 34.6258 110.933 50.7148C101.057 32.1992 86 26.0786 65.7645 32.354C45.8883 43.837 41.2121 61.2052 50.5 82.4739C48.9663 83.4188 46.6924 82.7568 44.9174 82.4739C32.3684 67.9411 27.2401 51.0691 29.5303 31.8578C38.8132 7.03289 56.5163 -3.05727 82.6407 1.58741C95.7128 5.5572 105.309 13.6624 111.429 25.903C127.523 -1.27807 149.363 -7.06746 176.949 8.5347C194.248 23.4704 198.384 41.5007 189.358 62.6245C178.791 82.6198 164.898 100.427 148 115.5Z" fill="#2A65AE"/>
<path d="M2.48 168H23.44V172.8H8V180.32H21.96V185.12H8V196H2.48V168ZM31.1791 196.32C29.0991 196.32 27.4191 195.8 26.1391 194.76C24.8591 193.72 24.2191 192.347 24.2191 190.64V189.16C24.2191 187.48 24.8857 186.133 26.2191 185.12C27.5524 184.08 29.3124 183.56 31.4991 183.56H33.9391C34.6324 183.56 35.3791 183.653 36.1791 183.84C36.9791 184.027 37.7124 184.28 38.3791 184.6V182.52C38.3791 181.853 38.1524 181.32 37.6991 180.92C37.2724 180.493 36.6991 180.28 35.9791 180.28H32.5391C31.7924 180.28 31.1924 180.453 30.7391 180.8C30.2857 181.147 30.0591 181.613 30.0591 182.2H24.7791C24.7791 180.253 25.4857 178.693 26.8991 177.52C28.3391 176.32 30.2191 175.72 32.5391 175.72H35.9791C38.3257 175.72 40.2191 176.347 41.6591 177.6C43.0991 178.827 43.8191 180.467 43.8191 182.52V196H38.7791V193.6C38.1391 194.427 37.3524 195.093 36.4191 195.6C35.4857 196.08 34.5657 196.32 33.6591 196.32H31.1791ZM34.0591 192.16C35.0457 192.16 35.9257 191.907 36.6991 191.4C37.4724 190.893 38.0324 190.213 38.3791 189.36V188.68C37.9524 188.36 37.3524 188.107 36.5791 187.92C35.8324 187.733 35.0324 187.64 34.1791 187.64H31.6591C31.0191 187.64 30.4991 187.8 30.0991 188.12C29.6991 188.44 29.4991 188.867 29.4991 189.4V190.44C29.4991 190.947 29.7124 191.36 30.1391 191.68C30.5924 192 31.1791 192.16 31.8991 192.16H34.0591ZM55.9384 196.32C54.2584 196.32 52.7651 195.987 51.4584 195.32C50.1784 194.653 49.1784 193.72 48.4584 192.52C47.7651 191.32 47.4184 189.933 47.4184 188.36V183.68C47.4184 182.107 47.7651 180.72 48.4584 179.52C49.1784 178.32 50.1784 177.387 51.4584 176.72C52.7384 176.053 54.2184 175.72 55.8984 175.72H59.0584C60.6584 175.72 62.0718 176.04 63.2984 176.68C64.5251 177.32 65.4718 178.227 66.1384 179.4C66.8051 180.547 67.1384 181.88 67.1384 183.4H61.7384C61.7384 182.493 61.4851 181.773 60.9784 181.24C60.4984 180.68 59.8584 180.4 59.0584 180.4H55.9784C55.0451 180.4 54.2851 180.747 53.6984 181.44C53.1384 182.107 52.8584 182.987 52.8584 184.08V187.96C52.8584 189.053 53.1518 189.947 53.7384 190.64C54.3251 191.307 55.0851 191.64 56.0184 191.64H59.0984C59.9518 191.64 60.6318 191.333 61.1384 190.72C61.6718 190.107 61.9384 189.293 61.9384 188.28H67.3384C67.3384 190.707 66.5784 192.653 65.0584 194.12C63.5651 195.587 61.5784 196.32 59.0984 196.32H55.9384ZM74.0413 174.16C73.0013 174.16 72.1613 173.867 71.5213 173.28C70.9079 172.667 70.6013 171.867 70.6013 170.88C70.6013 169.893 70.9079 169.107 71.5213 168.52C72.1613 167.907 73.0013 167.6 74.0413 167.6C75.0813 167.6 75.9079 167.907 76.5213 168.52C77.1613 169.107 77.4813 169.893 77.4813 170.88C77.4813 171.867 77.1613 172.667 76.5213 173.28C75.9079 173.867 75.0813 174.16 74.0413 174.16ZM71.3213 176.04H76.7613V196H71.3213V176.04ZM89.0047 196C86.6314 196 84.8847 195.507 83.7647 194.52C82.6714 193.507 82.1247 191.947 82.1247 189.84V168H87.5647V189.52C87.5647 190.16 87.7114 190.627 88.0047 190.92C88.298 191.213 88.7647 191.36 89.4047 191.36H91.5647V196H89.0047ZM97.4006 174.16C96.3606 174.16 95.5206 173.867 94.8806 173.28C94.2673 172.667 93.9606 171.867 93.9606 170.88C93.9606 169.893 94.2673 169.107 94.8806 168.52C95.5206 167.907 96.3606 167.6 97.4006 167.6C98.4406 167.6 99.2673 167.907 99.8806 168.52C100.521 169.107 100.841 169.893 100.841 170.88C100.841 171.867 100.521 172.667 99.8806 173.28C99.2673 173.867 98.4406 174.16 97.4006 174.16ZM94.6806 176.04H100.121V196H94.6806V176.04ZM114.204 196C111.857 196 110.137 195.467 109.044 194.4C107.951 193.333 107.404 191.68 107.404 189.44V180.68H103.884V176.04H107.564V170H112.844V176.04H118.044V180.68H112.844V189.2C112.844 189.947 112.977 190.493 113.244 190.84C113.537 191.187 113.991 191.36 114.604 191.36H118.044V196H114.204ZM127.742 196.32C125.662 196.32 123.982 195.8 122.702 194.76C121.422 193.72 120.782 192.347 120.782 190.64V189.16C120.782 187.48 121.448 186.133 122.782 185.12C124.115 184.08 125.875 183.56 128.062 183.56H130.502C131.195 183.56 131.942 183.653 132.742 183.84C133.542 184.027 134.275 184.28 134.942 184.6V182.52C134.942 181.853 134.715 181.32 134.262 180.92C133.835 180.493 133.262 180.28 132.542 180.28H129.102C128.355 180.28 127.755 180.453 127.302 180.8C126.848 181.147 126.622 181.613 126.622 182.2H121.342C121.342 180.253 122.048 178.693 123.462 177.52C124.902 176.32 126.782 175.72 129.102 175.72H132.542C134.888 175.72 136.782 176.347 138.222 177.6C139.662 178.827 140.382 180.467 140.382 182.52V196H135.342V193.6C134.702 194.427 133.915 195.093 132.982 195.6C132.048 196.08 131.128 196.32 130.222 196.32H127.742ZM130.622 192.16C131.608 192.16 132.488 191.907 133.262 191.4C134.035 190.893 134.595 190.213 134.942 189.36V188.68C134.515 188.36 133.915 188.107 133.142 187.92C132.395 187.733 131.595 187.64 130.742 187.64H128.222C127.582 187.64 127.062 187.8 126.662 188.12C126.262 188.44 126.062 188.867 126.062 189.4V190.44C126.062 190.947 126.275 191.36 126.702 191.68C127.155 192 127.742 192.16 128.462 192.16H130.622ZM153.341 196.32C150.408 196.32 148.114 195.507 146.461 193.88C144.808 192.227 143.981 189.933 143.981 187H149.421C149.421 188.387 149.768 189.48 150.461 190.28C151.181 191.053 152.168 191.44 153.421 191.44H157.861C159.034 191.44 159.981 191.2 160.701 190.72C161.448 190.213 161.821 189.547 161.821 188.72V187.36C161.821 186.053 160.861 185.24 158.941 184.92L151.581 183.68C149.181 183.28 147.354 182.52 146.101 181.4C144.874 180.253 144.261 178.8 144.261 177.04V174.8C144.261 173.387 144.634 172.147 145.381 171.08C146.154 169.987 147.234 169.147 148.621 168.56C150.034 167.973 151.661 167.68 153.501 167.68H158.021C159.754 167.68 161.288 168.04 162.621 168.76C163.954 169.48 164.981 170.493 165.701 171.8C166.448 173.08 166.821 174.573 166.821 176.28H161.381C161.381 175.16 161.074 174.267 160.461 173.6C159.848 172.907 159.034 172.56 158.021 172.56H153.501C152.381 172.56 151.474 172.8 150.781 173.28C150.114 173.76 149.781 174.4 149.781 175.2V176.28C149.781 177.613 150.701 178.44 152.541 178.76L159.861 180.04C162.288 180.467 164.141 181.227 165.421 182.32C166.701 183.387 167.341 184.773 167.341 186.48V189.12C167.341 190.533 166.941 191.787 166.141 192.88C165.368 193.973 164.274 194.827 162.861 195.44C161.448 196.027 159.808 196.32 157.941 196.32H153.341ZM180.951 196.32C178.978 196.32 177.244 195.907 175.751 195.08C174.258 194.227 173.098 193.04 172.271 191.52C171.444 190 171.031 188.24 171.031 186.24V168H176.551V186.08C176.551 187.68 176.951 188.973 177.751 189.96C178.578 190.947 179.644 191.44 180.951 191.44H185.191C186.524 191.44 187.604 190.947 188.431 189.96C189.258 188.973 189.671 187.68 189.671 186.08V168H195.191V186.24C195.191 188.24 194.778 190 193.951 191.52C193.124 193.04 191.951 194.227 190.431 195.08C188.911 195.907 187.164 196.32 185.191 196.32H180.951ZM208.38 196.32C205.447 196.32 203.153 195.507 201.5 193.88C199.847 192.227 199.02 189.933 199.02 187H204.46C204.46 188.387 204.807 189.48 205.5 190.28C206.22 191.053 207.207 191.44 208.46 191.44H212.9C214.073 191.44 215.02 191.2 215.74 190.72C216.487 190.213 216.86 189.547 216.86 188.72V187.36C216.86 186.053 215.9 185.24 213.98 184.92L206.62 183.68C204.22 183.28 202.393 182.52 201.14 181.4C199.913 180.253 199.3 178.8 199.3 177.04V174.8C199.3 173.387 199.673 172.147 200.42 171.08C201.193 169.987 202.273 169.147 203.66 168.56C205.073 167.973 206.7 167.68 208.54 167.68H213.06C214.793 167.68 216.327 168.04 217.66 168.76C218.993 169.48 220.02 170.493 220.74 171.8C221.487 173.08 221.86 174.573 221.86 176.28H216.42C216.42 175.16 216.113 174.267 215.5 173.6C214.887 172.907 214.073 172.56 213.06 172.56H208.54C207.42 172.56 206.513 172.8 205.82 173.28C205.153 173.76 204.82 174.4 204.82 175.2V176.28C204.82 177.613 205.74 178.44 207.58 178.76L214.9 180.04C217.327 180.467 219.18 181.227 220.46 182.32C221.74 183.387 222.38 184.773 222.38 186.48V189.12C222.38 190.533 221.98 191.787 221.18 192.88C220.407 193.973 219.313 194.827 217.9 195.44C216.487 196.027 214.847 196.32 212.98 196.32H208.38Z" fill="#2A65AE"/>
</svg>
