<svg width="60" height="50" viewBox="0 0 60 50" fill="none" xmlns="http://www.w3.org/2000/svg">
<path d="M25.3 24.5739C22.8789 24.5739 20.5122 23.8534 18.4991 22.5032C16.486 21.1532 14.917 19.2342 13.9904 16.989C13.0639 14.7438 12.8215 12.2733 13.2938 9.8899C13.7662 7.50646 14.932 5.31712 16.644 3.59878C18.356 1.88041 20.5372 0.7102 22.9118 0.236087C25.2863 -0.237992 27.7477 0.00532172 29.9847 0.935297C32.2215 1.86527 34.1335 3.4401 35.4784 5.4607C36.8236 7.48126 37.5415 9.85684 37.5415 12.287C37.533 15.543 36.2403 18.6631 33.9464 20.9655C31.6525 23.2679 28.5442 24.5654 25.3 24.5739ZM25.3 4.9148C23.8474 4.9148 22.4273 5.34717 21.2195 6.15722C20.0116 6.96727 19.0702 8.11868 18.5143 9.46575C17.9583 10.8128 17.8129 12.2951 18.0963 13.7252C18.3797 15.1553 19.0792 16.4689 20.1064 17.4999C21.1336 18.531 22.4424 19.2329 23.867 19.5176C25.2919 19.802 26.7687 19.6559 28.1107 19.0979C29.453 18.5399 30.6001 17.5951 31.407 16.3827C32.214 15.1704 32.6449 13.745 32.6449 12.287C32.6449 10.3317 31.8709 8.45658 30.4937 7.07406C29.1161 5.6915 27.2479 4.9148 25.3 4.9148Z" fill="#2864AE"/>
<path d="M2.44829 47.5094C1.79897 47.5094 1.17622 47.2505 0.717087 46.7895C0.257952 46.3289 0 45.7037 0 45.052C0 29.4885 17.7256 29.4885 25.299 29.4885C27.6493 29.4885 29.7385 29.4885 31.6319 29.7179C32.2759 29.768 32.8739 30.0717 33.296 30.5629C33.7178 31.0537 33.9293 31.6923 33.8843 32.3391C33.8262 32.9882 33.5164 33.5888 33.0222 34.0114C32.5276 34.4341 31.8881 34.6454 31.2401 34.5999C29.4774 34.5999 27.5187 34.4033 25.299 34.4033C8.38946 34.4033 4.89657 38.6628 4.89657 45.052C4.90095 45.3761 4.84062 45.6975 4.71915 45.9976C4.59765 46.2977 4.41749 46.5703 4.18928 46.7994C3.96103 47.0284 3.6894 47.2093 3.39035 47.3311C3.09134 47.4534 2.771 47.5137 2.44829 47.5094Z" fill="#2864AE"/>
<path d="M32.1867 50C31.5374 49.9996 30.9152 49.7401 30.4566 49.2791C30.1987 49.0327 30.0002 48.7307 29.8758 48.3958C29.7511 48.0609 29.7045 47.7018 29.7384 47.346L30.2607 41.0551C30.3009 40.4768 30.5437 39.9312 30.9462 39.5151L48.9656 21.4287C50.2087 20.2728 51.8409 19.6306 53.5357 19.6306C55.2303 19.6306 56.8625 20.2728 58.1059 21.4287C58.7189 22.049 59.2021 22.7858 59.5272 23.5961C59.8523 24.4064 60.0129 25.2737 59.9992 26.1469C60.012 26.9523 59.8654 27.7517 59.5686 28.4998C59.2716 29.2478 58.8299 29.9293 58.2691 30.5047L40.2497 48.5911C39.8502 49.0026 39.3177 49.2578 38.7481 49.3119L32.4152 49.9017L32.1867 50ZM35.0593 42.3329L34.8635 44.8231L37.4097 44.5937L54.8089 27.1299C55.0142 26.8828 55.1193 26.5669 55.1026 26.2452C55.1013 25.7891 54.9394 25.3481 54.6456 25.0001C54.3247 24.7609 53.9356 24.6315 53.5357 24.6315C53.1359 24.6315 52.7467 24.7609 52.4259 25.0001L35.0593 42.3329Z" fill="#2864AE"/>
</svg>
